<svg width="172" height="35" viewBox="0 0 172 35" fill="none" xmlns="http://www.w3.org/2000/svg">
<path d="M0.351964 33.8982C0.302257 33.8494 0.277344 33.7891 0.277344 33.7177V30.2389C0.277344 30.1675 0.302137 30.1063 0.351964 30.0555C0.401431 30.0048 0.462636 29.9795 0.53522 29.9795C0.607684 29.9795 0.669847 30.0048 0.72147 30.0555C0.772973 30.1063 0.798725 30.1675 0.798725 30.2389V33.7177C0.798725 33.7891 0.772854 33.8494 0.72147 33.8982C0.669847 33.9469 0.607684 33.9714 0.53522 33.9714C0.462636 33.9714 0.401551 33.9469 0.351964 33.8982Z" fill="white" stroke="white" stroke-width="0.25" stroke-miterlimit="10"/>
<path d="M1.80674 33.7291C1.76099 33.7102 1.72278 33.6792 1.69224 33.6361C1.66158 33.5928 1.64648 33.5468 1.64648 33.4979C1.64648 33.434 1.66828 33.3786 1.71236 33.3316C1.7562 33.2845 1.81261 33.2611 1.88136 33.2611C1.91945 33.2611 1.95586 33.2686 1.99024 33.2836C2.34154 33.4378 2.71775 33.5148 3.11864 33.5148C3.78687 33.5148 4.12116 33.2988 4.12116 32.8663C4.12116 32.7535 4.07816 32.6596 3.99228 32.5843C3.90628 32.5092 3.80028 32.4501 3.6744 32.4068C3.54827 32.3635 3.36885 32.3119 3.13589 32.2516C2.82651 32.1728 2.5763 32.0966 2.38538 32.0233C2.19446 31.95 2.03024 31.8401 1.89286 31.6934C1.75536 31.5469 1.68661 31.3514 1.68661 31.1071C1.68661 30.8928 1.74398 30.6984 1.85849 30.5235C1.97299 30.3488 2.14199 30.2098 2.36549 30.1063C2.58888 30.003 2.85705 29.9512 3.17038 29.9512C3.59043 29.9512 3.97024 30.0132 4.31028 30.1373C4.41724 30.1749 4.47066 30.25 4.47066 30.3629C4.47066 30.423 4.44958 30.4776 4.40766 30.5263C4.36562 30.5752 4.31028 30.5996 4.24153 30.5996C4.21866 30.5996 4.18811 30.592 4.1499 30.577C3.85202 30.4754 3.54456 30.4246 3.22752 30.4246C2.9258 30.4246 2.6805 30.4811 2.4915 30.5939C2.30237 30.7066 2.20787 30.8646 2.20787 31.0675C2.20787 31.2029 2.25279 31.3127 2.3425 31.3974C2.43221 31.4819 2.54492 31.5477 2.6805 31.5947C2.81597 31.6418 3.0003 31.6914 3.23327 31.7441C3.53498 31.8156 3.77848 31.887 3.96365 31.9583C4.14883 32.0299 4.30729 32.1407 4.43916 32.291C4.57091 32.4415 4.63679 32.6445 4.63679 32.9001C4.63679 33.1106 4.57558 33.2995 4.45353 33.4667C4.33124 33.634 4.15937 33.7646 3.9379 33.8584C3.71644 33.9524 3.46048 33.9994 3.17038 33.9994C2.68505 33.9998 2.23063 33.9095 1.80674 33.7291Z" fill="white" stroke="white" stroke-width="0.25" stroke-miterlimit="10"/>
<path d="M5.51395 33.8701C5.46425 33.8213 5.43945 33.7611 5.43945 33.6897V30.2672C5.43945 30.1957 5.46425 30.1347 5.51395 30.0839C5.56354 30.0332 5.62463 30.0078 5.69721 30.0078H7.99426C8.06301 30.0078 8.12122 30.0314 8.16901 30.0783C8.21668 30.1254 8.24063 30.1827 8.24063 30.2502C8.24063 30.3179 8.21668 30.3743 8.16901 30.4194C8.12122 30.4645 8.06301 30.4871 7.99426 30.4871H5.96071V31.7332H7.788C7.85675 31.7332 7.91497 31.7567 7.96276 31.8037C8.01043 31.8507 8.03438 31.908 8.03438 31.9756C8.03438 32.0433 8.01043 32.0997 7.96276 32.1448C7.91497 32.1898 7.85675 32.2124 7.788 32.2124H5.96071V33.4642H7.99426C8.06301 33.4642 8.12122 33.4877 8.16901 33.5347C8.21668 33.5818 8.24063 33.6391 8.24063 33.7067C8.24063 33.7744 8.21668 33.8308 8.16901 33.8759C8.12122 33.921 8.06301 33.9436 7.99426 33.9436H5.69721C5.62463 33.9435 5.56342 33.9191 5.51395 33.8701Z" fill="white" stroke="white" stroke-width="0.25" stroke-miterlimit="10"/>
<path d="M9.16825 33.8701C9.11854 33.8213 9.09375 33.7611 9.09375 33.6897V30.2672C9.09375 30.1957 9.11854 30.1347 9.16825 30.0839C9.21772 30.0332 9.27892 30.0078 9.35151 30.0078H11.6486C11.7173 30.0078 11.7755 30.0314 11.8232 30.0783C11.8709 30.1254 11.8948 30.1827 11.8948 30.2502C11.8948 30.3179 11.8709 30.3743 11.8232 30.4194C11.7754 30.4645 11.7173 30.4871 11.6486 30.4871H9.61501V31.7332H11.4424C11.5112 31.7332 11.5694 31.7567 11.6171 31.8037C11.6647 31.8507 11.6887 31.908 11.6887 31.9756C11.6887 32.0433 11.6647 32.0997 11.6171 32.1448C11.5693 32.1898 11.5112 32.2124 11.4424 32.2124H9.61501V33.4642H11.6486C11.7173 33.4642 11.7755 33.4877 11.8232 33.5347C11.8709 33.5818 11.8948 33.6391 11.8948 33.7067C11.8948 33.7744 11.8709 33.8308 11.8232 33.8759C11.7754 33.921 11.7173 33.9436 11.6486 33.9436H9.35151C9.27892 33.9435 9.21772 33.9191 9.16825 33.8701Z" fill="white" stroke="white" stroke-width="0.25" stroke-miterlimit="10"/>
<path d="M14.6739 33.7543C14.3703 33.5908 14.1316 33.356 13.9579 33.0496C13.7841 32.7433 13.6973 32.3852 13.6973 31.9754C13.6973 31.5659 13.7841 31.2077 13.9579 30.9013C14.1316 30.5949 14.3703 30.3599 14.6739 30.1965C14.9775 30.033 15.3202 29.9512 15.7022 29.9512C15.9619 29.9512 16.1937 29.9814 16.3982 30.0414C16.6024 30.1016 16.8058 30.1879 17.0082 30.3007C17.0921 30.3458 17.1341 30.4172 17.1341 30.5149C17.1341 30.5714 17.1133 30.6212 17.0711 30.6644C17.0292 30.7077 16.9738 30.7293 16.9051 30.7293C16.8669 30.7293 16.8324 30.7217 16.8021 30.7066C16.6339 30.6202 16.4698 30.5543 16.3093 30.5093C16.1491 30.4642 15.9637 30.4416 15.7537 30.4416C15.4251 30.4416 15.1455 30.5083 14.9144 30.6418C14.6834 30.7753 14.5096 30.9575 14.3932 31.1887C14.2766 31.4199 14.2184 31.6821 14.2184 31.9753C14.2184 32.2685 14.2766 32.5307 14.3932 32.7619C14.5096 32.993 14.6834 33.1755 14.9144 33.3088C15.1455 33.4423 15.4251 33.509 15.7537 33.509C15.9637 33.509 16.1489 33.4863 16.3093 33.4413C16.4698 33.3963 16.6339 33.3305 16.8021 33.244C16.8324 33.229 16.8669 33.2213 16.9051 33.2213C16.9738 33.2213 17.0292 33.2421 17.0711 33.2833C17.1133 33.3247 17.1341 33.3755 17.1341 33.4357C17.1341 33.5335 17.0922 33.6048 17.0082 33.6499C16.8058 33.7627 16.6024 33.8492 16.3982 33.9092C16.1937 33.9694 15.9619 33.9994 15.7022 33.9994C15.3202 33.9997 14.9775 33.9178 14.6739 33.7543Z" fill="white" stroke="white" stroke-width="0.25" stroke-miterlimit="10"/>
<path d="M18.5211 33.7402C18.2194 33.5673 17.9863 33.3286 17.8221 33.0241C17.658 32.7197 17.572 32.3701 17.5645 31.9754C17.5719 31.5807 17.658 31.2311 17.8221 30.9266C17.9864 30.6222 18.2194 30.3835 18.5211 30.2105C18.8226 30.0377 19.174 29.9512 19.575 29.9512C19.976 29.9512 20.3265 30.0377 20.6263 30.2105C20.9261 30.3835 21.159 30.6231 21.325 30.9295C21.4913 31.2359 21.578 31.5844 21.5857 31.9753C21.578 32.3664 21.4913 32.7149 21.325 33.0211C21.159 33.3275 20.9261 33.5672 20.6263 33.7401C20.3265 33.913 19.976 33.9994 19.575 33.9994C19.174 33.9995 18.8227 33.913 18.5211 33.7402ZM20.3714 33.3172C20.5967 33.1818 20.7684 32.9978 20.887 32.7647C21.0054 32.5318 21.0645 32.2685 21.0645 31.9753C21.0645 31.6821 21.0055 31.419 20.887 31.1859C20.7684 30.9528 20.5967 30.7687 20.3714 30.6334C20.1461 30.4981 19.8805 30.4304 19.5751 30.4304C19.2659 30.4304 18.9996 30.4981 18.7762 30.6334C18.5527 30.7688 18.3818 30.9529 18.2635 31.1859C18.1451 31.419 18.0858 31.6821 18.0858 31.9753C18.0858 32.2685 18.1451 32.5316 18.2635 32.7647C18.3818 32.9978 18.5527 33.1819 18.7762 33.3172C18.9996 33.4525 19.266 33.5202 19.5751 33.5202C19.8805 33.5202 20.146 33.4525 20.3714 33.3172Z" fill="white" stroke="white" stroke-width="0.25" stroke-miterlimit="10"/>
<path d="M23.3891 33.712L21.9742 30.3347C21.9628 30.3046 21.957 30.2727 21.957 30.2389C21.957 30.1599 21.9799 30.0969 22.0258 30.05C22.0717 30.0031 22.1347 29.9795 22.2149 29.9795C22.2683 29.9795 22.3171 29.9955 22.3609 30.0275C22.4049 30.0594 22.4382 30.1017 22.461 30.1542L23.8071 33.4583L25.1532 30.1542C25.1762 30.1016 25.2096 30.0593 25.2536 30.0275C25.2973 29.9955 25.3461 29.9795 25.3996 29.9795C25.4797 29.9795 25.5427 30.0031 25.5887 30.05C25.6344 30.097 25.6575 30.1599 25.6575 30.2389C25.6575 30.2727 25.6517 30.3046 25.6401 30.3347L24.2255 33.712C24.1451 33.885 24.0267 33.9714 23.8701 33.9714H23.7441C23.5875 33.9715 23.4692 33.885 23.3891 33.712Z" fill="white" stroke="white" stroke-width="0.25" stroke-miterlimit="10"/>
<path d="M26.4261 33.8982C26.3765 33.8494 26.3516 33.7891 26.3516 33.7177V30.2389C26.3516 30.1675 26.3764 30.1063 26.4261 30.0555C26.4756 30.0048 26.5367 29.9795 26.6094 29.9795C26.6819 29.9795 26.7441 30.005 26.7957 30.0555C26.8473 30.1063 26.8729 30.1675 26.8729 30.2389V33.7177C26.8729 33.7891 26.8472 33.8494 26.7957 33.8982C26.7441 33.9469 26.6819 33.9715 26.6094 33.9715C26.5367 33.9715 26.4756 33.9469 26.4261 33.8982Z" fill="white" stroke="white" stroke-width="0.25" stroke-miterlimit="10"/>
<path d="M28.0588 33.8701C28.0092 33.8213 27.9844 33.7611 27.9844 33.6897V30.2672C27.9844 30.1957 28.0092 30.1347 28.0588 30.0839C28.1083 30.0332 28.1694 30.0078 28.2421 30.0078H29.3935C29.8288 30.0078 30.1984 30.1028 30.5019 30.2925C30.8057 30.4825 31.0339 30.7277 31.1864 31.0284C31.3393 31.3291 31.4157 31.6449 31.4157 31.9756C31.4157 32.3064 31.3393 32.6221 31.1864 32.9227C31.0339 33.2235 30.8057 33.4688 30.5019 33.6585C30.1984 33.8485 29.8288 33.9434 29.3935 33.9434H28.2421C28.1694 33.9434 28.1083 33.919 28.0588 33.8701ZM29.3305 33.4641C29.6437 33.4641 29.9186 33.4012 30.1554 33.2753C30.3921 33.1493 30.5755 32.9746 30.7053 32.7509C30.835 32.5272 30.9001 32.2688 30.9001 31.9756C30.9001 31.6824 30.835 31.424 30.7053 31.2003C30.5755 30.9767 30.3921 30.802 30.1554 30.6759C29.9186 30.55 29.6437 30.4871 29.3305 30.4871H28.5056V33.4642H29.3305V33.4641Z" fill="white" stroke="white" stroke-width="0.25" stroke-miterlimit="10"/>
<path d="M48.295 25.6018C48.0985 25.4088 48 25.1707 48 24.8883V11.1375C48 10.8556 48.098 10.6137 48.295 10.4129C48.4905 10.2125 48.7324 10.1123 49.0193 10.1123C49.3057 10.1123 49.5515 10.2125 49.7555 10.4129C49.9591 10.6137 50.0609 10.8556 50.0609 11.1375V24.8883C50.0609 25.1707 49.9586 25.4088 49.7555 25.6018C49.5515 25.7942 49.3057 25.8911 49.0193 25.8911C48.7324 25.8911 48.491 25.7942 48.295 25.6018Z" fill="white" stroke="white" stroke-width="0.25" stroke-miterlimit="10"/>
<path d="M54.0456 24.933C53.8647 24.8585 53.7137 24.7359 53.593 24.5654C53.4718 24.3943 53.4121 24.2126 53.4121 24.0192C53.4121 23.7666 53.4983 23.5476 53.6725 23.3617C53.8458 23.1757 54.0688 23.083 54.3405 23.083C54.4911 23.083 54.635 23.1128 54.7709 23.172C56.1595 23.7816 57.6465 24.0859 59.2311 24.0859C61.8724 24.0859 63.1938 23.2321 63.1938 21.5228C63.1938 21.0769 63.0238 20.7055 62.6844 20.4082C62.3444 20.1113 61.9255 19.8774 61.4279 19.7064C60.9293 19.5353 60.2201 19.3312 59.2993 19.0931C58.0764 18.7814 57.0874 18.4803 56.3327 18.1905C55.5781 17.9006 54.929 17.4663 54.386 16.8866C53.8425 16.3073 53.5707 15.5347 53.5707 14.5692C53.5707 13.722 53.7975 12.9535 54.2501 12.2624C54.7027 11.5718 55.3707 11.0224 56.2542 10.6133C57.1371 10.205 58.1971 10 59.4356 10C61.096 10 62.5973 10.2451 63.9413 10.7358C64.3641 10.8845 64.5753 11.1813 64.5753 11.6273C64.5753 11.8649 64.492 12.0807 64.3262 12.2732C64.1601 12.4666 63.9413 12.563 63.6696 12.563C63.5792 12.563 63.4584 12.5332 63.3074 12.4735C62.13 12.0723 60.9147 11.8715 59.6615 11.8715C58.4689 11.8715 57.4993 12.0947 56.7522 12.5406C56.0046 12.9861 55.6311 13.6106 55.6311 14.4126C55.6311 14.9476 55.8086 15.3819 56.1633 15.7165C56.5179 16.0506 56.9634 16.3106 57.4993 16.4965C58.0347 16.6825 58.7634 16.8787 59.6842 17.087C60.8768 17.3694 61.8393 17.6518 62.5712 17.9337C63.3032 18.2166 63.9295 18.6546 64.4508 19.2487C64.9715 19.8434 65.2319 20.6458 65.2319 21.6561C65.2319 22.4884 64.99 23.2349 64.5076 23.8957C64.0242 24.557 63.3448 25.0733 62.4694 25.4443C61.594 25.8157 60.5823 26.0016 59.4356 26.0016C57.5173 26.003 55.7211 25.646 54.0456 24.933Z" fill="white" stroke="white" stroke-width="0.25" stroke-miterlimit="10"/>
<path d="M68.6988 25.4903C68.5023 25.2974 68.4043 25.0593 68.4043 24.7769V11.2488C68.4043 10.9664 68.5023 10.725 68.6988 10.5242C68.8948 10.3238 69.1362 10.2236 69.4231 10.2236H78.5027C78.7745 10.2236 79.0045 10.3168 79.1934 10.5023C79.3819 10.6882 79.4766 10.9147 79.4766 11.1817C79.4766 11.4492 79.3819 11.6724 79.1934 11.8504C79.0045 12.0289 78.7745 12.1179 78.5027 12.1179H70.4647V17.0436H77.6874C77.9592 17.0436 78.1893 17.1363 78.3782 17.3222C78.5666 17.5082 78.6613 17.7347 78.6613 18.0017C78.6613 18.2692 78.5666 18.4924 78.3782 18.6704C78.1893 18.8484 77.9592 18.9379 77.6874 18.9379H70.4647V23.8859H78.5027C78.7745 23.8859 79.0045 23.9786 79.1934 24.1646C79.3819 24.3505 79.4766 24.577 79.4766 24.8445C79.4766 25.1119 79.3819 25.3347 79.1934 25.5132C79.0045 25.6912 78.7745 25.7807 78.5027 25.7807H69.4231C69.1362 25.7802 68.8943 25.6837 68.6988 25.4903Z" fill="white" stroke="white" stroke-width="0.25" stroke-miterlimit="10"/>
<path d="M83.1441 25.4903C82.9476 25.2974 82.8496 25.0593 82.8496 24.7769V11.2488C82.8496 10.9664 82.9476 10.725 83.1441 10.5242C83.3396 10.3238 83.5815 10.2236 83.8684 10.2236H92.948C93.2198 10.2236 93.4499 10.3168 93.6383 10.5023C93.8267 10.6882 93.9214 10.9147 93.9214 11.1817C93.9214 11.4492 93.8267 11.6724 93.6383 11.8504C93.4494 12.0289 93.2198 12.1179 92.948 12.1179H84.91V17.0436H92.1332C92.405 17.0436 92.6351 17.1363 92.8235 17.3222C93.0119 17.5082 93.1066 17.7347 93.1066 18.0017C93.1066 18.2692 93.0119 18.4924 92.8235 18.6704C92.6346 18.8484 92.405 18.9379 92.1332 18.9379H84.91V23.8859H92.948C93.2198 23.8859 93.4499 23.9786 93.6383 24.1646C93.8267 24.3505 93.9214 24.577 93.9214 24.8445C93.9214 25.1119 93.8267 25.3347 93.6383 25.5132C93.4494 25.6912 93.2198 25.7807 92.948 25.7807H83.8684C83.5815 25.7802 83.3396 25.6837 83.1441 25.4903Z" fill="white" stroke="white" stroke-width="0.25" stroke-miterlimit="10"/>
<path d="M104.782 25.0328C103.582 24.3864 102.639 23.4581 101.952 22.247C101.265 21.0363 100.922 19.6211 100.922 18.0013C100.922 16.3824 101.265 14.9667 101.952 13.7555C102.639 12.5444 103.582 11.6156 104.782 10.9698C105.982 10.3234 107.337 10 108.847 10C109.873 10 110.79 10.1193 111.598 10.3565C112.405 10.5946 113.209 10.9357 114.009 11.3817C114.34 11.5597 114.507 11.8421 114.507 12.2284C114.507 12.4516 114.424 12.6483 114.258 12.8193C114.092 12.9903 113.873 13.0756 113.601 13.0756C113.45 13.0756 113.314 13.0458 113.194 12.9861C112.53 12.6446 111.881 12.3841 111.247 12.2061C110.613 12.028 109.88 11.9386 109.05 11.9386C107.752 11.9386 106.646 12.2023 105.733 12.7298C104.82 13.2574 104.133 13.9778 103.673 14.8916C103.212 15.8055 102.982 16.8419 102.982 18.0008C102.982 19.1597 103.212 20.1961 103.673 21.11C104.133 22.0233 104.82 22.7447 105.733 23.2717C106.646 23.7993 107.752 24.063 109.05 24.063C109.88 24.063 110.613 23.9735 111.247 23.7955C111.881 23.6175 112.53 23.3575 113.194 23.0154C113.314 22.9563 113.45 22.926 113.601 22.926C113.873 22.926 114.092 23.008 114.258 23.1711C114.424 23.3347 114.507 23.5355 114.507 23.7732C114.507 24.1599 114.341 24.4419 114.009 24.6199C113.209 25.0659 112.405 25.4079 111.598 25.6451C110.79 25.8828 109.873 26.0016 108.847 26.0016C107.337 26.0025 105.982 25.6791 104.782 25.0328Z" fill="white" stroke="white" stroke-width="0.25" stroke-miterlimit="10"/>
<path d="M119.988 24.9769C118.796 24.2937 117.874 23.35 117.225 22.1464C116.577 20.9431 116.237 19.5614 116.207 18.0013C116.236 16.4411 116.577 15.0594 117.225 13.8557C117.875 12.6525 118.796 11.7088 119.988 11.0252C121.18 10.342 122.569 10 124.154 10C125.739 10 127.124 10.342 128.309 11.0252C129.495 11.7088 130.415 12.6557 131.072 13.8669C131.729 15.078 132.071 16.4555 132.102 18.0008C132.071 19.5465 131.729 20.924 131.072 22.1347C130.415 23.3458 129.495 24.2932 128.309 24.9764C127.124 25.66 125.739 26.0016 124.154 26.0016C122.569 26.0021 121.18 25.66 119.988 24.9769ZM127.302 23.3048C128.193 22.7699 128.871 22.0424 129.34 21.1212C129.808 20.2003 130.042 19.1597 130.042 18.0008C130.042 16.8419 129.808 15.8017 129.34 14.8804C128.871 13.9592 128.193 13.2313 127.302 12.6968C126.411 12.1618 125.362 11.8943 124.155 11.8943C122.932 11.8943 121.88 12.1618 120.997 12.6968C120.113 13.2317 119.438 13.9596 118.97 14.8804C118.502 15.8017 118.268 16.8419 118.268 18.0008C118.268 19.1597 118.502 20.1999 118.97 21.1212C119.438 22.0424 120.113 22.7703 120.997 23.3048C121.88 23.8398 122.933 24.1073 124.155 24.1073C125.362 24.1073 126.411 23.8398 127.302 23.3048Z" fill="white" stroke="white" stroke-width="0.25" stroke-miterlimit="10"/>
<path d="M139.231 24.8659L133.638 11.5164C133.593 11.3975 133.57 11.2713 133.57 11.1375C133.57 10.8253 133.661 10.5764 133.842 10.391C134.023 10.2055 134.272 10.1123 134.59 10.1123C134.801 10.1123 134.993 10.1757 135.167 10.302C135.34 10.4283 135.472 10.5956 135.563 10.8029L140.883 23.8631L146.204 10.8029C146.295 10.5951 146.427 10.4278 146.601 10.302C146.774 10.1757 146.966 10.1123 147.178 10.1123C147.495 10.1123 147.744 10.2055 147.925 10.391C148.106 10.5769 148.197 10.8253 148.197 11.1375C148.197 11.2713 148.174 11.3975 148.128 11.5164L142.537 24.8659C142.219 25.5496 141.751 25.8911 141.132 25.8911H140.634C140.015 25.8916 139.547 25.5496 139.231 24.8659Z" fill="white" stroke="white" stroke-width="0.25" stroke-miterlimit="10"/>
<path d="M151.236 25.6017C151.04 25.4088 150.941 25.1707 150.941 24.8883V11.1375C150.941 10.8556 151.039 10.6137 151.236 10.4129C151.432 10.2125 151.673 10.1123 151.961 10.1123C152.247 10.1123 152.493 10.213 152.697 10.4129C152.901 10.6137 153.002 10.8556 153.002 11.1375V24.8883C153.002 25.1707 152.9 25.4088 152.697 25.6017C152.493 25.7942 152.247 25.8916 151.961 25.8916C151.673 25.8916 151.432 25.7942 151.236 25.6017Z" fill="white" stroke="white" stroke-width="0.25" stroke-miterlimit="10"/>
<path d="M157.689 25.4903C157.493 25.2974 157.395 25.0593 157.395 24.7769V11.2488C157.395 10.9664 157.493 10.725 157.689 10.5242C157.885 10.3238 158.126 10.2236 158.413 10.2236H162.965C164.685 10.2236 166.146 10.5992 167.346 11.349C168.546 12.0998 169.448 13.069 170.051 14.2578C170.656 15.4461 170.958 16.6945 170.958 18.0017C170.958 19.3093 170.656 20.5572 170.051 21.7455C169.448 22.9343 168.546 23.9041 167.346 24.6539C166.146 25.4046 164.685 25.7797 162.965 25.7797H158.413C158.126 25.7797 157.885 25.6833 157.689 25.4903ZM162.715 23.8854C163.954 23.8854 165.04 23.6366 165.976 23.1389C166.912 22.6412 167.636 21.9506 168.15 21.0661C168.662 20.1821 168.919 19.1606 168.919 18.0017C168.919 16.8427 168.662 15.8213 168.15 14.9373C167.636 14.0532 166.912 13.3626 165.976 12.8645C165.04 12.3668 163.954 12.1179 162.715 12.1179H159.455V23.8859H162.715V23.8854Z" fill="white" stroke="white" stroke-width="0.25" stroke-miterlimit="10"/>
<path d="M18.1379 17.4048C18.1712 17.4262 18.2088 17.4479 18.2472 17.4543C18.2535 17.4551 18.2598 17.4563 18.2656 17.4573C18.552 17.5513 19.3121 17.6831 20.4841 17.0311C20.4884 17.0301 20.4933 17.0291 20.4976 17.0282C20.5068 17.0262 20.5144 17.0169 20.523 17.0108C20.527 17.0079 20.5311 17.0049 20.5351 17.0021C20.5376 17.0014 20.7611 16.9308 21.0331 16.6331C21.0686 16.5987 21.1008 16.5608 21.1293 16.5202C21.2381 16.3838 21.351 16.2104 21.4584 15.991C21.4725 15.9714 21.4876 15.9524 21.5002 15.932C21.504 15.9258 21.5081 15.9193 21.5116 15.9131L21.6751 15.6753C21.6902 15.6581 21.7056 15.6413 21.7223 15.6253C21.6883 15.5964 21.6582 15.5693 21.6268 15.5439C21.6176 15.5367 21.6041 15.5303 21.5928 15.5302C21.5276 15.5295 21.4631 15.526 21.3991 15.5519C21.3011 15.5913 21.2133 15.6471 21.1315 15.7115C21.0706 15.7591 21.0094 15.8107 20.9638 15.8716C20.9295 15.917 20.8966 15.9623 20.8567 16.0032C20.8098 16.0513 20.7634 16.0998 20.7173 16.1487C20.5469 16.33 20.3869 16.5209 20.1969 16.6836C20.1527 16.7215 20.1017 16.7532 20.0508 16.7827C20.0205 16.8005 19.9847 16.8085 19.9409 16.8252C19.9488 16.8006 19.9515 16.7878 19.9565 16.7757C19.9727 16.7389 19.992 16.7028 20.0059 16.665C20.0272 16.6084 20.0423 16.5495 20.0657 16.4934C20.1437 16.3063 20.2244 16.1205 20.2672 15.9216C20.2809 15.8585 20.3001 15.7965 20.3135 15.7332C20.3209 15.6987 20.327 15.6635 20.3316 15.6278C20.3316 15.6278 20.4176 15.2295 20.3516 15.1825C20.3389 15.1576 20.3156 15.142 20.2857 15.1354C20.2585 15.1295 20.2283 15.129 20.2005 15.133C20.1317 15.1434 20.077 15.1791 20.0325 15.2239C20.0114 15.2453 19.9928 15.2685 19.9761 15.2921C19.8852 15.4189 19.8095 15.557 19.7387 15.6956C19.681 15.8089 19.6414 15.931 19.591 16.0484C19.5105 16.2347 19.4269 16.4186 19.3088 16.586C19.2635 16.6504 19.2099 16.7039 19.1429 16.75C19.1526 16.704 19.1656 16.6421 19.175 16.5876C19.1788 16.5798 19.1804 16.5708 19.1818 16.5609C19.184 16.5405 19.1863 16.5195 19.1883 16.4989V16.4986C19.1945 16.4369 19.201 16.3755 19.2063 16.3136C19.2088 16.2802 19.2115 16.2471 19.2133 16.2137L19.2555 15.7338C19.2555 15.7331 19.2555 15.7321 19.2557 15.7316L19.2576 15.7092V15.7086C19.26 15.6825 19.2621 15.6562 19.2637 15.6302C19.275 15.4587 19.2799 15.2867 19.2875 15.1151C19.2897 15.063 19.2597 15.0229 19.2099 15.0057C19.1673 14.9907 19.1341 15.0077 19.1011 15.0302C19.025 15.0829 18.9768 15.1586 18.9285 15.2339C18.8055 15.4271 18.7617 15.6465 18.7216 15.865C18.6949 16.008 18.6852 16.154 18.6723 16.2989C18.6553 16.4956 18.59 16.6726 18.4673 16.8289C18.426 16.8816 18.3864 16.9358 18.3477 16.9902C18.3221 17.0264 18.3 17.0645 18.2747 17.101C18.2239 17.1747 18.1706 17.2465 18.1214 17.3208C18.0987 17.3547 18.1032 17.3822 18.1379 17.4048Z" fill="white"/>
<path d="M22.6518 17.0669C22.6462 16.9923 22.5974 16.9343 22.5239 16.9327C22.4544 16.931 22.3843 16.9343 22.3151 16.942C22.1414 16.9608 21.9734 17.011 21.8032 17.0494C21.6074 17.0933 21.4111 17.1358 21.2149 17.1783C21.1609 17.1901 21.1064 17.2002 21.0522 17.2126C20.9447 17.2373 20.837 17.2607 20.7304 17.289C20.6551 17.3093 20.5818 17.3365 20.5076 17.3609C20.4258 17.3878 20.3393 17.4058 20.263 17.4437C20.1349 17.5067 19.9946 17.5318 19.8613 17.5768C19.7165 17.6258 19.5673 17.661 19.4191 17.6996L18.8346 17.7899C17.9221 17.7819 17.6078 17.3346 17.5876 17.3047C17.5874 17.304 17.5871 17.3036 17.587 17.3027C17.535 17.241 17.4917 17.1752 17.4526 17.1049C17.3598 16.9386 17.297 16.7614 17.2492 16.5797C17.2022 16.4017 17.1642 16.2212 17.1213 16.0422C17.1153 16.0169 17.1078 15.9907 17.0946 15.9685C17.0413 15.8797 16.9994 15.7854 16.9401 15.6992C16.8902 15.6268 16.8335 15.5779 16.7505 15.5458C16.6572 15.509 16.5738 15.5192 16.4919 15.5647C16.4078 15.6106 16.3764 15.6857 16.3937 15.7803C16.4117 15.88 16.4355 15.9779 16.4738 16.0723C16.488 16.108 16.4953 16.146 16.5072 16.1825C16.5282 16.2479 16.545 16.3152 16.5736 16.3778C16.6057 16.4475 16.6264 16.5187 16.6192 16.5943C16.6119 16.6689 16.6041 16.7439 16.5836 16.8156C16.5436 16.9597 16.5207 17.1076 16.4698 17.2494C16.421 17.3845 16.3941 17.5258 16.3692 17.6677C16.3417 17.824 16.3217 17.9797 16.3325 18.1383C16.3399 18.2514 16.3457 18.3647 16.36 18.4767C16.3694 18.5547 16.3907 18.6316 16.4088 18.7086C16.4454 18.864 16.4811 19.0195 16.5218 19.1737C16.5218 19.1737 16.5202 19.7446 16.4833 20.2336C16.4833 20.2346 16.4831 20.2357 16.4831 20.2365C16.4696 20.3386 16.4664 20.4427 16.4444 20.5428C16.424 20.6346 16.4123 20.7271 16.3994 20.8196C16.3994 20.8196 16.3941 20.8431 16.3851 20.8862C16.3102 21.3599 16.2057 23.0251 16.1607 23.4679C16.1589 23.4974 16.1567 23.5266 16.1551 23.5564C16.1546 23.5599 16.1546 23.5632 16.1541 23.5665C16.1536 23.5729 16.1536 23.5793 16.153 23.5856C16.1404 23.8101 16.1347 24.0403 16.1417 24.267C16.1412 24.2904 16.1417 24.3141 16.1442 24.3375C16.1534 24.561 16.1744 24.78 16.2118 24.9853C16.2226 25.0944 16.2329 25.204 16.2449 25.3131C16.2557 25.4132 16.2725 25.5128 16.2861 25.6127C16.2991 25.7069 16.3118 25.8009 16.3246 25.895C16.3361 25.9793 16.3498 26.063 16.3589 26.1478C16.3665 26.2222 16.3575 26.3 16.3759 26.3712C16.416 26.5238 16.4231 26.6779 16.4253 26.8341C16.428 26.9932 16.4086 27.152 16.4345 27.312C16.4554 27.4413 16.4593 27.5739 16.4685 27.7049C16.4752 27.8139 16.48 27.923 16.4828 28.0321C16.4833 28.0629 16.4914 28.0829 16.5268 28.0912C16.5428 28.0522 16.5754 28.0524 16.6113 28.0601C16.6432 28.0669 16.6758 28.0733 16.7084 28.0769C16.7572 28.0823 16.8064 28.0879 16.8555 28.0884C16.8781 28.0887 16.9011 28.078 16.9207 28.073C16.9268 28.014 16.9045 27.9714 16.8832 27.9279C16.8611 27.8848 16.8395 27.8404 16.8238 27.7946C16.7755 27.654 16.7467 27.5097 16.7407 27.3608C16.7386 27.3144 16.7288 27.2684 16.7234 27.2223C16.7212 27.2047 16.7216 27.1871 16.7207 27.1692C16.725 27.1688 16.7293 27.1686 16.7335 27.1683C16.7542 27.2163 16.7733 27.2649 16.796 27.3122C16.8596 27.4459 16.9239 27.5789 17.0199 27.6941C17.0642 27.7472 17.1081 27.8008 17.1475 27.8573C17.1875 27.9137 17.219 27.9748 17.3022 27.9798C17.3402 27.9819 17.3784 28.0052 17.4157 28.0039C17.543 27.9982 17.6693 27.9854 17.7965 27.9767C17.8325 27.9742 17.8548 27.9544 17.8793 27.927C17.8423 27.8986 17.8442 27.8632 17.8532 27.8241C17.8586 27.801 17.8559 27.7759 17.8554 27.7516C17.8525 27.6544 17.8479 27.5573 17.8462 27.4608C17.844 27.3214 17.8109 27.1887 17.7675 27.0573C17.7416 26.9796 17.7192 26.9004 17.694 26.8176C17.7154 26.8331 17.7359 26.8472 17.7555 26.8607C17.9194 27.0023 18.3429 27.4082 18.4353 27.8898L18.6084 27.9265C18.6084 27.9265 18.6495 27.9142 18.6536 27.9021C18.6566 27.8939 18.6456 27.8696 18.6377 27.854C18.6371 27.8477 18.6344 27.8431 18.6303 27.8401C18.6303 27.8401 18.5896 27.6199 18.5537 27.4884C18.6192 27.5619 18.6772 27.6272 18.736 27.6914C18.7461 27.7022 18.7574 27.716 18.7687 27.7276C18.7687 27.7276 18.8489 27.8628 19.0149 27.9423C19.0392 27.9603 19.0666 27.9736 19.0992 27.9791C19.1149 27.9818 19.1305 27.9842 19.1461 27.987C19.1642 27.9909 19.1831 27.9939 19.2027 27.9959C19.2575 28.004 19.3125 28.0098 19.3684 28.0093C19.4111 28.0087 19.4585 27.9917 19.497 28.0278C19.4992 28.0302 19.5073 28.0257 19.5127 28.0249C19.586 28.0951 20.1049 27.9959 20.1049 27.9959C19.9898 27.9147 19.665 27.3118 19.641 27.2662C19.627 27.2334 19.6167 27.1992 19.6059 27.1651V27.1653C19.6059 27.1653 20.0944 27.4873 20.3784 27.7199L20.4139 27.753C20.4679 27.8069 20.5185 27.8581 20.569 27.9078V27.9081C20.5836 27.9228 20.599 27.9375 20.6138 27.9522C20.6239 27.9619 20.6464 27.9713 20.6562 27.9667C20.8159 27.9903 21.2011 27.9388 21.2011 27.9388C21.0981 27.8331 20.2992 27.3643 20.2992 27.3643C20.294 27.3548 20.29 27.3443 20.2875 27.3318C20.3059 27.3303 20.3221 27.3252 20.3355 27.329C20.3748 27.34 20.4137 27.3524 20.4515 27.3681C20.4944 27.3861 20.5343 27.4159 20.5791 27.4264C20.6555 27.4447 20.7213 27.4862 20.7938 27.5113C20.8116 27.5175 20.8291 27.524 20.8446 27.5333C20.9676 27.606 21.0912 27.6777 21.2122 27.7533C21.2414 27.7717 21.2745 27.7921 21.2804 27.8349C21.2819 27.8464 21.3054 27.861 21.3211 27.8647C21.395 27.8826 21.4692 27.8986 21.5439 27.9131C21.658 27.9357 21.7734 27.9204 21.8883 27.9209C21.9326 27.921 21.9795 27.9281 22.0156 27.89C22.0212 27.8842 22.0352 27.883 22.0452 27.8838C22.1399 27.8902 22.22 27.8447 22.3031 27.8119C22.3393 27.7978 22.3441 27.7659 22.313 27.7428C22.2923 27.7269 22.2672 27.714 22.2422 27.7069C22.1844 27.6905 22.1289 27.6704 22.0744 27.6469C22.0486 27.6335 22.0197 27.6201 21.9881 27.6061C21.9782 27.6013 21.9685 27.5962 21.9589 27.5912C21.9513 27.5873 21.9427 27.5848 21.9338 27.583C21.4092 27.3671 20.2992 27.0779 20.286 27.0748C20.2065 27.0304 20.1271 26.9861 20.0489 26.9394C19.9874 26.9032 19.9286 26.8621 19.8672 26.8255C19.7887 26.779 19.7031 26.7418 19.6304 26.6873C19.5347 26.6153 19.4475 26.5315 19.3577 26.4513C19.2911 26.3914 19.226 26.3297 19.1619 26.2674C19.0472 26.1572 18.9358 26.0443 18.8373 25.9195C18.7755 25.8416 18.7184 25.7593 18.6491 25.6884C18.5255 25.5616 18.4434 25.4125 18.3786 25.2513C18.3411 25.1575 18.2939 25.0673 18.2559 24.9738C18.2141 24.8715 18.1774 24.7672 18.1372 24.6636C18.1163 24.6092 18.0932 24.5554 18.0705 24.5014C18.0491 24.449 18.0197 24.3983 18.0071 24.344C17.9677 24.1788 17.9322 24.0125 17.9003 23.8459C17.8641 23.6596 17.8321 23.4728 17.8007 23.2854C17.778 23.1506 17.7632 23.0144 17.7373 22.8797C17.7047 22.7075 17.7016 22.5337 17.6947 22.3599C17.6917 22.2514 17.692 21.176 17.6951 21.0808C17.7113 20.9508 17.7294 20.8209 17.7443 20.6907C17.7489 20.6495 17.7524 20.6086 17.7558 20.5673C17.7788 20.391 17.8449 20.0644 18.0301 19.8466C18.1691 19.7567 18.386 19.5973 18.5901 19.4431C18.6254 19.42 18.6608 19.3969 18.6961 19.3731C18.7691 19.3229 18.8363 19.2638 18.9092 19.212C18.9267 19.1997 18.9402 19.1867 18.9472 19.1701C18.9612 19.1595 18.9744 19.1491 18.987 19.1391C18.997 19.137 19.0054 19.1307 19.0146 19.1228C19.0517 19.0909 19.0902 19.0605 19.1282 19.0291C19.145 19.0152 19.1621 19.0014 19.1781 18.9866C19.2244 18.9457 19.2669 18.9006 19.3116 18.8579C19.696 18.5198 20.11 18.2719 20.3487 18.1419C20.3899 18.1216 20.431 18.1005 20.4717 18.0796C20.4982 18.066 20.524 18.0521 20.5504 18.038C20.5941 18.0148 20.6378 17.9912 20.6828 17.9698C20.771 17.9276 20.8614 17.8894 20.9506 17.8495C20.9954 17.8294 21.0392 17.8066 21.0849 17.7889C21.1647 17.7579 21.2461 17.7293 21.3271 17.7009C21.4584 17.6549 21.5895 17.6082 21.7217 17.565C21.8012 17.5389 21.8831 17.5191 21.9638 17.4961C22.005 17.484 22.0456 17.4708 22.0863 17.4587C22.1198 17.4487 22.1542 17.442 22.1869 17.4298C22.2858 17.3919 22.3849 17.3532 22.483 17.3128C22.5547 17.2831 22.6604 17.1851 22.6518 17.0669ZM17.4999 27.8792C17.4694 27.8725 17.4603 27.8523 17.4562 27.8302C17.4435 27.7683 17.4004 27.7305 17.3532 27.693C17.3237 27.6698 17.2959 27.6383 17.2811 27.6051C17.2342 27.5011 17.1776 27.4033 17.1147 27.3083C17.0281 27.1779 16.9773 27.0322 16.9426 26.8823C16.9105 26.7427 16.8812 26.6007 16.868 26.4583C16.8509 26.273 16.8628 26.0865 16.8808 25.9006C16.8819 25.8934 16.884 25.8861 16.8854 25.8786C16.8899 25.8774 16.8942 25.8766 16.8986 25.8755C16.9043 25.8855 16.9103 25.8955 16.9159 25.9053L16.9162 25.9059C16.9277 25.9251 16.9386 25.9444 16.949 25.9642C16.9776 26.0173 17.0063 26.0699 17.0423 26.1174C17.144 26.2989 17.2847 26.5751 17.3767 26.8595C17.3945 26.9464 17.4118 27.0333 17.4304 27.1202C17.4372 27.1536 17.4441 27.1873 17.4513 27.2212C17.4709 27.3059 17.4845 27.3913 17.4863 27.479C17.4885 27.6021 17.4969 27.7252 17.5028 27.8483C17.503 27.8575 17.501 27.8671 17.4999 27.8792ZM18.9171 26.7279C19.0089 26.8117 19.0933 26.9034 19.1637 27.0052C19.2004 27.0574 19.2237 27.1199 19.2471 27.1802C19.2722 27.2462 19.29 27.315 19.3121 27.3823C19.3172 27.3974 19.3283 27.4105 19.3339 27.4254C19.3434 27.4496 19.3571 27.4744 19.3576 27.4994C19.3592 27.5818 19.3838 27.6582 19.4149 27.7333C19.4237 27.7544 19.4276 27.7775 19.4378 27.8131L19.0742 27.6166C19.0632 27.6069 19.0526 27.5973 19.0403 27.5894C18.942 27.525 18.8886 27.4333 18.8752 27.3122C18.8671 27.2382 18.8854 27.1674 18.8793 27.0951C18.8707 26.9903 18.8658 26.8853 18.8593 26.7804C18.8579 26.7544 18.8568 26.7281 18.8547 26.6899C18.8812 26.7056 18.9018 26.7139 18.9171 26.7279ZM18.4592 26.683C18.46 26.6275 18.4686 26.5719 18.474 26.5153C18.5327 26.5206 18.5502 26.5586 18.5633 26.5961C18.5819 26.6494 18.5922 26.7055 18.6113 26.7585C18.6505 26.8667 18.6545 26.9809 18.6649 27.0927C18.6696 27.1435 18.6375 27.1957 18.6155 27.2452C18.6142 27.2476 18.6082 27.2484 18.5972 27.2531C18.5682 27.228 18.5365 27.2014 18.506 27.1734C18.4812 27.1295 18.4609 27.0614 18.4604 26.9563C18.461 26.8652 18.4575 26.7742 18.4592 26.683ZM17.8501 25.7406C17.9192 25.8174 17.9832 25.8984 18.0493 25.9776C18.052 25.9809 18.0542 25.9844 18.056 25.9881C18.1024 26.071 18.1515 26.1525 18.1938 26.2374C18.2298 26.3096 18.2658 26.384 18.2707 26.4657C18.275 26.5441 18.2727 26.6226 18.2727 26.7013C18.2727 26.7565 18.2775 26.8117 18.2855 26.8665V26.8681C18.2901 26.8952 18.295 26.9226 18.3011 26.9496L18.314 27.0155C18.2973 27.0064 18.2819 26.9951 18.267 26.9837C18.2412 26.964 18.2176 26.9416 18.1915 26.9218C18.1025 26.8542 18.0108 26.7892 17.9236 26.7183C17.8912 26.6922 17.8658 26.6554 17.8442 26.6196C17.8148 26.5708 17.7921 26.5185 17.7671 26.4675C17.742 26.4153 17.7151 26.3637 17.6902 26.3116C17.69 26.3106 17.5097 25.7542 17.5292 25.4105C17.5554 25.4336 17.574 25.4484 17.5904 25.4655C17.6772 25.5569 17.7659 25.6471 17.8501 25.7406Z" fill="white"/>
<path d="M10.3864 16.8417C10.3905 16.8479 10.3943 16.8544 10.3983 16.8605C10.4107 16.8811 10.4258 16.9003 10.4399 16.9196C10.5472 17.1391 10.6602 17.3123 10.769 17.449C10.7976 17.4895 10.8297 17.5272 10.8653 17.562C11.1373 17.8595 11.3606 17.9301 11.3633 17.9307C11.3674 17.9337 11.3714 17.9365 11.3756 17.9395C11.3841 17.9454 11.3915 17.955 11.4007 17.9567C11.4054 17.9576 11.4099 17.9586 11.4143 17.9596C12.5863 18.6115 13.3464 18.4801 13.6325 18.386C13.6389 18.3851 13.6449 18.384 13.6511 18.3832C13.6895 18.3766 13.727 18.355 13.7604 18.3335C13.7948 18.3111 13.7995 18.2835 13.7772 18.2496C13.7278 18.1752 13.6745 18.1033 13.6238 18.0297C13.5988 17.9934 13.5762 17.9551 13.5507 17.919C13.512 17.8645 13.4726 17.8105 13.4313 17.7579C13.308 17.6012 13.2431 17.4242 13.226 17.2277C13.2134 17.0829 13.2035 16.9366 13.1768 16.794C13.1367 16.5755 13.0931 16.3559 12.9697 16.1626C12.9217 16.0873 12.8736 16.0118 12.7975 15.9592C12.7645 15.9364 12.7309 15.9194 12.6885 15.9344C12.6389 15.952 12.6085 15.9922 12.6108 16.0441C12.6184 16.2157 12.6236 16.3876 12.6347 16.5591C12.6362 16.5851 12.6383 16.6111 12.6408 16.6371V16.6381L12.6427 16.6602C12.6427 16.6612 12.6427 16.6619 12.6427 16.6629L12.6848 17.1424C12.6871 17.1759 12.6892 17.209 12.6921 17.2424C12.697 17.3042 12.7035 17.3659 12.71 17.4272V17.4274V17.4277C12.7122 17.4483 12.7145 17.4692 12.7167 17.49C12.7176 17.4996 12.7198 17.5084 12.7234 17.5163C12.733 17.5709 12.7457 17.633 12.7552 17.679C12.6881 17.6329 12.6351 17.5794 12.5898 17.5151C12.4715 17.3473 12.3877 17.1634 12.3076 16.9773C12.2571 16.8599 12.2175 16.738 12.1597 16.6246C12.0889 16.4857 12.013 16.3476 11.9227 16.2208C11.9057 16.1973 11.8867 16.1742 11.8657 16.1531V16.1526C11.8212 16.108 11.7666 16.0721 11.6981 16.0622C11.6701 16.0579 11.6402 16.0584 11.6125 16.0643C11.5827 16.071 11.5593 16.0864 11.5468 16.1114C11.4808 16.1582 11.5666 16.557 11.5666 16.557C11.5714 16.5924 11.5774 16.6274 11.5849 16.6624C11.5981 16.7255 11.6175 16.7875 11.6311 16.8505C11.6738 17.0494 11.7546 17.2352 11.8326 17.4221C11.856 17.4782 11.8711 17.5373 11.8924 17.5941C11.9065 17.632 11.9255 17.6676 11.9416 17.7047C11.9471 17.7165 11.9498 17.7295 11.9575 17.7542C11.9138 17.7374 11.8777 17.7292 11.8475 17.7117C11.7968 17.682 11.7459 17.6502 11.7014 17.6123C11.5116 17.45 11.3511 17.2586 11.181 17.0776C11.135 17.0287 11.0882 16.9803 11.0413 16.9318C11.0017 16.8911 10.9686 16.8456 10.9345 16.8002C10.8887 16.7395 10.8276 16.6877 10.7667 16.6402C10.6848 16.5762 10.5971 16.5203 10.4989 16.4805C10.4351 16.4548 10.3704 16.4583 10.3048 16.4588C10.2936 16.4591 10.2805 16.4654 10.2714 16.4726C10.2398 16.4981 10.2097 16.525 10.1758 16.5542C10.1927 16.5702 10.208 16.5868 10.223 16.6042L10.3864 16.8417Z" fill="white"/>
<path d="M15.6866 23.5861C15.686 23.5799 15.686 23.5734 15.6857 23.567C15.6852 23.5636 15.6851 23.5603 15.6849 23.5568C15.683 23.527 15.6811 23.4978 15.679 23.4684C15.634 23.0254 15.5295 22.3336 15.4546 21.8599C15.4456 21.8167 15.4402 21.7934 15.4402 21.7934C15.4274 21.701 15.4157 21.6084 15.3952 21.5167C15.3732 21.4166 15.3702 21.3125 15.3567 21.2105C15.3566 21.2091 15.3562 21.2082 15.3562 21.2075C15.3196 20.7185 15.3182 20.1473 15.3182 20.1473C15.3589 19.9931 15.3947 19.8377 15.4312 19.6825C15.4492 19.6055 15.4708 19.5288 15.4802 19.4508C15.4942 19.3385 15.5 19.2252 15.5074 19.1121C15.5182 18.9538 15.4985 18.798 15.471 18.6417C15.446 18.4994 15.419 18.3582 15.3702 18.223C15.3195 18.0814 15.2968 17.9332 15.2563 17.7893C15.2361 17.7178 15.2279 17.6423 15.2208 17.568C15.2138 17.4923 15.2344 17.4212 15.2666 17.3511C15.2952 17.2888 15.3119 17.2212 15.3329 17.156C15.3448 17.1196 15.3522 17.0814 15.3667 17.0461C15.4044 16.9517 15.4285 16.8535 15.4465 16.7541C15.4635 16.6592 15.4319 16.5842 15.3483 16.5381C15.2665 16.4928 15.1826 16.4829 15.0897 16.5192C15.0065 16.5515 14.95 16.6003 14.9001 16.6728C14.8406 16.7589 14.7987 16.8533 14.7457 16.942C14.7325 16.9642 14.7249 16.9906 14.7189 17.016C14.676 17.1948 14.6377 17.375 14.591 17.553C14.543 17.7349 14.4803 17.9121 14.3876 18.0782C14.3482 18.1488 14.3048 18.2147 14.2532 18.2762C14.2529 18.2768 14.2527 18.2775 14.2522 18.2779C14.2323 18.3078 13.9179 18.7556 13.0055 18.7634L12.4205 18.6731C12.2728 18.6345 12.1233 18.5991 11.9784 18.5502C11.845 18.505 11.7049 18.4799 11.5768 18.4168C11.5005 18.379 11.4142 18.3609 11.3321 18.3345C11.258 18.3099 11.1847 18.2826 11.1095 18.2622C11.003 18.2339 10.8949 18.2107 10.7876 18.1858C10.7336 18.1735 10.6789 18.1636 10.6249 18.1515C10.4287 18.1088 10.2326 18.0668 10.0365 18.0225C9.86642 17.9845 9.69856 17.9341 9.52444 17.915C9.45541 17.9075 9.38515 17.9044 9.31562 17.9057C9.2423 17.9075 9.1935 17.9658 9.18798 18.0399C9.17952 18.1582 9.28521 18.2564 9.35768 18.2861C9.45602 18.3265 9.55497 18.3654 9.65405 18.4029C9.6863 18.4154 9.72087 18.4219 9.75422 18.4318C9.7953 18.4441 9.83601 18.4576 9.87721 18.4694C9.95752 18.4925 10.0392 18.5122 10.1193 18.5381C10.2513 18.5814 10.3824 18.6282 10.5137 18.674C10.5946 18.7027 10.6758 18.7315 10.756 18.7625C10.8016 18.7799 10.8453 18.8027 10.8899 18.823C10.9792 18.863 11.0697 18.901 11.1579 18.9432C11.2028 18.9646 11.2465 18.9881 11.2903 19.0117H11.2905C11.3164 19.0256 11.3425 19.0397 11.369 19.0529C11.4102 19.0737 11.4508 19.095 11.4918 19.1155C11.7308 19.2453 12.1449 19.4932 12.5291 19.8316C12.5739 19.8741 12.6162 19.9192 12.6623 19.9601C12.6786 19.9746 12.6954 19.9888 12.7126 20.0026L12.7129 20.0027C12.7506 20.0337 12.7891 20.0641 12.8264 20.0962C12.8354 20.1042 12.8441 20.1101 12.8539 20.1127C12.8664 20.1224 12.8795 20.1327 12.8936 20.1436C12.9007 20.1602 12.9141 20.1731 12.9316 20.1856C13.0044 20.2369 13.0715 20.2962 13.1451 20.3466C13.1799 20.3702 13.215 20.3936 13.2508 20.4164C13.4551 20.5707 13.6719 20.7298 13.8105 20.8199C13.9961 21.0376 14.062 21.3644 14.0848 21.5407C14.0883 21.5818 14.0917 21.6229 14.0967 21.6643C14.1112 21.7944 14.1295 21.9239 14.1456 22.054C14.1485 22.1495 14.149 22.2513 14.1463 22.3598C14.1391 22.5336 14.1362 22.7074 14.1033 22.8796C14.0778 23.0143 14.063 23.1506 14.0401 23.2854C14.0086 23.4727 13.9768 23.6597 13.9405 23.8459C13.9087 24.0126 13.8731 24.1788 13.8337 24.344C13.821 24.3984 13.7916 24.4491 13.7699 24.5014C13.7476 24.5553 13.7243 24.6092 13.7034 24.6636C13.6634 24.767 13.6271 24.8713 13.5852 24.9738C13.5467 25.0674 13.4997 25.1575 13.4622 25.2512C13.3976 25.4125 13.3155 25.5615 13.1916 25.6884C13.1223 25.7592 13.0649 25.8415 13.0035 25.9195C12.9051 26.0443 12.7934 26.1572 12.6789 26.2673C12.6146 26.3295 12.5497 26.3914 12.4831 26.4513C12.3937 26.5315 12.3065 26.6153 12.2101 26.6872C12.1374 26.7418 12.052 26.779 11.9736 26.8254C11.9122 26.8621 11.8534 26.9031 11.7919 26.9394C11.7112 26.9874 11.6293 27.0334 11.547 27.0789C11.4076 27.1156 10.4108 27.3799 9.91927 27.5818C9.90627 27.5828 9.89303 27.5854 9.88211 27.5913C9.79138 27.639 9.69782 27.6793 9.59862 27.707C9.57361 27.7141 9.5486 27.727 9.52775 27.7429C9.49685 27.766 9.50188 27.7978 9.53781 27.812C9.62106 27.8448 9.70089 27.8903 9.79555 27.8839C9.80548 27.8832 9.81958 27.8844 9.82534 27.89C9.86102 27.9282 9.90823 27.9211 9.95225 27.9209C10.0674 27.9205 10.1828 27.9358 10.2972 27.9132C10.3716 27.8989 10.446 27.8828 10.5196 27.8648C10.5353 27.8611 10.5587 27.8465 10.5606 27.835C10.5661 27.7922 10.5994 27.7719 10.6285 27.7534C10.7494 27.6777 10.8732 27.6061 10.9963 27.5334C11.0119 27.5241 11.0292 27.5176 11.0469 27.5114C11.1196 27.4863 11.1853 27.4448 11.2619 27.4265C11.3064 27.416 11.3462 27.386 11.3896 27.3682C11.4271 27.3525 11.4665 27.3401 11.5056 27.3291C11.5188 27.3253 11.5349 27.3304 11.5535 27.3318C11.5502 27.3479 11.5444 27.3609 11.5371 27.3719C11.4333 27.4333 10.7436 27.8413 10.6482 27.9388C10.6482 27.9388 11.0249 27.9891 11.1875 27.9672C11.1983 27.9692 11.218 27.9608 11.2271 27.9521C11.2928 27.888 11.3571 27.8227 11.4265 27.7529L11.6717 27.5277H11.6715C11.7159 27.4938 11.7584 27.4571 11.8029 27.423C11.8184 27.4114 11.8382 27.4058 11.855 27.3958C11.9502 27.3397 12.0457 27.2841 12.1393 27.2261C12.1629 27.2112 12.1819 27.1882 12.2009 27.1671C12.2115 27.1554 12.2186 27.1403 12.2272 27.1265C12.2326 27.1309 12.2378 27.1349 12.2435 27.1386C12.2274 27.1853 12.2153 27.234 12.1948 27.2784C12.1791 27.3125 12.1628 27.3463 12.1462 27.38C12.0405 27.5706 11.8317 27.9343 11.7443 27.9961C11.7443 27.9961 12.2543 28.0939 12.3342 28.0269C12.3383 28.0282 12.3423 28.0296 12.3437 28.028C12.3822 27.9919 12.4294 28.0089 12.4722 28.0095C12.5298 28.0101 12.5862 28.004 12.6422 27.9957C12.6449 27.9963 12.6463 27.9963 12.6463 27.9963C12.6746 27.9934 12.7011 27.9883 12.7266 27.9816C12.7313 27.9812 12.7362 27.9802 12.7411 27.9795C12.766 27.9751 12.788 27.9664 12.8078 27.9546C12.9919 27.8771 13.0801 27.7281 13.0801 27.7281L13.0882 27.7101C13.094 27.7035 13.0991 27.6973 13.1043 27.6919C13.1646 27.6265 13.2236 27.5597 13.2903 27.4848C13.2903 27.4935 13.2903 27.5005 13.2903 27.5067C13.2592 27.6266 13.2254 27.8036 13.2191 27.8355C13.2086 27.8396 13.1983 27.8468 13.2044 27.8686C13.1985 27.8821 13.1929 27.8964 13.1952 27.9025C13.1992 27.9145 13.2404 27.9269 13.2404 27.9269L13.4135 27.8902C13.5155 27.3588 14.0203 26.9196 14.135 26.8258C14.1388 26.8234 14.1423 26.8211 14.1461 26.8181C14.1209 26.9009 14.0986 26.98 14.0728 27.0578C14.029 27.1891 13.9962 27.3217 13.9938 27.4612C13.9922 27.5578 13.9877 27.6548 13.9849 27.7521C13.9842 27.7765 13.9813 27.8016 13.9869 27.8245C13.9963 27.8636 13.998 27.8991 13.961 27.9275C13.9853 27.9547 14.0075 27.9747 14.0439 27.9772C14.1708 27.9859 14.2976 27.9987 14.4247 28.0043C14.4621 28.0057 14.4999 27.9824 14.5383 27.9802C14.6215 27.9754 14.6528 27.9142 14.6925 27.8577C14.7325 27.8012 14.7764 27.7476 14.8204 27.6945C14.9165 27.5795 14.9807 27.4464 15.0444 27.3127C15.067 27.2655 15.086 27.2167 15.1066 27.1688C15.111 27.1692 15.1153 27.1694 15.1197 27.1696C15.1189 27.1875 15.119 27.2051 15.1169 27.2227C15.1115 27.2688 15.1014 27.3148 15.0996 27.3613C15.0935 27.5101 15.0649 27.6545 15.0165 27.7951C15.0008 27.8408 14.9792 27.8851 14.9574 27.9283C14.9357 27.9718 14.9135 28.0144 14.9198 28.0735C14.9396 28.0784 14.9623 28.0892 14.9846 28.0888C15.0338 28.0882 15.0831 28.0827 15.1321 28.0774C15.1643 28.0737 15.197 28.0673 15.2287 28.0606C15.265 28.0529 15.2976 28.0526 15.3135 28.0916C15.3493 28.0834 15.3569 28.0634 15.3576 28.0326C15.3607 27.9235 15.365 27.8144 15.3723 27.7054C15.3808 27.5743 15.3849 27.4417 15.4058 27.3124C15.4319 27.1525 15.4123 26.9938 15.4147 26.8346C15.4172 26.6783 15.4244 26.5243 15.4644 26.3716C15.483 26.3004 15.4738 26.2227 15.4814 26.1482C15.4904 26.0635 15.5039 25.9797 15.5156 25.8955C15.5285 25.8015 15.541 25.7073 15.5539 25.6132C15.5676 25.5133 15.5847 25.4137 15.5952 25.3135C15.6071 25.2044 15.6175 25.0948 15.6283 24.9857C15.6659 24.7804 15.6872 24.5615 15.696 24.338C15.6985 24.3145 15.699 24.2909 15.6985 24.2675C15.7044 24.0407 15.6992 23.8105 15.6866 23.5861ZM13.5381 26.9496C13.5443 26.9226 13.5495 26.8952 13.5538 26.868L13.5539 26.8665H13.5538C13.5622 26.8117 13.5665 26.7566 13.5665 26.7012C13.5665 26.6225 13.5641 26.5441 13.5687 26.4656C13.5733 26.3839 13.6094 26.3095 13.6457 26.2374C13.6877 26.1524 13.737 26.0709 13.7832 25.9881C13.7853 25.9843 13.7872 25.9808 13.7899 25.9776C13.856 25.8985 13.9203 25.8175 13.9893 25.7405C14.0737 25.6471 14.162 25.5567 14.249 25.4655C14.2656 25.4483 14.2843 25.4336 14.3101 25.4104C14.3128 25.4363 14.3162 25.4512 14.3156 25.4662C14.314 25.5168 14.3109 25.5673 14.3085 25.6181C14.3081 25.6312 14.3065 25.644 14.3071 25.6564C14.2781 25.895 14.2066 26.1498 14.1742 26.2581C14.1425 26.3287 14.1059 26.3973 14.0723 26.4673C14.0473 26.5184 14.0245 26.5705 13.9952 26.6194C13.9735 26.6552 13.9477 26.6919 13.9156 26.7181C13.8287 26.7891 13.737 26.854 13.6476 26.9216C13.6216 26.9414 13.598 26.9639 13.5724 26.9835C13.5574 26.995 13.5418 27.0062 13.5252 27.0154L13.5381 26.9496ZM13.1745 27.0928C13.1847 26.981 13.1889 26.8668 13.228 26.7586C13.247 26.7056 13.2575 26.6495 13.2759 26.5962C13.2892 26.5586 13.3066 26.5207 13.3656 26.5154C13.3707 26.572 13.3792 26.6276 13.3805 26.6831C13.3822 26.7743 13.3785 26.8653 13.3792 26.9564C13.3792 26.9852 13.3778 27.0143 13.3821 27.043C13.3757 27.0901 13.3646 27.1267 13.3515 27.1553C13.3494 27.1583 13.3469 27.1612 13.3442 27.1637C13.3107 27.1955 13.2748 27.2252 13.2423 27.2533C13.2313 27.2486 13.2254 27.2478 13.2242 27.2454C13.202 27.1957 13.1701 27.1436 13.1745 27.0928ZM12.5055 27.4255C12.5114 27.4105 12.5223 27.3975 12.5273 27.3824C12.5493 27.3152 12.5671 27.2463 12.5924 27.1803C12.6159 27.1199 12.6394 27.0575 12.6758 27.0053C12.7465 26.9034 12.8306 26.8117 12.9227 26.728C12.9374 26.714 12.9583 26.7057 12.9846 26.6901C12.9825 26.7283 12.9814 26.7546 12.9799 26.7806C12.9735 26.8855 12.9685 26.9905 12.9602 27.0953C12.9542 27.1676 12.9722 27.2383 12.9637 27.3124C12.9509 27.4335 12.8972 27.5252 12.7991 27.5896C12.7825 27.6005 12.7675 27.6143 12.753 27.6281L12.4164 27.81C12.4117 27.8112 12.4072 27.8121 12.4017 27.8133C12.4116 27.7777 12.4156 27.7546 12.4242 27.7335C12.4555 27.6584 12.48 27.582 12.4817 27.4996C12.4825 27.4746 12.4962 27.4496 12.5055 27.4255ZM14.9715 26.4584C14.9585 26.6008 14.9292 26.7427 14.897 26.8824C14.8623 27.0323 14.8116 27.1781 14.7248 27.3084C14.662 27.4034 14.6052 27.5012 14.5585 27.6052C14.5433 27.6384 14.5159 27.6699 14.4864 27.6931C14.4392 27.7306 14.3958 27.7683 14.3833 27.8303C14.3787 27.8524 14.3702 27.8725 14.3393 27.8793C14.3382 27.8672 14.3362 27.8576 14.3368 27.8484C14.3423 27.7253 14.351 27.6022 14.3534 27.4791C14.3542 27.4367 14.358 27.3947 14.3635 27.3535L14.3803 27.3024C14.3817 27.2763 14.3844 27.2501 14.3877 27.2235C14.3877 27.2226 14.3879 27.2221 14.3881 27.2214C14.3958 27.1876 14.4023 27.1538 14.4094 27.1204C14.4219 27.0628 14.4333 27.0055 14.4448 26.9479C14.5922 26.428 14.9325 25.9056 14.9325 25.9056L14.9301 25.8953C14.9336 25.8886 14.9375 25.8825 14.9409 25.8758C14.9454 25.8768 14.9498 25.8777 14.9543 25.879C14.9559 25.8864 14.9579 25.8937 14.9587 25.9009C14.9767 26.0865 14.9884 26.2731 14.9715 26.4584Z" fill="white"/>
<path d="M15.4571 5.02539C16.2185 5.74242 16.6495 6.73439 16.6506 7.77161C16.652 8.71023 16.3011 9.61253 15.6715 10.3081C15.6727 10.2142 15.6731 10.1199 15.6731 10.0252C15.6729 8.96815 15.5954 7.95748 15.4587 7.22705C15.3222 7.95868 15.2448 8.97081 15.2455 10.0281C15.2455 10.1189 15.2459 10.2096 15.247 10.3005C14.6197 9.60758 14.2689 8.70939 14.2676 7.77451C14.2665 6.7368 14.6963 5.74339 15.457 5.02539H15.4571Z" fill="white"/>
<path d="M22.6526 8.32703C22.6764 9.40288 22.2536 10.4416 21.482 11.2031C20.7834 11.8923 19.8536 12.3006 18.8737 12.3564C18.9447 12.2885 19.0153 12.2196 19.0857 12.1499C19.873 11.3746 20.5692 10.5776 21.0137 9.94309C20.3679 10.3812 19.5574 11.0681 18.7698 11.843C18.7019 11.9103 18.6349 11.9771 18.5684 12.0445C18.6245 11.0834 19.036 10.1713 19.732 9.48483C20.5047 8.72278 21.5594 8.30458 22.6526 8.32703Z" fill="white"/>
<path d="M8.34666 8.41688C8.32311 9.46992 8.73707 10.487 9.49288 11.2324C10.1768 11.9075 11.087 12.3071 12.0469 12.3618C11.9774 12.2948 11.9083 12.2278 11.8394 12.1594C11.0684 11.4001 10.3865 10.6196 9.95135 9.99855C10.5837 10.4279 11.3771 11.0999 12.1483 11.8594C12.215 11.925 12.2807 11.9904 12.3459 12.0565C12.2909 11.1154 11.8881 10.2224 11.2065 9.55006C10.4502 8.80418 9.4171 8.39455 8.34666 8.41688Z" fill="white"/>
<path d="M26.4549 15.0116C25.8434 15.6404 24.9981 15.9965 24.1139 15.9975C23.3138 15.9986 22.5444 15.7086 21.9512 15.1887C22.0312 15.1896 22.1117 15.19 22.1924 15.19C23.0932 15.19 23.9552 15.1258 24.5781 15.0128C23.9538 14.9 23.0911 14.8364 22.1899 14.8367C22.1125 14.8367 22.0348 14.8373 21.9577 14.8382C22.5487 14.3204 23.3138 14.0303 24.1112 14.0293C24.9956 14.0285 25.8423 14.3833 26.4547 15.0114L26.4549 15.0116Z" fill="white"/>
<path d="M4.63281 15.1357C5.33467 15.8578 6.30556 16.2665 7.32071 16.2675C8.23923 16.2687 9.12245 15.936 9.80285 15.3392C9.71113 15.3404 9.61905 15.3412 9.52635 15.3412C8.49183 15.3407 7.50255 15.267 6.78757 15.1379C7.50402 15.008 8.49428 14.9353 9.52856 14.9353C9.61831 14.9353 9.70697 14.9363 9.7955 14.9372C9.11754 14.3425 8.23862 14.0099 7.32353 14.0088C6.30789 14.0076 5.3359 14.414 4.63281 15.1357Z" fill="white"/>
<path d="M10.9312 5.30566C11.6585 5.531 12.2604 6.03875 12.5985 6.71124C12.9039 7.32013 12.9697 8.0158 12.7879 8.6656C12.758 8.60429 12.7278 8.54262 12.6968 8.48095C12.3531 7.79542 11.9743 7.16432 11.6481 6.73333C11.7975 7.2511 12.0766 7.9318 12.4204 8.61769C12.45 8.67683 12.4803 8.73585 12.5101 8.7939C11.8781 8.54214 11.3582 8.06975 11.0536 7.46388C10.7154 6.79102 10.671 6.01135 10.9312 5.30615V5.30566Z" fill="white"/>
<path d="M19.8536 5.30566C19.1267 5.531 18.5247 6.03875 18.1866 6.71124C17.8808 7.32013 17.815 8.0158 17.9975 8.6656C18.0275 8.60429 18.0575 8.54262 18.0887 8.48095C18.4322 7.79542 18.811 7.16432 19.137 6.73333C18.9881 7.2511 18.709 7.9318 18.365 8.61769C18.3354 8.67683 18.3052 8.73585 18.2754 8.7939C18.9074 8.54214 19.4269 8.06975 19.732 7.46388C20.0703 6.79102 20.1139 6.01135 19.8539 5.30615V5.30566H19.8536Z" fill="white"/>
<path d="M5.15625 10.9997C5.87135 10.7404 6.66309 10.7797 7.34877 11.1087C7.96848 11.406 8.45282 11.9173 8.71203 12.5407C8.65048 12.5105 8.58831 12.4803 8.5259 12.4498C7.82759 12.1143 7.13591 11.8425 6.61025 11.6979C7.0502 12.0176 7.69357 12.3885 8.39188 12.7247C8.45147 12.7535 8.51216 12.7817 8.572 12.8097C7.91551 12.991 7.21083 12.9302 6.5932 12.6338C5.90777 12.305 5.38849 11.7148 5.15625 11V10.9997Z" fill="white"/>
<path d="M25.8704 10.9997C25.1548 10.7404 24.3627 10.7797 23.6777 11.1087C23.0579 11.406 22.5737 11.9173 22.3145 12.5407C22.3759 12.5105 22.4383 12.4803 22.5003 12.4498C23.1984 12.1143 23.8902 11.8425 24.4162 11.6979C23.9763 12.0176 23.3325 12.3885 22.6347 12.7247C22.5745 12.7535 22.514 12.7817 22.4542 12.8097C23.111 12.991 23.815 12.9302 24.4328 12.6338C25.1185 12.305 25.6376 11.7148 25.8702 11V10.9997H25.8704Z" fill="white"/>
<path d="M30.3436 12.1236C29.4619 11.6071 28.4043 11.4664 27.4152 11.7348C26.5202 11.9782 25.7509 12.5371 25.252 13.299C25.341 13.2735 25.4307 13.2487 25.5211 13.2241C26.529 12.9494 27.5125 12.7581 28.2446 12.6942C27.5824 13.0106 26.6373 13.3447 25.6297 13.6196C25.5428 13.6433 25.456 13.6664 25.3699 13.6887C26.1932 14.0881 27.1408 14.179 28.0324 13.9365C29.0221 13.6675 29.8568 13.013 30.3438 12.1232V12.1236H30.3436Z" fill="white"/>
<path d="M27.9977 6.8249C26.9831 6.67392 25.9496 6.93666 25.1361 7.55255C24.4006 8.10979 23.9026 8.91263 23.7324 9.80454C23.805 9.7477 23.8783 9.69146 23.9528 9.63485C24.7808 9.00665 25.6186 8.46402 26.272 8.13357C25.78 8.67197 25.0333 9.33264 24.2052 9.96084C24.1335 10.015 24.062 10.0687 23.9908 10.1215C24.9062 10.1857 25.8185 9.91775 26.5514 9.36281C27.3652 8.74656 27.8874 7.8299 27.9977 6.82527V6.8249Z" fill="white"/>
<path d="M23.618 2.677C22.6241 2.92659 21.7761 3.56529 21.2711 4.44429C20.8139 5.23953 20.6731 6.16994 20.8695 7.0563C20.9138 6.97628 20.9592 6.89614 21.005 6.8154C21.5192 5.91927 22.0756 5.09844 22.5462 4.54314C22.3067 5.22806 21.8805 6.12275 21.3666 7.01913C21.3224 7.09637 21.2781 7.17313 21.2326 7.24929C22.1014 6.95746 22.8353 6.36088 23.2906 5.56805C23.7958 4.68833 23.9136 3.64422 23.6179 2.67676V2.677H23.618Z" fill="white"/>
<path d="M18.2728 0.595209C17.4431 1.18889 16.895 2.0901 16.7553 3.091C16.6299 3.99618 16.8484 4.91224 17.3635 5.66463C17.3745 5.57387 17.3859 5.48287 17.399 5.39162C17.5402 4.3719 17.7494 3.40624 17.9779 2.7189C18.0125 3.44281 17.9521 4.42899 17.8113 5.44907C17.7987 5.53706 17.7863 5.6248 17.7733 5.71182C18.4708 5.12417 18.9288 4.30274 19.0545 3.40081C19.1934 2.39955 18.911 1.38598 18.2728 0.594727V0.595209Z" fill="white"/>
<path d="M11.9157 0.732422C11.4032 1.60744 11.2754 2.65021 11.5621 3.62009C11.8214 4.49777 12.4001 5.24642 13.1816 5.72762C13.1541 5.63987 13.1275 5.55201 13.1012 5.46354C12.8081 4.47568 12.5998 3.51026 12.5246 2.79058C12.8556 3.43773 13.2082 4.36319 13.5016 5.35094C13.5269 5.43651 13.5514 5.52171 13.5755 5.60656C13.9696 4.79008 14.0482 3.85641 13.79 2.98224C13.503 2.01236 12.8259 1.19962 11.9156 0.732784V0.732422H11.9157Z" fill="white"/>
<path d="M6.67829 3.03747C6.52992 4.03668 6.80201 5.05254 7.43189 5.84995C8.00194 6.57145 8.8198 7.05735 9.72643 7.22077C9.66831 7.14944 9.61044 7.07727 9.5533 7.00473C8.91054 6.19248 8.35533 5.37093 8.01604 4.72909C8.56574 5.21077 9.24062 5.94265 9.88326 6.75454C9.93844 6.82454 9.99325 6.8949 10.0473 6.96503C10.1079 6.06346 9.83152 5.16696 9.26331 4.44776C8.6333 3.65047 7.69945 3.14078 6.67829 3.03711V3.03747Z" fill="white"/>
<path d="M2.48828 7.36506C2.74688 8.34266 3.3997 9.1735 4.29529 9.66665C5.10592 10.1125 6.05191 10.246 6.95168 10.049C6.86965 10.0054 6.78761 9.96126 6.70595 9.9166C5.7927 9.41549 4.95645 8.87117 4.38971 8.41061C5.08691 8.64318 5.99808 9.05849 6.91133 9.55984C6.99018 9.60305 7.06792 9.64674 7.14578 9.69055C6.84451 8.83702 6.23498 8.11769 5.42766 7.67282C4.53182 7.17992 3.46971 7.06864 2.48853 7.36506H2.48828Z" fill="white"/>
<path d="M0.378906 12.7483C0.992484 13.558 1.91481 14.0861 2.93303 14.2109C3.85474 14.3233 4.78222 14.0971 5.54024 13.5812C5.44779 13.571 5.35521 13.5601 5.26214 13.5492C4.22419 13.4229 3.24153 13.2291 2.53991 13.0121C3.27488 12.9692 4.27765 13.0163 5.3156 13.1424C5.40524 13.1534 5.49438 13.165 5.58303 13.1763C4.9773 12.4975 4.13737 12.0568 3.21971 11.9443C2.201 11.8197 1.17469 12.1102 0.378906 12.7483Z" fill="white"/>
<path d="M1.21094 18.3485C1.97031 18.7936 2.88148 18.9141 3.73354 18.6828C4.50419 18.4737 5.1667 17.9921 5.59684 17.3359C5.51996 17.3577 5.44234 17.3793 5.36497 17.4007C4.49672 17.6368 3.6498 17.8018 3.01893 17.8569C3.58971 17.5842 4.40353 17.2959 5.27129 17.0596C5.34633 17.0391 5.42088 17.0196 5.49556 16.9999C4.78622 16.6563 3.97007 16.5782 3.202 16.7866C2.34968 17.0182 1.63041 17.5823 1.21094 18.3485Z" fill="white"/>
<path d="M29.2715 17.6496C28.799 17.0264 28.0893 16.6197 27.3055 16.5238C26.596 16.4369 25.8817 16.6114 25.2987 17.0085C25.3696 17.0161 25.4406 17.0244 25.5123 17.0331C26.3113 17.1304 27.0679 17.2798 27.6079 17.4467C27.042 17.4794 26.2702 17.4435 25.4714 17.3462C25.4021 17.3381 25.334 17.3292 25.2656 17.3201C25.7314 17.8428 26.3783 18.182 27.0849 18.2684C27.869 18.3646 28.6591 18.1412 29.2715 17.6496Z" fill="white"/>
<path d="M30.0083 9.19163C29.4271 9.0223 28.8005 9.09375 28.2745 9.38896C27.7981 9.65629 27.4407 10.0863 27.2676 10.5937C27.3148 10.5667 27.3625 10.5395 27.4106 10.5121C27.9468 10.2109 28.4814 9.96044 28.8912 9.81898C28.5586 10.0951 28.0677 10.4217 27.5307 10.7233C27.4844 10.7494 27.4385 10.7752 27.3924 10.8003C27.9227 10.911 28.4783 10.8268 28.9531 10.5604C29.4801 10.2652 29.8609 9.77083 30.0083 9.19163Z" fill="white"/>
<path d="M26.2388 4.27734C25.6336 4.30305 25.065 4.57171 24.6649 5.01948C24.3029 5.42524 24.1073 5.94639 24.1114 6.48202C24.1473 6.44111 24.1831 6.39971 24.2198 6.35892C24.6269 5.90198 25.0498 5.49404 25.3907 5.22888C25.1674 5.59638 24.8113 6.06274 24.404 6.5198C24.3689 6.55939 24.3333 6.59849 24.298 6.63699C24.8362 6.57133 25.3343 6.31402 25.6946 5.91006C26.0947 5.46133 26.2912 4.87211 26.2388 4.27734Z" fill="white"/>
<path d="M21.2933 1.12305C20.7231 1.32629 20.2624 1.74944 20.0169 2.29472C19.7946 2.78823 19.7664 3.34317 19.9333 3.85298C19.9549 3.80313 19.977 3.75353 19.9992 3.7038C20.2489 3.14801 20.5279 2.63375 20.7725 2.2806C20.6714 2.69687 20.4733 3.2465 20.2233 3.80301C20.2022 3.85117 20.1799 3.89848 20.1581 3.94603C20.6517 3.7248 21.0486 3.33267 21.2696 2.84122C21.5156 2.29569 21.5239 1.67485 21.2933 1.12305Z" fill="white"/>
<path d="M15.1349 0C14.7303 0.444146 14.5273 1.03167 14.5727 1.62644C14.6142 2.16449 14.8559 2.66681 15.248 3.03854C15.2433 2.98471 15.2388 2.93076 15.2342 2.87621C15.1872 2.26997 15.1862 1.68715 15.2321 1.26256C15.3429 1.67617 15.4324 2.25332 15.4797 2.85919C15.4837 2.91157 15.4873 2.96371 15.4912 3.01524C15.8197 2.59101 15.9808 2.06093 15.9395 1.5247C15.894 0.929448 15.6033 0.378852 15.1349 0Z" fill="white"/>
<path d="M9.13516 1.29395C8.90292 1.84514 8.90807 2.4655 9.15134 3.01175C9.37107 3.50647 9.76811 3.90125 10.2627 4.12453C10.2403 4.07517 10.2175 4.02568 10.1957 3.9762C9.94725 3.41945 9.7507 2.86958 9.65113 2.45355C9.89502 2.80802 10.1731 3.3235 10.4214 3.88013C10.4426 3.92792 10.4636 3.97632 10.4844 4.02375C10.6521 3.51636 10.6259 2.96372 10.4069 2.47129C10.1642 1.92432 9.70435 1.499 9.13516 1.29395Z" fill="white"/>
<path d="M4.08203 4.81287C4.15511 5.40486 4.47036 5.94182 4.95543 6.29979C5.39379 6.62397 5.93699 6.77556 6.47957 6.73018C6.43494 6.69831 6.39104 6.66621 6.34616 6.63338C5.85226 6.26877 5.40593 5.88533 5.11128 5.57238C5.50035 5.76259 6.00075 6.07651 6.49477 6.44027C6.53793 6.47214 6.57975 6.50364 6.62193 6.53514C6.51439 6.01206 6.21484 5.54341 5.77771 5.22068C5.293 4.86271 4.68053 4.71547 4.08203 4.81226V4.81287Z" fill="white"/>
<path d="M0.878906 9.76312C1.09533 10.3202 1.53295 10.7667 2.09122 10.9988C2.59604 11.2089 3.16045 11.2275 3.67581 11.0545C3.6248 11.034 3.57391 11.0131 3.5229 10.9922C2.95384 10.7561 2.42695 10.4899 2.06413 10.2558C2.48887 10.348 3.05058 10.5333 3.61989 10.7698C3.66906 10.79 3.71787 10.8105 3.7663 10.8314C3.53308 10.3496 3.12808 9.96601 2.62485 9.75649C2.06646 9.52415 1.43583 9.52657 0.879029 9.76336V9.76312H0.878906Z" fill="white"/>
<path d="M0.00024524 15.81C0.428916 16.2319 1.01405 16.4628 1.61978 16.4499C2.16788 16.4384 2.69072 16.2279 3.08885 15.8628C3.03404 15.8648 2.97887 15.8666 2.92332 15.8679C2.30594 15.8815 1.71456 15.8505 1.28626 15.7827C1.71186 15.6959 2.30177 15.6393 2.91927 15.6257C2.97298 15.6247 3.02546 15.6236 3.07819 15.6233C2.6657 15.2771 2.13636 15.0902 1.59059 15.101C0.98425 15.1143 0.409787 15.3702 0 15.8097L0.00024524 15.81Z" fill="white"/>
<path d="M31.0432 15.3592C30.6259 14.9264 30.0473 14.6802 29.4416 14.6768C28.8927 14.6739 28.3651 14.8703 27.957 15.225C28.0117 15.2247 28.0668 15.2247 28.1226 15.2245C28.7402 15.2271 29.3301 15.2736 29.7569 15.3529C29.3294 15.428 28.7374 15.4693 28.12 15.4664C28.0665 15.4666 28.0132 15.4655 27.9606 15.465C28.3641 15.8218 28.8877 16.0225 29.434 16.0255C30.0407 16.0288 30.6221 15.788 31.0432 15.3592Z" fill="white"/>
<path d="M20.2851 13.293C19.7497 13.0989 19.157 13.1283 18.6437 13.3745C18.1799 13.5973 17.8175 13.98 17.623 14.4465C17.6692 14.4238 17.7155 14.4011 17.7627 14.3785C18.2849 14.1272 18.803 13.9239 19.1968 13.8158C18.8672 14.055 18.3857 14.3328 17.8633 14.584C17.8179 14.6053 17.7729 14.6269 17.7276 14.6478C18.2191 14.7833 18.747 14.7377 19.2093 14.516C19.7223 14.2698 20.1108 13.8278 20.2851 13.293Z" fill="white"/>
<path d="M10.4926 13.456C10.7319 13.966 11.1721 14.3577 11.7116 14.5406C12.1998 14.7066 12.7313 14.6876 13.2037 14.4933C13.1545 14.4769 13.1053 14.4609 13.0559 14.4444C12.5059 14.2583 11.994 14.0416 11.6376 13.8442C12.0424 13.9043 12.5824 14.0429 13.1326 14.2291C13.1797 14.2452 13.2267 14.2615 13.2741 14.2778C13.0237 13.8397 12.618 13.5049 12.1313 13.34C11.5917 13.1569 10.9996 13.1985 10.4922 13.4565L10.4926 13.456Z" fill="white"/>
<path d="M13.3125 10.5859C13.1153 11.1128 13.1454 11.6961 13.3954 12.201C13.6215 12.6579 14.0107 13.0147 14.4844 13.2059C14.4616 13.1602 14.4384 13.1149 14.4153 13.0689C14.16 12.5547 13.9539 12.0447 13.8437 11.657C14.0867 11.9811 14.3689 12.4557 14.6242 12.9701C14.6462 13.0141 14.6677 13.0588 14.6891 13.1028C14.8271 12.619 14.7809 12.0999 14.5557 11.6446C14.3053 11.1393 13.8564 10.7568 13.313 10.5859H13.3125Z" fill="white"/>
<path d="M17.3688 10.5186C16.8506 10.7535 16.4527 11.1874 16.2667 11.7181C16.0984 12.1987 16.117 12.7215 16.315 13.1864C16.3314 13.1382 16.3479 13.09 16.3646 13.041C16.5537 12.5 16.7741 11.9957 16.9743 11.6451C16.9136 12.0434 16.7722 12.5751 16.5832 13.1164C16.567 13.1635 16.5503 13.2095 16.5339 13.256C16.9786 13.0094 17.319 12.6101 17.4862 12.1314C17.6726 11.6002 17.6303 11.0177 17.3688 10.5186Z" fill="white"/>
</svg>
