<svg width="45" height="48" viewBox="0 0 45 48" fill="none" xmlns="http://www.w3.org/2000/svg">
<path d="M1.10099 46.7282C1.03372 46.6609 1 46.5779 1 46.4794V41.684C1 41.5857 1.03355 41.5013 1.10099 41.4313C1.16793 41.3614 1.25076 41.3265 1.349 41.3265C1.44706 41.3265 1.53119 41.3614 1.60106 41.4313C1.67076 41.5013 1.70561 41.5857 1.70561 41.684V46.4794C1.70561 46.5779 1.6706 46.6609 1.60106 46.7282C1.53119 46.7953 1.44706 46.8291 1.349 46.8291C1.25076 46.8291 1.16809 46.7953 1.10099 46.7282Z" fill="#046AAF" stroke="#046AAF" stroke-width="0.75" stroke-miterlimit="10"/>
<path d="M3.0704 46.4948C3.00848 46.4688 2.95677 46.4261 2.91544 46.3666C2.87394 46.3069 2.85352 46.2436 2.85352 46.1761C2.85352 46.088 2.88302 46.0117 2.94267 45.9468C3.002 45.882 3.07834 45.8496 3.17139 45.8496C3.22293 45.8496 3.27221 45.86 3.31873 45.8807C3.79417 46.0932 4.30331 46.1994 4.84585 46.1994C5.75019 46.1994 6.2026 45.9016 6.2026 45.3055C6.2026 45.15 6.14441 45.0205 6.02819 44.9168C5.9118 44.8133 5.76835 44.7317 5.59798 44.6721C5.42729 44.6124 5.18447 44.5412 4.86919 44.4582C4.4505 44.3495 4.11188 44.2445 3.85349 44.1434C3.59511 44.0423 3.37287 43.8909 3.18695 43.6887C3.00086 43.4867 2.90782 43.2173 2.90782 42.8805C2.90782 42.5851 2.98546 42.3171 3.14043 42.0761C3.29539 41.8353 3.52411 41.6437 3.82658 41.501C4.1289 41.3586 4.49183 41.2871 4.91588 41.2871C5.48435 41.2871 5.99836 41.3726 6.45856 41.5437C6.60331 41.5956 6.6756 41.6991 6.6756 41.8546C6.6756 41.9375 6.64707 42.0127 6.59034 42.0798C6.53344 42.1473 6.45856 42.1809 6.36551 42.1809C6.33455 42.1809 6.29322 42.1705 6.24151 42.1497C5.83837 42.0098 5.42227 41.9398 4.9932 41.9398C4.58487 41.9398 4.2529 42.0176 3.99711 42.1731C3.74116 42.3285 3.61326 42.5463 3.61326 42.8259C3.61326 43.0125 3.67405 43.164 3.79546 43.2806C3.91687 43.3972 4.06941 43.4878 4.2529 43.5527C4.43623 43.6175 4.6857 43.6859 5.00098 43.7586C5.4093 43.8571 5.73884 43.9556 5.98945 44.0539C6.24005 44.1525 6.4545 44.3053 6.63297 44.5125C6.81128 44.7198 6.90043 44.9997 6.90043 45.352C6.90043 45.6423 6.8176 45.9026 6.65242 46.1331C6.48692 46.3637 6.25431 46.5437 5.9546 46.6731C5.65488 46.8026 5.30848 46.8674 4.91588 46.8674C4.25906 46.8679 3.64406 46.7434 3.0704 46.4948Z" fill="#046AAF" stroke="#046AAF" stroke-width="0.75" stroke-miterlimit="10"/>
<path d="M8.0852 46.6889C8.01793 46.6216 7.98438 46.5386 7.98438 46.4401V41.7224C7.98438 41.6239 8.01793 41.5397 8.0852 41.4697C8.15231 41.3998 8.23498 41.3649 8.33321 41.3649H11.4419C11.535 41.3649 11.6137 41.3974 11.6784 41.462C11.7429 41.5269 11.7753 41.6059 11.7753 41.699C11.7753 41.7923 11.7429 41.8701 11.6784 41.9322C11.6137 41.9944 11.535 42.0255 11.4419 42.0255H8.68982V43.7432H11.1628C11.2558 43.7432 11.3346 43.7756 11.3993 43.8404C11.4638 43.9053 11.4962 43.9842 11.4962 44.0774C11.4962 44.1706 11.4638 44.2485 11.3993 44.3106C11.3346 44.3726 11.2558 44.4038 11.1628 44.4038H8.68982V46.1294H11.4419C11.535 46.1294 11.6137 46.1617 11.6784 46.2266C11.7429 46.2914 11.7753 46.3704 11.7753 46.4637C11.7753 46.557 11.7429 46.6346 11.6784 46.6969C11.6137 46.759 11.535 46.7902 11.4419 46.7902H8.33321C8.23498 46.79 8.15215 46.7564 8.0852 46.6889Z" fill="#046AAF" stroke="#046AAF" stroke-width="0.75" stroke-miterlimit="10"/>
<path d="M13.0325 46.6889C12.9652 46.6216 12.9316 46.5386 12.9316 46.4401V41.7224C12.9316 41.6239 12.9652 41.5397 13.0325 41.4697C13.0994 41.3998 13.1822 41.3649 13.2805 41.3649H16.3892C16.4822 41.3649 16.561 41.3974 16.6255 41.462C16.69 41.5269 16.7224 41.6059 16.7224 41.699C16.7224 41.7923 16.69 41.8701 16.6255 41.9322C16.5608 41.9944 16.4822 42.0255 16.3892 42.0255H13.6371V43.7432H16.1102C16.2032 43.7432 16.282 43.7756 16.3465 43.8404C16.4111 43.9053 16.4435 43.9842 16.4435 44.0774C16.4435 44.1706 16.4111 44.2485 16.3465 44.3106C16.2819 44.3726 16.2032 44.4038 16.1102 44.4038H13.6371V46.1294H16.3892C16.4822 46.1294 16.561 46.1617 16.6255 46.2266C16.69 46.2914 16.7224 46.3704 16.7224 46.4637C16.7224 46.557 16.69 46.6346 16.6255 46.6969C16.5608 46.759 16.4822 46.7902 16.3892 46.7902H13.2805C13.1822 46.79 13.0994 46.7564 13.0325 46.6889Z" fill="#046AAF" stroke="#046AAF" stroke-width="0.75" stroke-miterlimit="10"/>
<path d="M20.4839 46.5291C20.0729 46.3037 19.7499 45.98 19.5148 45.5576C19.2796 45.1354 19.1621 44.6418 19.1621 44.077C19.1621 43.5124 19.2796 43.0187 19.5148 42.5963C19.7499 42.1739 20.0729 41.8501 20.4839 41.6248C20.8948 41.3994 21.3585 41.2866 21.8755 41.2866C22.2269 41.2866 22.5407 41.3282 22.8174 41.4109C23.0938 41.494 23.369 41.6129 23.643 41.7685C23.7564 41.8306 23.8133 41.929 23.8133 42.0638C23.8133 42.1416 23.7851 42.2102 23.7281 42.2698C23.6713 42.3295 23.5964 42.3592 23.5034 42.3592C23.4517 42.3592 23.405 42.3488 23.364 42.328C23.1364 42.2089 22.9143 42.118 22.6971 42.056C22.4802 41.9939 22.2293 41.9627 21.9452 41.9627C21.5005 41.9627 21.122 42.0547 20.8093 42.2386C20.4967 42.4226 20.2615 42.6738 20.1039 42.9925C19.9462 43.3112 19.8674 43.6726 19.8674 44.0768C19.8674 44.481 19.9462 44.8424 20.1039 45.1611C20.2615 45.4796 20.4967 45.7312 20.8093 45.915C21.122 46.0989 21.5005 46.1909 21.9452 46.1909C22.2293 46.1909 22.4801 46.1597 22.6971 46.0976C22.9143 46.0355 23.1364 45.9449 23.364 45.8256C23.405 45.8049 23.4517 45.7944 23.5034 45.7944C23.5964 45.7944 23.6713 45.823 23.7281 45.8799C23.7851 45.9369 23.8133 46.0069 23.8133 46.0898C23.8133 46.2247 23.7566 46.323 23.643 46.3851C23.369 46.5406 23.0938 46.6599 22.8174 46.7426C22.5407 46.8255 22.2269 46.867 21.8755 46.867C21.3585 46.8673 20.8948 46.7545 20.4839 46.5291Z" fill="#046AAF" stroke="#046AAF" stroke-width="0.75" stroke-miterlimit="10"/>
<path d="M25.6892 46.5098C25.2809 46.2716 24.9654 45.9425 24.7432 45.5227C24.5211 45.1031 24.4047 44.6213 24.3945 44.0772C24.4046 43.5331 24.5211 43.0513 24.7432 42.6315C24.9656 42.2119 25.2809 41.8828 25.6892 41.6444C26.0972 41.4061 26.5728 41.2869 27.1155 41.2869C27.6582 41.2869 28.1325 41.4061 28.5382 41.6444C28.9439 41.8828 29.2592 42.213 29.4839 42.6354C29.7089 43.0578 29.8262 43.5381 29.8366 44.077C29.8262 44.6161 29.7089 45.0965 29.4839 45.5187C29.2592 45.941 28.9439 46.2714 28.5382 46.5097C28.1325 46.7481 27.6582 46.8672 27.1155 46.8672C26.5728 46.8674 26.0974 46.7481 25.6892 46.5098ZM28.1933 45.9267C28.4982 45.7402 28.7306 45.4865 28.8911 45.1652C29.0513 44.8441 29.1313 44.4812 29.1313 44.077C29.1313 43.6729 29.0514 43.3101 28.8911 42.9889C28.7306 42.6676 28.4982 42.4137 28.1933 42.2273C27.8884 42.0408 27.529 41.9475 27.1157 41.9475C26.6971 41.9475 26.3368 42.0408 26.0345 42.2273C25.732 42.4139 25.5007 42.6677 25.3405 42.9889C25.1804 43.3101 25.1001 43.6729 25.1001 44.077C25.1001 44.4812 25.1804 44.8439 25.3405 45.1652C25.5007 45.4865 25.732 45.7403 26.0345 45.9267C26.3368 46.1133 26.6973 46.2066 27.1157 46.2066C27.529 46.2066 27.8882 46.1133 28.1933 45.9267Z" fill="#046AAF" stroke="#046AAF" stroke-width="0.75" stroke-miterlimit="10"/>
<path d="M32.2798 46.4709L30.365 41.8154C30.3496 41.774 30.3418 41.7299 30.3418 41.6833C30.3418 41.5744 30.3728 41.4876 30.4348 41.4229C30.4969 41.3582 30.5822 41.3257 30.6908 41.3257C30.7631 41.3257 30.8291 41.3478 30.8884 41.3919C30.9479 41.4359 30.9929 41.4943 31.0239 41.5666L32.8455 46.1211L34.6674 41.5666C34.6985 41.4941 34.7437 41.4358 34.8032 41.3919C34.8624 41.3478 34.9283 41.3257 35.0008 41.3257C35.1092 41.3257 35.1945 41.3582 35.2567 41.4229C35.3185 41.4878 35.3498 41.5744 35.3498 41.6833C35.3498 41.7299 35.342 41.774 35.3263 41.8154L33.4118 46.4709C33.303 46.7093 33.1428 46.8284 32.9308 46.8284H32.7603C32.5484 46.8286 32.3883 46.7093 32.2798 46.4709Z" fill="#046AAF" stroke="#046AAF" stroke-width="0.75" stroke-miterlimit="10"/>
<path d="M36.3879 46.7275C36.3208 46.6602 36.2871 46.5771 36.2871 46.4787V41.6833C36.2871 41.585 36.3207 41.5006 36.3879 41.4306C36.455 41.3607 36.5377 41.3257 36.6361 41.3257C36.7342 41.3257 36.8183 41.3608 36.8882 41.4306C36.958 41.5006 36.9927 41.585 36.9927 41.6833V46.4787C36.9927 46.5771 36.9579 46.6602 36.8882 46.7275C36.8183 46.7946 36.7342 46.8286 36.6361 46.8286C36.5377 46.8286 36.455 46.7946 36.3879 46.7275Z" fill="#046AAF" stroke="#046AAF" stroke-width="0.75" stroke-miterlimit="10"/>
<path d="M38.5968 46.6884C38.5297 46.6212 38.4961 46.5381 38.4961 46.4396V41.7219C38.4961 41.6234 38.5297 41.5392 38.5968 41.4692C38.6639 41.3993 38.7465 41.3644 38.8449 41.3644H40.4032C40.9922 41.3644 41.4925 41.4954 41.9032 41.7568C42.3143 42.0187 42.6231 42.3567 42.8296 42.7712C43.0364 43.1857 43.1399 43.621 43.1399 44.0769C43.1399 44.5329 43.0364 44.9681 42.8296 45.3825C42.6231 45.7971 42.3143 46.1352 41.9032 46.3967C41.4925 46.6585 40.9922 46.7893 40.4032 46.7893H38.8449C38.7465 46.7893 38.6639 46.7557 38.5968 46.6884ZM40.3179 46.1287C40.7418 46.1287 41.1138 46.042 41.4343 45.8684C41.7546 45.6948 42.0027 45.454 42.1785 45.1455C42.354 44.8373 42.442 44.481 42.442 44.0769C42.442 43.6727 42.354 43.3165 42.1785 43.0082C42.0027 42.6999 41.7546 42.4591 41.4343 42.2853C41.1138 42.1118 40.7418 42.025 40.3179 42.025H39.2015V46.1289H40.3179V46.1287Z" fill="#046AAF" stroke="#046AAF" stroke-width="0.75" stroke-miterlimit="10"/>
<path d="M25.1722 23.9917C25.2171 24.0214 25.2681 24.0511 25.32 24.06C25.3285 24.0611 25.3371 24.0628 25.3449 24.0641C25.7326 24.1937 26.7612 24.3754 28.3473 23.4767C28.3531 23.4753 28.3598 23.4738 28.3656 23.4727C28.378 23.4698 28.3883 23.457 28.3999 23.4487C28.4054 23.4447 28.4109 23.4406 28.4164 23.4367C28.4197 23.4357 28.7222 23.3384 29.0903 22.928C29.1384 22.8806 29.1819 22.8283 29.2205 22.7724C29.3677 22.5844 29.5206 22.3454 29.6659 22.0429C29.685 22.016 29.7054 21.9897 29.7225 21.9615C29.7277 21.9531 29.7331 21.9441 29.7379 21.9356L29.9591 21.6077C29.9796 21.5841 30.0005 21.5609 30.023 21.5388C29.9771 21.499 29.9362 21.4616 29.8938 21.4267C29.8813 21.4167 29.8631 21.4079 29.8478 21.4077C29.7595 21.4067 29.6722 21.4019 29.5856 21.4377C29.453 21.4919 29.3342 21.5689 29.2235 21.6576C29.141 21.7233 29.0582 21.7943 28.9965 21.8784C28.95 21.9409 28.9056 22.0033 28.8516 22.0597C28.7881 22.1261 28.7254 22.193 28.663 22.2603C28.4323 22.5102 28.2157 22.7734 27.9587 22.9977C27.8988 23.0499 27.8298 23.0935 27.7609 23.1343C27.7199 23.1587 27.6714 23.1699 27.6122 23.1928C27.6228 23.1589 27.6265 23.1413 27.6333 23.1246C27.6552 23.0739 27.6814 23.0241 27.7002 22.9721C27.729 22.894 27.7494 22.8129 27.7811 22.7355C27.8867 22.4776 27.9959 22.2214 28.0538 21.9472C28.0724 21.8602 28.0983 21.7749 28.1165 21.6875C28.1265 21.64 28.1348 21.5915 28.1409 21.5423C28.1409 21.5423 28.2574 20.9933 28.168 20.9284C28.1509 20.8941 28.1193 20.8727 28.0788 20.8635C28.042 20.8554 28.0012 20.8547 27.9635 20.8602C27.8704 20.8745 27.7964 20.9237 27.7362 20.9855C27.7076 21.0151 27.6824 21.047 27.6598 21.0795C27.5369 21.2543 27.4343 21.4446 27.3386 21.6358C27.2604 21.7919 27.2068 21.9602 27.1386 22.1221C27.0297 22.3788 26.9166 22.6323 26.7568 22.8631C26.6954 22.9519 26.6229 23.0256 26.5322 23.0892C26.5454 23.0258 26.5629 22.9405 26.5757 22.8653C26.5809 22.8546 26.583 22.8421 26.5848 22.8285C26.5878 22.8004 26.591 22.7714 26.5936 22.743V22.7426C26.6021 22.6576 26.6109 22.573 26.618 22.4876C26.6214 22.4415 26.625 22.3959 26.6275 22.3499L26.6846 21.6884C26.6846 21.6874 26.6846 21.686 26.6849 21.6854L26.6874 21.6544V21.6536C26.6907 21.6177 26.6935 21.5814 26.6957 21.5456C26.711 21.3092 26.7176 21.0721 26.7279 20.8356C26.7309 20.7637 26.6902 20.7085 26.6228 20.6847C26.5653 20.664 26.5203 20.6875 26.4757 20.7184C26.3726 20.7911 26.3074 20.8955 26.242 20.9993C26.0756 21.2656 26.0163 21.5681 25.9621 21.8692C25.9259 22.0664 25.9128 22.2677 25.8954 22.4673C25.8723 22.7385 25.784 22.9826 25.6179 23.198C25.562 23.2705 25.5084 23.3452 25.4561 23.4203C25.4214 23.4702 25.3915 23.5227 25.3572 23.573C25.2885 23.6746 25.2163 23.7736 25.1498 23.8759C25.1191 23.9227 25.1252 23.9606 25.1722 23.9917Z" fill="#B52E71"/>
<path d="M31.2813 23.5258C31.2737 23.423 31.2077 23.343 31.1083 23.3408C31.0142 23.3385 30.9193 23.343 30.8257 23.3536C30.5905 23.3796 30.3632 23.4488 30.1329 23.5017C29.8678 23.5622 29.6022 23.6208 29.3367 23.6794C29.2636 23.6957 29.1898 23.7095 29.1164 23.7266C28.9711 23.7607 28.8252 23.793 28.681 23.8319C28.5791 23.8599 28.4799 23.8975 28.3795 23.9311C28.2688 23.9682 28.1517 23.993 28.0484 24.0452C27.875 24.1321 27.6852 24.1667 27.5048 24.2287C27.3088 24.2963 27.1069 24.3447 26.9064 24.3979L26.1154 24.5224C24.8804 24.5114 24.4551 23.8948 24.4277 23.8536C24.4274 23.8526 24.427 23.8521 24.4269 23.8509C24.3565 23.7657 24.2979 23.675 24.245 23.5782C24.1194 23.349 24.0344 23.1047 23.9697 22.8542C23.9061 22.6088 23.8547 22.3601 23.7966 22.1133C23.7885 22.0784 23.7784 22.0423 23.7604 22.0117C23.6884 21.8892 23.6317 21.7593 23.5514 21.6405C23.4838 21.5407 23.4072 21.4733 23.2948 21.4291C23.1685 21.3783 23.0557 21.3923 22.9448 21.455C22.831 21.5184 22.7885 21.6219 22.8119 21.7523C22.8363 21.8897 22.8685 22.0247 22.9203 22.1548C22.9395 22.204 22.9495 22.2564 22.9656 22.3067C22.994 22.3968 23.0167 22.4897 23.0554 22.5758C23.0988 22.672 23.1269 22.7702 23.1171 22.8743C23.1073 22.9771 23.0967 23.0806 23.069 23.1794C23.0149 23.3781 22.9838 23.5819 22.915 23.7774C22.8489 23.9635 22.8124 24.1583 22.7787 24.354C22.7416 24.5694 22.7145 24.7841 22.7291 25.0027C22.7391 25.1585 22.747 25.3148 22.7663 25.4692C22.7791 25.5766 22.8079 25.6826 22.8323 25.7887C22.8819 26.003 22.9302 26.2173 22.9853 26.4299C22.9853 26.4299 22.9832 27.2169 22.9332 27.891C22.9332 27.8923 22.9329 27.8938 22.9329 27.895C22.9146 28.0357 22.9103 28.1791 22.8806 28.3172C22.8529 28.4437 22.8371 28.5713 22.8197 28.6987C22.8197 28.6987 22.8124 28.7311 22.8003 28.7905C22.6989 29.4435 22.5575 31.7389 22.4966 32.3493C22.4941 32.3899 22.4911 32.4302 22.489 32.4713C22.4883 32.4761 22.4883 32.4806 22.4877 32.4852C22.487 32.494 22.487 32.5029 22.4862 32.5115C22.4691 32.821 22.4614 33.1382 22.4709 33.4508C22.4702 33.4831 22.4709 33.5157 22.4742 33.548C22.4867 33.8561 22.5152 34.1579 22.5658 34.4409C22.5804 34.5913 22.5944 34.7423 22.6106 34.8927C22.6252 35.0308 22.648 35.1681 22.6664 35.3058C22.684 35.4356 22.7011 35.5652 22.7185 35.695C22.7339 35.8111 22.7525 35.9266 22.7648 36.0433C22.7751 36.146 22.763 36.2531 22.7879 36.3513C22.8421 36.5618 22.8517 36.774 22.8547 36.9895C22.8584 37.2088 22.8322 37.4277 22.8672 37.6481C22.8954 37.8265 22.9007 38.0092 22.9131 38.1898C22.9223 38.3401 22.9287 38.4905 22.9326 38.6409C22.9332 38.6833 22.9442 38.7109 22.9921 38.7222C23.0137 38.6685 23.0578 38.6688 23.1065 38.6794C23.1496 38.6888 23.1938 38.6976 23.2379 38.7026C23.3039 38.7101 23.3705 38.7177 23.4369 38.7184C23.4676 38.7189 23.4986 38.7041 23.5251 38.6973C23.5334 38.6159 23.5032 38.5572 23.4744 38.4971C23.4445 38.4377 23.4153 38.3765 23.394 38.3134C23.3287 38.1196 23.2897 37.9206 23.2815 37.7155C23.2787 37.6515 23.2654 37.5881 23.2581 37.5245C23.2552 37.5002 23.2556 37.4759 23.2545 37.4513C23.2603 37.4508 23.2661 37.4505 23.2717 37.4502C23.2998 37.5162 23.3257 37.5833 23.3564 37.6485C23.4425 37.8328 23.5295 38.0161 23.6594 38.1749C23.7193 38.2481 23.7787 38.3219 23.8321 38.3998C23.8862 38.4776 23.9289 38.5618 24.0414 38.5686C24.0928 38.5716 24.1446 38.6038 24.1951 38.6019C24.3673 38.5941 24.5382 38.5765 24.7105 38.5645C24.7591 38.561 24.7893 38.5337 24.8225 38.4959C24.7724 38.4568 24.775 38.4079 24.7871 38.354C24.7944 38.3223 24.7908 38.2877 24.7901 38.2542C24.7861 38.1201 24.78 37.9864 24.7777 37.8533C24.7747 37.6611 24.7299 37.4783 24.6711 37.2971C24.6361 37.19 24.6058 37.0808 24.5717 36.9667C24.6006 36.988 24.6283 37.0075 24.6549 37.0261C24.8768 37.2212 25.4499 37.7807 25.5749 38.4447L25.8092 38.4953C25.8092 38.4953 25.8648 38.4783 25.8704 38.4617C25.8744 38.4504 25.8595 38.4168 25.8489 38.3953C25.848 38.3866 25.8444 38.3803 25.8389 38.3762C25.8389 38.3762 25.7838 38.0725 25.7352 37.8914C25.8238 37.9927 25.9023 38.0827 25.9819 38.1712C25.9955 38.186 26.0108 38.2051 26.0261 38.2211C26.0261 38.2211 26.1346 38.4074 26.3593 38.5171C26.3921 38.5419 26.4293 38.5602 26.4735 38.5678C26.4947 38.5715 26.5158 38.5748 26.5369 38.5786C26.5614 38.584 26.587 38.5881 26.6135 38.5909C26.6877 38.6021 26.762 38.6101 26.8377 38.6094C26.8955 38.6086 26.9597 38.5851 27.0118 38.6349C27.0148 38.6382 27.0257 38.632 27.033 38.6309C27.1323 38.7277 27.8345 38.5909 27.8345 38.5909C27.6787 38.479 27.2391 37.648 27.2066 37.5851C27.1877 37.5398 27.1737 37.4927 27.1591 37.4457V37.446C27.1591 37.446 27.8203 37.8899 28.2046 38.2105L28.2527 38.256C28.3257 38.3304 28.3943 38.401 28.4626 38.4695V38.4698C28.4824 38.4901 28.5031 38.5104 28.5232 38.5307C28.5368 38.544 28.5673 38.557 28.5806 38.5507C28.7967 38.5831 29.3181 38.5123 29.3181 38.5123C29.1787 38.3665 28.0974 37.7203 28.0974 37.7203C28.0904 37.7072 28.0849 37.6927 28.0816 37.6754C28.1065 37.6734 28.1284 37.6664 28.1465 37.6716C28.1998 37.6867 28.2524 37.7039 28.3035 37.7255C28.3616 37.7503 28.4157 37.7914 28.4762 37.8059C28.5796 37.8311 28.6687 37.8884 28.7668 37.923C28.7909 37.9315 28.8146 37.9404 28.8355 37.9533C29.0019 38.0534 29.1692 38.1522 29.333 38.2565C29.3725 38.2818 29.4173 38.3099 29.4253 38.369C29.4274 38.3848 29.4591 38.4049 29.4804 38.4101C29.5804 38.4347 29.6808 38.4569 29.7819 38.4768C29.9364 38.5079 30.0925 38.4868 30.248 38.4875C30.3079 38.4876 30.3715 38.4974 30.4203 38.4449C30.4279 38.4369 30.4468 38.4352 30.4604 38.4364C30.5885 38.4452 30.6969 38.3825 30.8094 38.3372C30.8584 38.3178 30.8648 38.2738 30.8228 38.2421C30.7948 38.2201 30.7608 38.2023 30.7269 38.1925C30.6488 38.1699 30.5736 38.1422 30.4999 38.1098C30.4649 38.0913 30.4259 38.0729 30.3831 38.0536C30.3697 38.0469 30.3565 38.0399 30.3436 38.0331C30.3333 38.0276 30.3217 38.0243 30.3096 38.0218C29.5997 37.7242 28.0974 37.3255 28.0796 37.3212C27.9719 37.26 27.8646 37.1989 27.7587 37.1346C27.6754 37.0846 27.5959 37.0281 27.5128 36.9775C27.4066 36.9135 27.2907 36.8622 27.1923 36.787C27.0627 36.6879 26.9447 36.5722 26.8233 36.4618C26.7332 36.3792 26.645 36.2941 26.5583 36.2082C26.4031 36.0563 26.2523 35.9008 26.119 35.7287C26.0354 35.6213 25.958 35.5078 25.8643 35.4101C25.697 35.2353 25.5858 35.0298 25.4982 34.8076C25.4474 34.6783 25.3835 34.554 25.3321 34.4251C25.2755 34.284 25.2259 34.1403 25.1715 33.9975C25.1433 33.9225 25.1119 33.8483 25.0812 33.7739C25.0523 33.7017 25.0125 33.6318 24.9954 33.557C24.9421 33.3292 24.894 33.1 24.8509 32.8704C24.8019 32.6135 24.7586 32.356 24.7161 32.0978C24.6854 31.9119 24.6653 31.7241 24.6303 31.5384C24.5862 31.301 24.582 31.0615 24.5726 30.8219C24.5686 30.6723 24.5689 29.19 24.5732 29.0587C24.5951 28.8795 24.6195 28.7005 24.6398 28.521C24.6459 28.4643 24.6507 28.4079 24.6554 28.351C24.6864 28.1079 24.7759 27.6577 25.0266 27.3574C25.2146 27.2335 25.5082 27.0139 25.7845 26.8013C25.8323 26.7695 25.88 26.7375 25.9278 26.7048C26.0267 26.6356 26.1177 26.554 26.2162 26.4827C26.24 26.4657 26.2582 26.4479 26.2677 26.4249C26.2866 26.4103 26.3045 26.396 26.3216 26.3822C26.3351 26.3794 26.3465 26.3707 26.359 26.3597C26.4091 26.3158 26.4612 26.2739 26.5126 26.2306C26.5354 26.2115 26.5586 26.1924 26.5802 26.1721C26.6429 26.1157 26.7003 26.0534 26.7609 25.9945C27.2811 25.5285 27.8413 25.1868 28.1644 25.0077C28.2202 24.9797 28.2758 24.9506 28.3309 24.9218C28.3667 24.903 28.4017 24.8839 28.4374 24.8644C28.4965 24.8325 28.5557 24.7999 28.6166 24.7704C28.7359 24.7122 28.8582 24.6596 28.979 24.6045C29.0396 24.5769 29.0989 24.5455 29.1608 24.521C29.2688 24.4783 29.379 24.4388 29.4885 24.3997C29.6662 24.3364 29.8436 24.272 30.0225 24.2124C30.1302 24.1765 30.241 24.1492 30.3502 24.1174C30.406 24.1008 30.4609 24.0825 30.516 24.0658C30.5613 24.052 30.608 24.0429 30.6521 24.0261C30.786 23.9738 30.9201 23.9204 31.0528 23.8647C31.1499 23.8238 31.293 23.6887 31.2813 23.5258ZM24.3091 38.4301C24.2677 38.4207 24.2555 38.393 24.2498 38.3625C24.2327 38.2772 24.1743 38.2251 24.1104 38.1734C24.0706 38.1414 24.0329 38.098 24.0128 38.0522C23.9495 37.9088 23.8728 37.7741 23.7877 37.6431C23.6705 37.4633 23.6018 37.2625 23.5548 37.0559C23.5114 36.8634 23.4717 36.6677 23.4538 36.4714C23.4307 36.216 23.4468 35.9588 23.4712 35.7026C23.4727 35.6926 23.4755 35.6827 23.4774 35.6723C23.4835 35.6707 23.4893 35.6695 23.4953 35.668C23.5029 35.6818 23.511 35.6956 23.5187 35.7091L23.519 35.7099C23.5346 35.7364 23.5494 35.763 23.5635 35.7903C23.6021 35.8635 23.641 35.936 23.6898 36.0014C23.8273 36.2516 24.0178 36.6325 24.1423 37.0244C24.1663 37.1442 24.1897 37.264 24.215 37.3838C24.2241 37.4299 24.2336 37.4763 24.2432 37.523C24.2697 37.6398 24.2882 37.7574 24.2906 37.8784C24.2936 38.0481 24.3049 38.2178 24.3129 38.3875C24.3132 38.4001 24.3106 38.4134 24.3091 38.4301ZM26.227 36.8431C26.3512 36.9585 26.4655 37.085 26.5607 37.2252C26.6104 37.2973 26.6419 37.3834 26.6736 37.4665C26.7076 37.5575 26.7317 37.6523 26.7615 37.7451C26.7685 37.7659 26.7834 37.7839 26.7911 37.8045C26.8039 37.8378 26.8224 37.8721 26.8231 37.9065C26.8253 38.0201 26.8586 38.1254 26.9006 38.2289C26.9125 38.258 26.9179 38.2898 26.9316 38.3389L26.4396 38.068C26.4247 38.0547 26.4104 38.0414 26.3936 38.0306C26.2607 37.9418 26.1884 37.8153 26.1703 37.6485C26.1593 37.5465 26.1841 37.4488 26.1758 37.3492C26.1641 37.2048 26.1575 37.06 26.1487 36.9154C26.1469 36.8795 26.1454 36.8432 26.1426 36.7907C26.1784 36.8123 26.2063 36.8238 26.227 36.8431ZM25.6072 36.7812C25.6084 36.7047 25.62 36.628 25.6273 36.5499C25.7068 36.5573 25.7304 36.6097 25.7481 36.6614C25.7733 36.7348 25.7873 36.8121 25.8132 36.8852C25.8661 37.0344 25.8716 37.1918 25.8857 37.3458C25.892 37.4159 25.8485 37.4879 25.8188 37.5561C25.817 37.5595 25.8089 37.5605 25.7941 37.5669C25.7548 37.5323 25.7119 37.4957 25.6706 37.4571C25.6371 37.3966 25.6096 37.3028 25.6089 37.1578C25.6097 37.0322 25.6049 36.9068 25.6072 36.7812ZM24.783 35.482C24.8764 35.588 24.963 35.6996 25.0525 35.8088C25.0561 35.8133 25.0591 35.8181 25.0616 35.8232C25.1243 35.9375 25.1909 36.0498 25.2481 36.167C25.2968 36.2664 25.3455 36.3689 25.3522 36.4816C25.358 36.5897 25.3548 36.6978 25.3548 36.8063C25.3548 36.8825 25.3613 36.9585 25.3723 37.0341V37.0362C25.3784 37.0737 25.385 37.1114 25.3933 37.1487L25.4108 37.2395C25.3882 37.2269 25.3673 37.2114 25.3472 37.1956C25.3122 37.1685 25.2803 37.1376 25.245 37.1103C25.1245 37.0171 25.0004 36.9276 24.8824 36.8298C24.8386 36.7938 24.8042 36.7431 24.775 36.6937C24.7352 36.6265 24.7045 36.5544 24.6707 36.4841C24.6366 36.4122 24.6003 36.341 24.5666 36.2691C24.5663 36.2678 24.3223 35.5008 24.3487 35.027C24.3841 35.0589 24.4093 35.0792 24.4315 35.1029C24.549 35.2288 24.669 35.3533 24.783 35.482Z" fill="#B52E71"/>
<path d="M14.6816 23.2156C14.6871 23.2241 14.6922 23.233 14.6977 23.2415C14.7144 23.2698 14.7348 23.2963 14.7539 23.3229C14.8991 23.6255 15.0521 23.8642 15.1993 24.0527C15.238 24.1085 15.2815 24.1605 15.3296 24.2085C15.6978 24.6186 16 24.7159 16.0036 24.7167C16.0091 24.7209 16.0146 24.7247 16.0202 24.7289C16.0317 24.737 16.0418 24.7502 16.0543 24.7525C16.0606 24.7538 16.0667 24.7551 16.0727 24.7565C17.6588 25.6552 18.6875 25.474 19.0746 25.3443C19.0832 25.3431 19.0914 25.3416 19.0998 25.3404C19.1518 25.3313 19.2025 25.3015 19.2477 25.2719C19.2943 25.2411 19.3006 25.203 19.2704 25.1563C19.2035 25.0538 19.1315 24.9546 19.0628 24.8531C19.029 24.8031 18.9984 24.7503 18.9639 24.7006C18.9115 24.6254 18.8582 24.551 18.8023 24.4785C18.6355 24.2625 18.5476 24.0185 18.5245 23.7476C18.5074 23.548 18.494 23.3463 18.458 23.1499C18.4037 22.8486 18.3446 22.5459 18.1777 22.2794C18.1126 22.1756 18.0476 22.0716 17.9445 21.9991C17.8999 21.9676 17.8544 21.9442 17.797 21.9648C17.73 21.9891 17.6888 22.0445 17.692 22.116C17.7022 22.3526 17.7092 22.5895 17.7243 22.8259C17.7263 22.8619 17.7291 22.8976 17.7324 22.9336V22.9349L17.7351 22.9654C17.7351 22.9667 17.7351 22.9677 17.7351 22.969L17.792 23.63C17.7952 23.6762 17.798 23.7218 17.802 23.7679C17.8086 23.8531 17.8174 23.9381 17.8262 24.0226V24.023V24.0233C17.8292 24.0517 17.8322 24.0805 17.8352 24.1091C17.8365 24.1224 17.8395 24.1346 17.8443 24.1454C17.8572 24.2208 17.8745 24.3063 17.8873 24.3697C17.7965 24.3061 17.7248 24.2324 17.6634 24.1437C17.5034 23.9125 17.3899 23.6589 17.2816 23.4024C17.2132 23.2407 17.1596 23.0727 17.0815 22.9163C16.9855 22.7248 16.8828 22.5345 16.7607 22.3596C16.7376 22.3273 16.7119 22.2954 16.6835 22.2663V22.2656C16.6233 22.2042 16.5494 22.1546 16.4567 22.141C16.4188 22.1352 16.3784 22.1358 16.3408 22.144C16.3005 22.1531 16.2688 22.1744 16.2519 22.2089C16.1626 22.2734 16.2788 22.8231 16.2788 22.8231C16.2853 22.8719 16.2934 22.9201 16.3035 22.9683C16.3214 23.0554 16.3477 23.1409 16.3661 23.2277C16.4238 23.5019 16.5332 23.7579 16.6387 24.0156C16.6704 24.093 16.6908 24.1744 16.7197 24.2527C16.7388 24.305 16.7645 24.354 16.7862 24.4051C16.7937 24.4214 16.7974 24.4394 16.8078 24.4733C16.7486 24.4502 16.6998 24.4389 16.659 24.4148C16.5903 24.3738 16.5214 24.3301 16.4612 24.2778C16.2043 24.0541 15.9871 23.7902 15.7569 23.5407C15.6947 23.4733 15.6313 23.4066 15.5679 23.3397C15.5143 23.2836 15.4695 23.2209 15.4233 23.1583C15.3613 23.0747 15.2786 23.0033 15.1962 22.9377C15.0853 22.8496 14.9667 22.7725 14.8337 22.7176C14.7475 22.6822 14.6598 22.687 14.5711 22.6877C14.556 22.6882 14.5382 22.6968 14.5259 22.7068C14.4831 22.7419 14.4425 22.779 14.3965 22.8193C14.4194 22.8412 14.4401 22.8642 14.4604 22.8882L14.6816 23.2156Z" fill="#046AAF"/>
<path d="M21.856 32.5119C21.8552 32.5034 21.8552 32.4944 21.8549 32.4856C21.8542 32.4809 21.8541 32.4765 21.8537 32.4716C21.8512 32.4305 21.8486 32.3903 21.8458 32.3497C21.7849 31.7391 21.6435 30.7855 21.5421 30.1325C21.53 30.0729 21.5227 30.0408 21.5227 30.0408C21.5052 29.9134 21.4895 29.7858 21.4618 29.6593C21.4319 29.5214 21.4279 29.3778 21.4097 29.2373C21.4095 29.2354 21.409 29.2341 21.409 29.2331C21.3594 28.5591 21.3575 27.7717 21.3575 27.7717C21.4126 27.5591 21.4611 27.345 21.5104 27.131C21.5348 27.0249 21.564 26.9191 21.5768 26.8116C21.5957 26.6569 21.6035 26.5007 21.6136 26.3448C21.6282 26.1265 21.6015 25.9117 21.5643 25.6963C21.5305 25.5001 21.494 25.3055 21.4279 25.1192C21.3592 24.924 21.3285 24.7197 21.2737 24.5214C21.2464 24.4227 21.2352 24.3188 21.2256 24.2163C21.2162 24.112 21.244 24.014 21.2877 23.9173C21.3264 23.8315 21.3489 23.7383 21.3775 23.6483C21.3936 23.5982 21.4035 23.5455 21.4231 23.4969C21.4742 23.3668 21.5067 23.2314 21.5311 23.0943C21.5542 22.9635 21.5114 22.8602 21.3982 22.7967C21.2875 22.7341 21.174 22.7205 21.0482 22.7705C20.9357 22.8151 20.8592 22.8823 20.7917 22.9823C20.7112 23.1009 20.6544 23.231 20.5828 23.3533C20.5648 23.3839 20.5545 23.4204 20.5464 23.4553C20.4883 23.7019 20.4366 23.9502 20.3733 24.1956C20.3085 24.4464 20.2235 24.6906 20.098 24.9195C20.0448 25.0168 19.986 25.1077 19.9162 25.1925C19.9158 25.1934 19.9155 25.1944 19.9148 25.1949C19.8879 25.2361 19.4625 25.8533 18.2277 25.8641L17.436 25.7395C17.236 25.6865 17.0337 25.6376 16.8376 25.5702C16.657 25.508 16.4675 25.4734 16.2941 25.3863C16.1909 25.3343 16.0741 25.3093 15.9629 25.2729C15.8627 25.2389 15.7634 25.2013 15.6617 25.1732C15.5175 25.1341 15.3713 25.1022 15.2261 25.0679C15.1529 25.0509 15.0789 25.0373 15.0059 25.0207C14.7404 24.9618 14.4749 24.9039 14.2095 24.8428C13.9794 24.7904 13.7522 24.7209 13.5165 24.6946C13.4231 24.6843 13.328 24.6799 13.2339 24.6818C13.1347 24.6843 13.0687 24.7646 13.0612 24.8668C13.0497 25.0298 13.1928 25.1652 13.2909 25.2062C13.4239 25.2619 13.5579 25.3155 13.6919 25.3672C13.7356 25.3843 13.7824 25.3933 13.8275 25.407C13.8831 25.4239 13.9382 25.4426 13.994 25.4589C14.1027 25.4907 14.2132 25.5178 14.3215 25.5535C14.5003 25.6133 14.6777 25.6776 14.8554 25.7409C14.9649 25.7805 15.0748 25.8201 15.1833 25.8628C15.245 25.8868 15.3041 25.9182 15.3645 25.9462C15.4853 26.0014 15.6078 26.0538 15.7272 26.1119C15.788 26.1415 15.8471 26.1738 15.9063 26.2064H15.9066C15.9416 26.2255 15.977 26.245 16.0128 26.2631C16.0686 26.2919 16.1235 26.3212 16.1791 26.3494C16.5025 26.5283 17.0629 26.87 17.5828 27.3365C17.6436 27.3951 17.7008 27.4573 17.7632 27.5137C17.7853 27.5337 17.808 27.5533 17.8312 27.5723L17.8316 27.5724C17.8827 27.6152 17.9348 27.6571 17.9852 27.7014C17.9974 27.7123 18.0091 27.7205 18.0224 27.724C18.0393 27.7375 18.0571 27.7516 18.0762 27.7666C18.0858 27.7895 18.1039 27.8073 18.1276 27.8245C18.2262 27.8952 18.317 27.977 18.4165 28.0464C18.4637 28.079 18.5111 28.1113 18.5596 28.1427C18.836 28.3553 19.1294 28.5746 19.3171 28.6989C19.5682 28.999 19.6575 29.4494 19.6883 29.6924C19.693 29.7492 19.6976 29.8057 19.7044 29.8628C19.724 30.0422 19.7487 30.2207 19.7706 30.4C19.7744 30.5316 19.7751 30.672 19.7715 30.8216C19.7618 31.0612 19.7579 31.3007 19.7134 31.5381C19.6789 31.7238 19.6588 31.9116 19.6278 32.0975C19.5851 32.3557 19.5421 32.6134 19.493 32.8701C19.45 33.0998 19.4017 33.3289 19.3485 33.5567C19.3312 33.6317 19.2915 33.7016 19.2622 33.7736C19.232 33.848 19.2004 33.9222 19.1721 33.9972C19.118 34.1398 19.0689 34.2835 19.0121 34.4248C18.96 34.5539 18.8964 34.678 18.8457 34.8073C18.7582 35.0295 18.6472 35.235 18.4794 35.4099C18.3857 35.5075 18.308 35.621 18.2249 35.7284C18.0918 35.9005 17.9406 36.056 17.7856 36.2079C17.6987 36.2936 17.6107 36.3789 17.5206 36.4615C17.3996 36.5721 17.2816 36.6876 17.1512 36.7867C17.0528 36.8619 16.9371 36.9132 16.8311 36.9772C16.748 37.0278 16.6685 37.0843 16.5852 37.1343C16.476 37.2005 16.3651 37.2639 16.2538 37.3266C16.0651 37.3772 14.7162 37.7415 14.0509 38.0198C14.0333 38.0212 14.0154 38.0248 14.0006 38.033C13.8778 38.0987 13.7512 38.1543 13.6169 38.1924C13.5831 38.2022 13.5492 38.22 13.521 38.2419C13.4792 38.2737 13.486 38.3176 13.5346 38.3371C13.6473 38.3824 13.7553 38.4451 13.8834 38.4363C13.8969 38.4353 13.916 38.4369 13.9238 38.4447C13.9721 38.4973 14.0359 38.4875 14.0955 38.4873C14.2513 38.4867 14.4075 38.5078 14.5623 38.4767C14.663 38.4569 14.7638 38.4348 14.8633 38.41C14.8846 38.4048 14.9163 38.3847 14.9188 38.3689C14.9262 38.3098 14.9714 38.2819 15.0107 38.2564C15.1743 38.1521 15.3419 38.0533 15.5085 37.9531C15.5296 37.9403 15.553 37.9313 15.5769 37.9228C15.6753 37.8882 15.7643 37.831 15.868 37.8057C15.9282 37.7912 15.982 37.75 16.0407 37.7254C16.0915 37.7037 16.1448 37.6866 16.1977 37.6715C16.2156 37.6663 16.2374 37.6733 16.2626 37.6753C16.2581 37.6974 16.2503 37.7154 16.2403 37.7305C16.1 37.8152 15.1665 38.3775 15.0374 38.512C15.0374 38.512 15.5472 38.5813 15.7672 38.551C15.7818 38.5539 15.8086 38.5422 15.8208 38.5303C15.9098 38.4419 15.9967 38.3519 16.0907 38.2557L16.4225 37.9453H16.4222C16.4823 37.8986 16.5399 37.848 16.6001 37.8009C16.621 37.7849 16.6479 37.7773 16.6706 37.7635C16.7994 37.6861 16.9287 37.6094 17.0553 37.5296C17.0873 37.5089 17.113 37.4773 17.1388 37.4482C17.153 37.4321 17.1627 37.4113 17.1743 37.3923C17.1816 37.3983 17.1887 37.4038 17.1963 37.4089C17.1746 37.4733 17.1582 37.5404 17.1305 37.6016C17.1092 37.6487 17.0872 37.6953 17.0647 37.7417C16.9217 38.0044 16.6391 38.5058 16.5208 38.591C16.5208 38.591 17.2109 38.7257 17.3191 38.6334C17.3246 38.6352 17.3301 38.6371 17.3319 38.6349C17.384 38.5852 17.4479 38.6086 17.5058 38.6094C17.5838 38.6103 17.6602 38.6018 17.736 38.5903C17.7396 38.5911 17.7415 38.5911 17.7415 38.5911C17.7798 38.5872 17.8156 38.5802 17.8502 38.571C17.8565 38.5703 17.8631 38.569 17.8697 38.568C17.9034 38.562 17.9333 38.5501 17.96 38.5337C18.2093 38.4269 18.3286 38.2215 18.3286 38.2215L18.3395 38.1967C18.3473 38.1875 18.3543 38.179 18.3613 38.1716C18.4429 38.0814 18.5227 37.9894 18.613 37.8861C18.613 37.8981 18.613 37.9077 18.613 37.9164C18.571 38.0816 18.5252 38.3256 18.5168 38.3695C18.5025 38.3752 18.4885 38.3852 18.4968 38.4151C18.4889 38.4338 18.4812 38.4536 18.4844 38.4619C18.4897 38.4785 18.5455 38.4955 18.5455 38.4955L18.7798 38.4449C18.9178 37.7124 19.601 37.107 19.7562 36.9777C19.7613 36.9744 19.7661 36.9712 19.7713 36.9671C19.7371 37.0812 19.7069 37.1903 19.6721 37.2975C19.6128 37.4785 19.5683 37.6613 19.5652 37.8536C19.563 37.9867 19.5569 38.1205 19.5531 38.2546C19.5521 38.2882 19.5483 38.3228 19.5557 38.3544C19.5685 38.4083 19.5708 38.4572 19.5207 38.4963C19.5536 38.5339 19.5836 38.5614 19.6329 38.5649C19.8046 38.5768 19.9762 38.5945 20.1483 38.6023C20.1989 38.6041 20.25 38.572 20.302 38.569C20.4147 38.5624 20.457 38.478 20.5107 38.4002C20.5648 38.3223 20.6242 38.2484 20.6838 38.1752C20.8139 38.0167 20.9007 37.8332 20.987 37.6488C21.0175 37.5838 21.0432 37.5166 21.0711 37.4505C21.0771 37.451 21.0829 37.4514 21.0889 37.4517C21.0877 37.4763 21.0879 37.5006 21.0851 37.5249C21.0778 37.5884 21.0642 37.6518 21.0617 37.7159C21.0534 37.921 21.0147 38.12 20.9492 38.3138C20.9279 38.3769 20.8987 38.4379 20.8692 38.4975C20.8398 38.5574 20.8098 38.6161 20.8184 38.6976C20.8451 38.7044 20.8758 38.7192 20.906 38.7188C20.9726 38.7179 21.0393 38.7103 21.1056 38.7029C21.1493 38.698 21.1934 38.6891 21.2364 38.6798C21.2855 38.6692 21.3297 38.6688 21.3511 38.7226C21.3995 38.7113 21.4098 38.6836 21.4108 38.6412C21.415 38.4908 21.4208 38.3404 21.4307 38.1902C21.4422 38.0095 21.4478 37.8267 21.476 37.6485C21.5114 37.4281 21.4848 37.2093 21.4881 36.9899C21.4915 36.7744 21.5013 36.5621 21.5554 36.3517C21.5806 36.2535 21.5681 36.1464 21.5784 36.0437C21.5905 35.9269 21.6088 35.8115 21.6247 35.6953C21.6421 35.5657 21.6591 35.436 21.6765 35.3062C21.6951 35.1685 21.7181 35.0312 21.7324 34.8931C21.7485 34.7427 21.7626 34.5917 21.7772 34.4413C21.828 34.1583 21.8569 33.8565 21.8688 33.5484C21.8721 33.5161 21.8728 33.4835 21.8721 33.4512C21.8801 33.1386 21.8731 32.8213 21.856 32.5119ZM18.9484 37.1484C18.9568 37.1111 18.9638 37.0734 18.9696 37.0359L18.9698 37.0338H18.9696C18.9811 36.9582 18.9869 36.8824 18.9869 36.806C18.9869 36.6975 18.9836 36.5894 18.9899 36.4813C18.996 36.3686 19.045 36.266 19.0941 36.1667C19.1508 36.0495 19.2175 35.9371 19.2801 35.8229C19.2829 35.8178 19.2856 35.813 19.2892 35.8085C19.3787 35.6995 19.4656 35.5879 19.559 35.4817C19.6732 35.353 19.7927 35.2283 19.9105 35.1026C19.9329 35.0789 19.9583 35.0587 19.9932 35.0267C19.9968 35.0623 20.0015 35.0829 20.0006 35.1036C19.9985 35.1733 19.9943 35.243 19.991 35.313C19.9905 35.331 19.9883 35.3486 19.9892 35.3658C19.9498 35.6947 19.8531 36.0459 19.8093 36.1951C19.7663 36.2924 19.7169 36.3871 19.6714 36.4836C19.6375 36.554 19.6067 36.6258 19.567 36.6932C19.5376 36.7426 19.5028 36.7932 19.4593 36.8293C19.3417 36.9271 19.2175 37.0166 19.0966 37.1098C19.0614 37.1371 19.0295 37.168 18.9948 37.1951C18.9746 37.211 18.9534 37.2264 18.931 37.2391L18.9484 37.1484ZM18.4564 37.3457C18.4701 37.1917 18.4758 37.0343 18.5287 36.885C18.5544 36.812 18.5687 36.7346 18.5936 36.6613C18.6115 36.6094 18.6351 36.5571 18.7149 36.5498C18.7219 36.6278 18.7333 36.7045 18.7351 36.7811C18.7375 36.9067 18.7325 37.0321 18.7333 37.1577C18.7333 37.1975 18.7315 37.2376 18.7373 37.2772C18.7287 37.3421 18.7136 37.3925 18.6958 37.4319C18.693 37.436 18.6897 37.44 18.686 37.4435C18.6407 37.4873 18.5921 37.5282 18.5481 37.567C18.5332 37.5605 18.5252 37.5595 18.5236 37.5562C18.4935 37.4876 18.4504 37.4158 18.4564 37.3457ZM17.551 37.8044C17.5589 37.7838 17.5737 37.7658 17.5805 37.745C17.6102 37.6523 17.6343 37.5573 17.6686 37.4663C17.7003 37.3831 17.7322 37.2971 17.7815 37.2251C17.877 37.0847 17.9909 36.9582 18.1155 36.8429C18.1354 36.8237 18.1638 36.8122 18.1993 36.7907C18.1965 36.8433 18.195 36.8795 18.193 36.9155C18.1844 37.0601 18.1776 37.2048 18.1663 37.3492C18.1582 37.4489 18.1825 37.5464 18.1711 37.6485C18.1537 37.8154 18.081 37.9418 17.9482 38.0306C17.9258 38.0456 17.9056 38.0646 17.8858 38.0837L17.4303 38.3344C17.424 38.3361 17.4179 38.3373 17.4104 38.3389C17.4239 38.2899 17.4293 38.2581 17.4409 38.229C17.4833 38.1255 17.5165 38.0202 17.5188 37.9065C17.5198 37.8721 17.5384 37.8377 17.551 37.8044ZM20.8883 36.4713C20.8707 36.6676 20.831 36.8632 20.7875 37.0557C20.7406 37.2624 20.6719 37.4633 20.5544 37.643C20.4694 37.7739 20.3926 37.9087 20.3294 38.0521C20.3088 38.0979 20.2718 38.1413 20.2318 38.1732C20.1679 38.225 20.1092 38.2769 20.0922 38.3624C20.0861 38.3928 20.0745 38.4206 20.0327 38.4299C20.0312 38.4133 20.0285 38.4 20.0293 38.3873C20.0368 38.2177 20.0486 38.048 20.0517 37.8783C20.0529 37.8199 20.058 37.762 20.0655 37.7051L20.0882 37.6347C20.0901 37.5988 20.0937 37.5627 20.0982 37.5259C20.0982 37.5247 20.0985 37.5241 20.0987 37.5231C20.1092 37.4765 20.1179 37.4299 20.1276 37.3838C20.1445 37.3045 20.1599 37.2254 20.1755 37.1461C20.375 36.4294 20.8355 35.7093 20.8355 35.7093L20.8323 35.695C20.837 35.6859 20.8423 35.6774 20.8469 35.6682C20.8529 35.6696 20.8589 35.6709 20.865 35.6725C20.8672 35.6829 20.8698 35.6928 20.871 35.7028C20.8954 35.9587 20.9112 36.2159 20.8883 36.4713Z" fill="#046AAF"/>
<path d="M21.5434 6.92712C22.5739 7.91552 23.1572 9.2829 23.1587 10.7127C23.1605 12.0065 22.6856 13.2503 21.8337 14.2091C21.8351 14.0796 21.8358 13.9497 21.8358 13.8191C21.8355 12.362 21.7306 10.9689 21.5456 9.96201C21.3609 10.9705 21.2562 12.3657 21.257 13.8231C21.257 13.9484 21.2577 14.0733 21.2592 14.1986C20.4102 13.2435 19.9354 12.0053 19.9336 10.7167C19.9321 9.28622 20.5137 7.91685 21.5433 6.92712H21.5434Z" fill="#E88E49"/>
<path d="M31.2833 11.4788C31.3155 12.9619 30.7433 14.3936 29.699 15.4434C28.7536 16.3934 27.4953 16.9562 26.1691 17.0332C26.2651 16.9395 26.3607 16.8446 26.456 16.7486C27.5215 15.6798 28.4637 14.5811 29.0653 13.7065C28.1912 14.3104 27.0944 15.2572 26.0285 16.3255C25.9366 16.4181 25.846 16.5103 25.7559 16.6032C25.8319 15.2784 26.3888 14.0211 27.3307 13.0748C28.3764 12.0244 29.8037 11.4479 31.2833 11.4788Z" fill="#046AAF"/>
<path d="M11.9212 11.6022C11.8893 13.0538 12.4496 14.4558 13.4725 15.4832C14.3981 16.4139 15.6299 16.9648 16.9289 17.0401C16.8348 16.9478 16.7414 16.8554 16.6481 16.7611C15.6047 15.7145 14.6818 14.6386 14.0929 13.7825C14.9487 14.3742 16.0225 15.3006 17.0661 16.3475C17.1564 16.438 17.2453 16.5282 17.3336 16.6192C17.2591 15.322 16.714 14.0911 15.7915 13.1642C14.768 12.1361 13.3699 11.5714 11.9212 11.6022Z" fill="#046AAF"/>
<path d="M36.4291 20.6932C35.6015 21.56 34.4575 22.0507 33.2609 22.0522C32.1781 22.0537 31.1368 21.654 30.334 20.9372C30.4423 20.9386 30.5512 20.9391 30.6604 20.9391C31.8796 20.9391 33.0462 20.8506 33.8892 20.6948C33.0442 20.5393 31.8768 20.4516 30.6571 20.4521C30.5524 20.4521 30.4472 20.4529 30.3428 20.4541C31.1426 19.7404 32.1781 19.3404 33.2572 19.3391C34.4542 19.3379 35.6 19.8271 36.4288 20.6929L36.4291 20.6932Z" fill="#E88E49"/>
<path d="M6.89648 20.8643C7.84635 21.8597 9.16029 22.423 10.5341 22.4245C11.7772 22.4262 12.9725 21.9675 13.8933 21.1448C13.7692 21.1465 13.6446 21.1476 13.5191 21.1476C12.1191 21.147 10.7802 21.0453 9.81261 20.8673C10.7822 20.6883 12.1224 20.5881 13.5221 20.5881C13.6436 20.5881 13.7636 20.5895 13.8834 20.5906C12.9659 19.7709 11.7764 19.3124 10.538 19.3109C9.16344 19.3093 7.84801 19.8706 6.89648 20.8655V20.8643Z" fill="#E88E49"/>
<path d="M15.4182 7.31396C16.4024 7.62457 17.217 8.32449 17.6745 9.25149C18.0879 10.0908 18.177 11.0498 17.9309 11.9455C17.8904 11.861 17.8496 11.776 17.8076 11.6909C17.3425 10.746 16.8299 9.87603 16.3883 9.28193C16.5906 9.99565 16.9682 10.934 17.4336 11.8794C17.4735 11.961 17.5145 12.0423 17.5549 12.1223C16.6996 11.7753 15.996 11.1241 15.5838 10.289C15.1261 9.36146 15.066 8.28672 15.4182 7.31463V7.31396Z" fill="#B52E71"/>
<path d="M27.4944 7.31396C26.5107 7.62457 25.6959 8.32449 25.2384 9.25149C24.8245 10.0908 24.7354 11.0498 24.9825 11.9455C25.023 11.861 25.0636 11.776 25.1058 11.6909C25.5707 10.746 26.0833 9.87603 26.5246 9.28193C26.323 9.99565 25.9453 10.934 25.4798 11.8794C25.4397 11.961 25.3988 12.0423 25.3585 12.1223C26.2138 11.7753 26.9169 11.1241 27.3297 10.289C27.7876 9.36146 27.8467 8.28672 27.4947 7.31463V7.31396H27.4944Z" fill="#046AAF"/>
<path d="M7.60352 15.1618C8.5713 14.8043 9.6428 14.8585 10.5708 15.3121C11.4094 15.7218 12.0649 16.4267 12.4157 17.286C12.3324 17.2444 12.2483 17.2027 12.1638 17.1607C11.2188 16.6982 10.2827 16.3236 9.57128 16.1243C10.1667 16.565 11.0374 17.0762 11.9824 17.5396C12.0631 17.5793 12.1452 17.6183 12.2262 17.6569C11.3377 17.9067 10.3841 17.8229 9.54821 17.4143C8.62058 16.9611 7.91781 16.1476 7.60352 15.1622V15.1618Z" fill="#046AAF"/>
<path d="M35.6366 15.1618C34.6681 14.8043 33.5961 14.8585 32.6692 15.3121C31.8303 15.7218 31.175 16.4267 30.8242 17.286C30.9074 17.2444 30.9918 17.2027 31.0758 17.1607C32.0205 16.6982 32.9568 16.3236 33.6687 16.1243C33.0733 16.565 32.202 17.0762 31.2577 17.5396C31.1762 17.5793 31.0942 17.6183 31.0134 17.6569C31.9022 17.9067 32.855 17.8229 33.6911 17.4143C34.619 16.9611 35.3216 16.1476 35.6364 15.1622V15.1618H35.6366Z" fill="#B52E71"/>
<path d="M41.6896 16.7112C40.4963 15.9993 39.0651 15.8054 37.7264 16.1754C36.5152 16.5108 35.4741 17.2812 34.7988 18.3315C34.9193 18.2964 35.0408 18.2621 35.1631 18.2282C36.5271 17.8495 37.8582 17.5858 38.8488 17.4978C37.9528 17.9339 36.6737 18.3945 35.3101 18.7734C35.1924 18.8061 35.075 18.8379 34.9585 18.8687C36.0726 19.4192 37.355 19.5445 38.5618 19.2102C39.9011 18.8394 41.0308 17.9372 41.6898 16.7107V16.7112H41.6896Z" fill="#A4C752"/>
<path d="M38.5145 9.40752C37.1415 9.19939 35.7428 9.56158 34.6419 10.4106C33.6464 11.1787 32.9725 12.2854 32.7422 13.5148C32.8404 13.4365 32.9397 13.3589 33.0404 13.2809C34.161 12.415 35.2949 11.667 36.179 11.2114C35.5133 11.9536 34.5027 12.8643 33.3821 13.7303C33.285 13.805 33.1882 13.879 33.0918 13.9517C34.3308 14.0402 35.5654 13.6709 36.5572 12.9059C37.6586 12.0564 38.3654 10.7929 38.5145 9.40802V9.40752Z" fill="#E88E49"/>
<path d="M32.5904 3.69064C31.2452 4.03469 30.0976 4.91511 29.4142 6.12677C28.7954 7.22297 28.6049 8.5055 28.8708 9.72731C28.9307 9.61701 28.9921 9.50654 29.0541 9.39524C29.7499 8.15995 30.503 7.02849 31.1399 6.26303C30.8158 7.20716 30.239 8.44045 29.5435 9.67607C29.4836 9.78254 29.4237 9.88835 29.3621 9.99333C30.5378 9.59105 31.5312 8.7687 32.1473 7.67582C32.831 6.46317 32.9905 5.02391 32.5902 3.69031V3.69064H32.5904Z" fill="#A4C752"/>
<path d="M25.3545 0.819757C24.2315 1.63812 23.4897 2.88039 23.3007 4.26008C23.131 5.50785 23.4267 6.77058 24.1238 7.80772C24.1388 7.68261 24.1542 7.55717 24.1719 7.43139C24.3629 6.02575 24.646 4.69464 24.9554 3.74717C25.0022 4.74505 24.9203 6.10444 24.7298 7.51059C24.7128 7.63187 24.696 7.75282 24.6784 7.87277C25.6225 7.06272 26.2423 5.93042 26.4123 4.68715C26.6004 3.30696 26.2182 1.9098 25.3545 0.819092V0.819757Z" fill="#E88E49"/>
<path d="M16.7519 1.00946C16.0582 2.21563 15.8853 3.65305 16.2733 4.98998C16.6243 6.19981 17.4073 7.23179 18.4651 7.8951C18.4279 7.77416 18.3919 7.65304 18.3562 7.53109C17.9596 6.16937 17.6777 4.83859 17.5759 3.84654C18.0238 4.7386 18.5011 6.01431 18.8982 7.37587C18.9324 7.49382 18.9656 7.61128 18.9981 7.72824C19.5314 6.60276 19.6378 5.31573 19.2885 4.11073C18.9 2.77379 17.9837 1.65347 16.7517 1.00996V1.00946H16.7519Z" fill="#A4C752"/>
<path d="M9.66299 4.18739C9.4622 5.56475 9.83043 6.96507 10.6829 8.06427C11.4544 9.05881 12.5612 9.72861 13.7882 9.95388C13.7095 9.85555 13.6312 9.75606 13.5539 9.65608C12.684 8.53642 11.9326 7.40395 11.4734 6.5192C12.2174 7.18318 13.1307 8.19204 14.0004 9.31119C14.0751 9.40769 14.1493 9.50468 14.2225 9.60134C14.3044 8.35857 13.9304 7.12279 13.1614 6.1314C12.3088 5.03237 11.045 4.3298 9.66299 4.18689V4.18739Z" fill="#E88E49"/>
<path d="M3.99219 10.1532C4.34216 11.5007 5.22565 12.646 6.4377 13.3258C7.53475 13.9404 8.81501 14.1244 10.0327 13.8528C9.92169 13.7928 9.81067 13.7319 9.70015 13.6703C8.4642 12.9796 7.33247 12.2293 6.56548 11.5944C7.50903 11.915 8.74216 12.4875 9.97811 13.1786C10.0848 13.2381 10.19 13.2983 10.2954 13.3587C9.88767 12.1822 9.06276 11.1906 7.97019 10.5774C6.7578 9.89794 5.3204 9.74455 3.99252 10.1532H3.99219Z" fill="#A4C752"/>
<path d="M1.13672 17.5726C1.9671 18.6887 3.21533 19.4167 4.59333 19.5888C5.84072 19.7437 7.09592 19.4319 8.12179 18.7207C7.99666 18.7067 7.87138 18.6917 7.74543 18.6766C6.34071 18.5026 5.01084 18.2354 4.06131 17.9362C5.05598 17.8772 6.41306 17.9421 7.81778 18.1159C7.93908 18.1311 8.05972 18.147 8.1797 18.1627C7.35994 17.2268 6.22322 16.6194 4.9813 16.4644C3.60264 16.2925 2.21369 16.693 1.13672 17.5726Z" fill="#E88E49"/>
<path d="M2.26367 25.292C3.29136 25.9056 4.52449 26.0716 5.67763 25.7529C6.72059 25.4646 7.61718 24.8008 8.19931 23.8962C8.09526 23.9263 7.99022 23.9561 7.88551 23.9856C6.71046 24.311 5.56429 24.5384 4.71051 24.6144C5.48298 24.2384 6.58435 23.8412 7.75873 23.5154C7.86029 23.4871 7.96118 23.4602 8.06224 23.4331C7.10226 22.9594 5.99774 22.8518 4.95827 23.1391C3.80479 23.4583 2.83137 24.2359 2.26367 25.292Z" fill="#A4C752"/>
<path d="M40.2397 24.3293C39.6002 23.4702 38.6397 22.9097 37.579 22.7774C36.6188 22.6576 35.6521 22.8982 34.8632 23.4456C34.9591 23.456 35.0552 23.4675 35.1522 23.4795C36.2335 23.6136 37.2574 23.8196 37.9882 24.0496C37.2224 24.0947 36.1779 24.0452 35.0968 23.9111C35.0031 23.8999 34.911 23.8876 34.8184 23.8751C35.4488 24.5957 36.3241 25.0632 37.2805 25.1823C38.3417 25.3149 39.4108 25.0069 40.2397 24.3293Z" fill="#A4C752"/>
<path d="M41.2365 12.6701C40.4499 12.4366 39.602 12.5351 38.8901 12.9421C38.2454 13.3106 37.7617 13.9033 37.5273 14.6027C37.5912 14.5655 37.6558 14.528 37.7208 14.4903C38.4465 14.075 39.17 13.7298 39.7246 13.5348C39.2746 13.9155 38.6101 14.3657 37.8835 14.7814C37.8207 14.8174 37.7587 14.853 37.6963 14.8876C38.414 15.0401 39.1659 14.924 39.8084 14.5568C40.5216 14.1499 41.0371 13.4685 41.2365 12.6701Z" fill="#046AAF"/>
<path d="M36.1351 5.89594C35.316 5.93137 34.5465 6.30171 34.005 6.91893C33.5151 7.47826 33.2505 8.19664 33.2559 8.93498C33.3046 8.87858 33.353 8.82152 33.4026 8.76529C33.9536 8.13542 34.5259 7.57309 34.9872 7.20758C34.685 7.71417 34.2031 8.35702 33.6519 8.98706C33.6044 9.04162 33.5563 9.09553 33.5085 9.1486C34.2368 9.05809 34.9109 8.7034 35.3986 8.14656C35.9401 7.52801 36.2059 6.7158 36.1351 5.89594Z" fill="#046AAF"/>
<path d="M29.4406 1.5481C28.6689 1.82826 28.0455 2.41155 27.7133 3.1632C27.4124 3.84348 27.3742 4.60844 27.6001 5.31118C27.6293 5.24247 27.6592 5.17409 27.6892 5.10555C28.0272 4.33942 28.4047 3.63053 28.7358 3.14373C28.5989 3.71754 28.3309 4.47518 27.9925 5.2423C27.964 5.30868 27.9338 5.3739 27.9043 5.43945C28.5723 5.13449 29.1095 4.59396 29.4085 3.91651C29.7414 3.16453 29.7527 2.30873 29.4406 1.5481Z" fill="#B52E71"/>
<path d="M21.1072 0C20.5598 0.612235 20.285 1.42211 20.3463 2.24198C20.4026 2.98365 20.7297 3.67607 21.2604 4.18848C21.2539 4.11428 21.2479 4.03992 21.2416 3.96472C21.1781 3.12905 21.1767 2.32566 21.2388 1.74038C21.3888 2.31052 21.5099 3.10609 21.5738 3.94126C21.5793 4.01346 21.5841 4.08534 21.5894 4.15637C22.034 3.57159 22.252 2.8409 22.1961 2.10173C22.1346 1.2812 21.7411 0.52223 21.1072 0Z" fill="#B52E71"/>
<path d="M12.9883 1.78406C12.674 2.54386 12.681 3.39899 13.0102 4.15197C13.3076 4.83392 13.8449 5.37811 14.5143 5.68589C14.484 5.61784 14.4531 5.54963 14.4236 5.48142C14.0874 4.71397 13.8213 3.95599 13.6866 3.38252C14.0167 3.87115 14.393 4.5817 14.7291 5.34899C14.7578 5.41488 14.7861 5.48159 14.8143 5.54697C15.0412 4.84756 15.0058 4.08576 14.7095 3.40698C14.3809 2.653 13.7586 2.06672 12.9883 1.78406Z" fill="#B52E71"/>
<path d="M6.15039 6.63397C6.24929 7.45 6.67593 8.19018 7.33241 8.68362C7.92566 9.13049 8.66079 9.33945 9.39509 9.27689C9.33468 9.23297 9.27528 9.18872 9.21454 9.14346C8.54612 8.64087 7.94208 8.11232 7.54332 7.68092C8.06986 7.94312 8.74708 8.37584 9.41566 8.87728C9.47408 8.9212 9.53066 8.96462 9.58775 9.00804C9.44222 8.287 9.03681 7.64099 8.44523 7.19613C7.78925 6.70268 6.96036 6.49971 6.15039 6.63314V6.63397Z" fill="#B52E71"/>
<path d="M1.81641 13.4575C2.1093 14.2255 2.70155 14.8409 3.45709 15.1608C4.14028 15.4504 4.90412 15.4761 5.60158 15.2376C5.53255 15.2094 5.46368 15.1806 5.39465 15.1518C4.6245 14.8262 3.91144 14.4594 3.42042 14.1366C3.99525 14.2637 4.75543 14.5191 5.52591 14.8452C5.59245 14.873 5.6585 14.9012 5.72405 14.93C5.40842 14.2659 4.86031 13.7372 4.17928 13.4484C3.42357 13.1281 2.57012 13.1314 1.81657 13.4578V13.4575H1.81641Z" fill="#046AAF"/>
<path d="M0.625332 21.7926C1.20547 22.3742 1.99735 22.6925 2.81712 22.6747C3.55888 22.6589 4.26647 22.3688 4.80529 21.8655C4.73111 21.8682 4.65644 21.8706 4.58126 21.8725C3.74574 21.8913 2.94539 21.8485 2.36575 21.755C2.94174 21.6354 3.74009 21.5574 4.57579 21.5386C4.64847 21.5372 4.71949 21.5358 4.79085 21.5353C4.23261 21.0581 3.51624 20.8004 2.77762 20.8154C1.95703 20.8337 1.17958 21.1864 0.625 21.7923L0.625332 21.7926Z" fill="#046AAF"/>
<path d="M42.6376 21.1721C42.0729 20.5755 41.2898 20.2361 40.47 20.2314C39.7273 20.2274 39.0132 20.4981 38.4609 20.9871C38.5349 20.9867 38.6095 20.9867 38.685 20.9864C39.5208 20.9901 40.3192 21.0541 40.8968 21.1634C40.3182 21.2669 39.517 21.3238 38.6815 21.3198C38.6091 21.3201 38.5369 21.3186 38.4658 21.318C39.0119 21.8098 39.7205 22.0864 40.4597 22.0906C41.2808 22.0951 42.0677 21.7632 42.6376 21.1721Z" fill="#046AAF"/>
<path d="M28.0772 18.3235C27.3527 18.056 26.5506 18.0964 25.8559 18.4358C25.2282 18.7429 24.7378 19.2704 24.4746 19.9135C24.537 19.8822 24.5997 19.8509 24.6636 19.8198C25.3704 19.4734 26.0715 19.1931 26.6045 19.0442C26.1584 19.3739 25.5068 19.7567 24.7997 20.1031C24.7383 20.1324 24.6774 20.1622 24.6162 20.191C25.2813 20.3778 25.9956 20.3149 26.6214 20.0093C27.3156 19.6699 27.8414 19.0607 28.0772 18.3235Z" fill="#046AAF"/>
<path d="M14.8267 18.549C15.1506 19.252 15.7463 19.7919 16.4765 20.0441C17.1371 20.2729 17.8565 20.2467 18.4958 19.9789C18.4291 19.9563 18.3626 19.9341 18.2957 19.9115C17.5515 19.655 16.8586 19.3562 16.3763 19.0842C16.9242 19.167 17.655 19.358 18.3996 19.6147C18.4633 19.6368 18.5269 19.6593 18.5911 19.6818C18.2522 19.0778 17.7031 18.6163 17.0445 18.3891C16.3142 18.1367 15.5128 18.1941 14.8262 18.5496L14.8267 18.549Z" fill="#046AAF"/>
<path d="M18.6413 14.5923C18.3744 15.3185 18.4151 16.1225 18.7535 16.8186C19.0595 17.4483 19.5862 17.9403 20.2272 18.2038C20.1963 18.1408 20.165 18.0784 20.1338 18.015C19.7883 17.3061 19.5093 16.6032 19.3601 16.0686C19.689 16.5155 20.0709 17.1697 20.4164 17.8787C20.4462 17.9394 20.4753 18.001 20.5043 18.0617C20.691 17.3948 20.6284 16.6792 20.3238 16.0517C19.9849 15.3551 19.3774 14.8279 18.6419 14.5923H18.6413Z" fill="#046AAF"/>
<path d="M24.1306 14.4991C23.4293 14.823 22.8908 15.4211 22.6391 16.1527C22.4114 16.8151 22.4365 17.5358 22.7045 18.1767C22.7267 18.1101 22.749 18.0438 22.7717 17.9762C23.0276 17.2304 23.3258 16.5353 23.5968 16.052C23.5146 16.601 23.3233 17.334 23.0674 18.0802C23.0455 18.1451 23.0229 18.2085 23.0007 18.2725C23.6026 17.9326 24.0632 17.3823 24.2896 16.7223C24.5418 15.9901 24.4841 15.1864 24.1301 14.4983L24.1306 14.4991Z" fill="#046AAF"/>
</svg>
