<svg width="18" height="36" viewBox="0 0 18 36" fill="none" xmlns="http://www.w3.org/2000/svg">
<g clip-path="url(#clip0_163797_11581)">
<path d="M17.8233 0.176025H0.185547V17.5578H17.8233V0.176025Z" fill="white"/>
<path d="M8.63007 18.3728H0.110352V26.7689H8.63007V18.3728Z" fill="white"/>
<path d="M17.8547 18.3728H9.33496V26.7689H17.8547V18.3728Z" fill="white"/>
<path d="M8.63007 27.5391H0.110352V35.9351H8.63007V27.5391Z" fill="white"/>
<path d="M17.8547 27.5391H9.33496V35.9351H17.8547V27.5391Z" fill="white"/>
<path d="M0.00878906 18.2727V26.8689H8.73131V18.2727H0.00878906ZM6.5155 23.0374C6.5155 24.7992 5.57285 25.5152 4.31213 25.5152C3.11929 25.5152 2.22026 24.8515 2.22026 23.0628V19.6814H2.98149V23.0875C2.98149 24.3647 3.55985 24.9113 4.33813 24.9113C5.19296 24.9113 5.75485 24.3488 5.75485 23.0875V19.6814H6.51522V23.0374H6.5155Z" fill="#0A69B1"/>
<path d="M9.26855 18.2727V26.8689H17.9905V18.2727H9.26855ZM15.8177 25.442H15.0571L13.2079 22.5298C12.8023 21.8904 12.414 21.2344 12.128 20.6138L12.1014 20.622C12.1459 21.346 12.1543 22.0347 12.1543 22.989V25.4423H11.4445V19.7016H12.2748L14.1326 22.6058C14.557 23.2777 14.9011 23.8742 15.1689 24.4703L15.1955 24.4626C15.1264 23.6957 15.1097 22.9979 15.1097 22.1119V19.7016H15.818V25.442H15.8177Z" fill="#0A69B1"/>
<path d="M13.4868 29.3872C13.1589 29.3872 12.9084 29.4214 12.7793 29.447V31.6776C12.9422 31.7203 13.1589 31.7371 13.401 31.7371C14.3171 31.7371 14.8616 31.2947 14.8616 30.52C14.8616 29.7528 14.3171 29.3872 13.4868 29.3872Z" fill="#0A69B1"/>
<path d="M9.26855 27.3955V35.9914H17.9905V27.3955H9.26855ZM15.1634 31.6694C14.7662 32.0851 14.1179 32.2986 13.3841 32.2986C13.1585 32.2986 12.9516 32.2903 12.7789 32.2482V34.5472H12.0263V28.8845C12.3897 28.8162 12.8647 28.7649 13.4693 28.7649C14.2135 28.7649 14.7572 28.9354 15.1027 29.2415C15.4222 29.514 15.6207 29.9308 15.6207 30.4427C15.621 30.9614 15.4662 31.3705 15.1634 31.6694Z" fill="#0A69B1"/>
<path d="M3.80857 29.3457C3.4203 29.3457 3.12649 29.379 2.92773 29.4217V33.9604C3.11667 33.9943 3.39285 33.9943 3.68781 33.9943C5.29492 34.0028 6.16795 33.1089 6.16795 31.5587C6.17661 30.1884 5.39805 29.3457 3.80857 29.3457Z" fill="#0A69B1"/>
<path d="M0 27.4041V36H8.72223V27.4041H0ZM6.12451 33.7648C5.571 34.3018 4.67225 34.5907 3.54066 34.5907C2.99639 34.5907 2.55554 34.5739 2.1664 34.5233V28.8774C2.63354 28.8079 3.17781 28.7572 3.7738 28.7572C4.85425 28.7572 5.62271 28.9961 6.13376 29.4639C6.65983 29.933 6.9623 30.6055 6.9623 31.5336C6.96201 32.4697 6.65954 33.2373 6.12451 33.7648Z" fill="#0A69B1"/>
<path d="M10.9417 6.38257L10.9301 6.41104C10.7094 6.63766 10.467 6.87197 10.2559 7.10343C10.2703 7.1319 10.2946 7.15781 10.3209 7.17204C10.3304 7.1151 10.361 7.06556 10.3662 7.00663C10.4234 6.92862 10.5104 6.97816 10.5849 6.99496C10.6999 6.96877 10.8076 7.02087 10.9252 7.01859C11.0119 7.06101 11.0191 7.16976 11.0983 7.21247C11.1196 7.24322 11.1035 7.2788 11.074 7.30243C11.0983 7.47952 11.1844 7.25489 11.2759 7.29759C11.3138 7.31154 11.362 7.30699 11.3906 7.34713C11.4048 7.42058 11.4964 7.40635 11.5013 7.47724C11.4941 7.51254 11.4556 7.52194 11.4314 7.54101C11.453 7.6119 11.3568 7.6566 11.3909 7.73233C11.5302 7.75824 11.5348 7.59994 11.5995 7.52905C11.5634 7.40635 11.5374 7.28108 11.4655 7.17233C11.386 7.15581 11.338 7.06357 11.2592 7.04706C11.1055 6.98784 11.2829 6.89332 11.2638 6.80364C11.182 6.65189 11.0526 6.51695 10.9417 6.38257Z" fill="#0A69B1"/>
<path d="M11.8399 8.89506C11.7388 9.21165 11.6212 9.5214 11.4196 9.79785C11.3404 9.89721 11.2636 10.0344 11.1602 10.0862L11.3786 10.2756C11.3907 10.2636 11.3838 10.2448 11.3858 10.2283C11.3858 10.2001 11.4002 10.1668 11.4363 10.1717C11.5418 10.1694 11.5441 10.2804 11.6039 10.3371C11.5921 10.427 11.6712 10.4979 11.6449 10.5808C12.2493 9.95187 12.5515 9.18147 12.6066 8.32794L12.6399 8.29008C12.4246 8.31143 12.1967 8.29719 11.9734 8.29976L11.9208 8.28296C11.9353 8.4273 11.8963 8.56681 11.887 8.70859L11.9662 8.79343C11.9878 8.82674 11.9806 8.87599 11.9491 8.90218C11.9165 8.92353 11.8731 8.92097 11.8399 8.89506Z" fill="#0A69B1"/>
<path d="M10.9998 11.1428L11.0336 11.0978C11.1778 10.9868 11.3335 10.8828 11.4606 10.7456H11.4773C11.4485 10.7362 11.4126 10.7644 11.3788 10.7502C11.3118 10.7197 11.3 10.6605 11.3 10.5919L11.0047 10.2918L10.9883 10.2468C10.9666 10.3038 10.9235 10.3388 10.8799 10.3818C10.8828 10.4194 10.8684 10.4763 10.9137 10.5022C11.0093 10.5329 11.1341 10.5944 11.1555 10.7052C11.1174 10.8091 10.9157 10.9039 11.0405 11.0175C11.0816 11.0742 10.9833 11.0955 10.9998 11.1428Z" fill="#0A69B1"/>
<path d="M9.27807 9.89491C9.34047 9.90687 9.29713 9.97292 9.3422 9.99655C9.44071 9.9658 9.51554 10.0791 9.59441 10.0085C9.58978 9.89719 9.7169 9.90687 9.78594 9.8784C9.89399 9.81491 10.0165 9.7295 10.0043 9.58772L9.98788 9.56665C9.91334 9.56665 9.87521 9.62331 9.82003 9.668C9.75301 9.70587 9.71921 9.5974 9.66403 9.62331C9.66634 9.63498 9.67847 9.63982 9.6883 9.64466C9.70245 9.66117 9.70736 9.69676 9.6883 9.71327C9.60625 9.78672 9.5684 9.67768 9.49127 9.6848V9.71327C9.49387 9.72978 9.48665 9.75569 9.46238 9.7463C9.41443 9.668 9.3162 9.69676 9.26796 9.62815C9.23676 9.61163 9.20816 9.63299 9.18649 9.65178C9.17031 9.68736 9.09347 9.64722 9.11196 9.70843C9.05244 9.72978 9.04522 9.79327 9.00189 9.83142C8.92793 9.81946 8.89413 9.90231 8.82422 9.90003C8.83173 9.91427 8.82422 9.9379 8.84617 9.94018C8.88922 9.95925 8.93226 9.96381 8.98542 9.95697C9.05735 9.84281 9.17753 9.93733 9.27807 9.89491Z" fill="#0A69B1"/>
<path d="M8.84578 11.9938L8.86976 11.9582L8.79551 11.9773C7.86008 11.9135 7.0324 11.5875 6.34888 10.9373L6.34195 10.9657L5.84766 11.4551C6.59589 12.0931 7.44032 12.5048 8.40435 12.6344C8.55775 12.6605 8.73282 12.6463 8.8816 12.6916L8.84578 12.6344V11.9938Z" fill="#0A69B1"/>
<path d="M9.28506 7.30691C9.34024 7.33766 9.37115 7.28101 9.4168 7.26905C9.4844 7.27617 9.5364 7.33282 9.57771 7.37524C9.62018 7.39432 9.6612 7.36812 9.69991 7.35417C9.72649 7.15802 9.9758 7.1862 10.05 7.00171L10.0044 7.01851C9.98562 6.99232 9.93738 7.00428 9.94027 6.96157C9.98071 6.92399 10.0336 6.86477 10.0838 6.84826C9.86833 6.71588 9.64502 6.60257 9.40033 6.54107C9.30442 6.51972 9.20359 6.51716 9.1123 6.48413C9.15824 6.61908 9.1175 6.81751 9.14668 6.97353L9.31886 7.03047C9.36971 6.94762 9.47978 6.93111 9.52744 6.8531C9.55951 6.82719 9.59475 6.8531 9.61902 6.88157C9.62624 6.94534 9.60949 7.00912 9.59013 7.07061C9.52513 7.19816 9.37115 7.21467 9.28506 7.30691Z" fill="#0A69B1"/>
<path d="M10.8269 9.69631C10.8365 9.7746 10.7406 9.8099 10.7527 9.88791C10.7215 9.92293 10.6686 9.92805 10.6207 9.92805C10.4311 9.85716 10.2318 9.81218 10.0209 9.79311C10.0019 9.80022 9.98972 9.81702 9.99261 9.83809C10.0787 9.88307 10.1841 9.88506 10.2754 9.92293C10.3563 9.94428 10.4121 10.0436 10.5152 10.0129C10.6013 9.96563 10.7452 10.0411 10.8027 9.9514C10.7931 9.864 10.8697 9.79994 10.9084 9.72478L10.9373 9.71766C10.9852 9.76748 10.9829 9.84065 11.0043 9.89474C11.0716 9.82385 11.1245 9.74585 11.1843 9.67268C11.3423 9.44549 11.4769 9.20235 11.5344 8.94214C11.4697 8.9447 11.4047 8.95637 11.3449 8.97516C11.2759 8.97061 11.1912 9.01047 11.1317 8.96349C11.1098 8.9447 11.0956 8.97289 11.0979 8.99196C11.0736 9.02726 11.05 9.07225 10.9948 9.05573C10.9512 9.03666 10.9512 8.99196 10.937 8.95865C10.9393 8.98484 10.9298 9.00819 10.9249 9.03182C10.8746 9.08363 10.8578 9.13346 10.822 9.1904C10.7715 9.24449 10.69 9.22541 10.6374 9.2704C10.6276 9.38371 10.5005 9.36008 10.4288 9.39595C10.4236 9.41019 10.4407 9.41246 10.4479 9.42414C10.4814 9.43353 10.5271 9.43353 10.5508 9.40079C10.6519 9.4267 10.6305 9.30143 10.6877 9.25901C10.7382 9.25189 10.7862 9.20919 10.8388 9.2425C10.8914 9.30599 10.9035 9.39823 10.8957 9.48108C10.8388 9.53802 10.8677 9.63054 10.8269 9.69631Z" fill="#0A69B1"/>
<path d="M9.71716 9.45282C9.77465 9.39388 9.89656 9.39616 9.90176 9.31104C9.81769 9.29908 9.77494 9.34406 9.71716 9.38905C9.70965 9.40784 9.68307 9.44115 9.71716 9.45282Z" fill="#0A69B1"/>
<path d="M9.124 11.7385C9.30109 11.6796 9.50736 11.689 9.69976 11.6582C9.66105 11.6437 9.62292 11.6343 9.59403 11.5967C9.48136 11.5896 9.42849 11.4737 9.39267 11.3861C9.37592 11.3223 9.41867 11.2705 9.44554 11.2161C9.39787 11.1193 9.2488 11.1902 9.16214 11.1549C9.13816 11.1358 9.1214 11.1073 9.08789 11.1028L9.124 11.1549C9.124 11.3488 9.14798 11.5472 9.124 11.7385Z" fill="#0A69B1"/>
<path d="M11.6623 10.8877C11.595 11.0178 11.4465 11.1004 11.3339 11.1997C11.1782 11.3535 10.9239 11.3865 10.8448 11.6088C10.761 11.6843 10.7321 11.8024 10.6145 11.8451C10.5715 11.9585 10.4487 11.9516 10.3791 12.0342C10.1777 12.2113 10.0483 11.9209 9.8663 11.885L9.49883 11.9488C9.37171 11.9488 9.24489 11.9938 9.125 11.9536C9.14176 12.1945 9.14176 12.4544 9.125 12.6958L9.17093 12.6674C10.3268 12.6178 11.324 12.1854 12.1806 11.4195L11.6745 10.9444L11.6623 10.8877Z" fill="#0A69B1"/>
<path d="M11.2422 8.2666L11.3167 8.33977C11.391 8.38959 11.3404 8.49607 11.4196 8.53849C11.5129 8.58604 11.5464 8.69223 11.5874 8.77251C11.6019 8.75145 11.6019 8.72525 11.6091 8.7039C11.6426 8.57408 11.6374 8.42746 11.6784 8.29991C11.5348 8.30674 11.3693 8.32098 11.2422 8.2666Z" fill="#0A69B1"/>
<path d="M9.87768 5.7092C9.63559 5.62407 9.36981 5.58848 9.10547 5.54834L9.12945 5.60044L9.12482 6.24101L9.18694 6.22906C9.58532 6.28343 9.94961 6.4087 10.2642 6.6618L10.2807 6.71134C10.3887 6.56216 10.5514 6.43461 10.6788 6.29283L10.799 6.22422L10.7412 6.20059C10.4774 5.98336 10.1897 5.81767 9.87768 5.7092Z" fill="#0A69B1"/>
<path d="M8.74338 9.83827C8.76043 9.77449 8.73385 9.69392 8.76736 9.63983C8.79134 9.58773 8.85605 9.59001 8.90401 9.59969C8.93261 9.59741 8.94994 9.56182 8.93261 9.53819C8.86327 9.52424 8.89476 9.44851 8.87049 9.40581C8.87281 9.38218 8.91354 9.38673 8.90401 9.35599C8.85605 9.31812 8.92827 9.2757 8.88725 9.23527C8.89881 9.22759 8.90805 9.21392 8.91961 9.20538C8.77429 9.26545 8.61974 9.17862 8.49147 9.12196C8.42907 9.08637 8.33807 9.05107 8.32362 8.97534C8.2202 9.14104 8.02375 9.29221 7.87988 9.44567C8.13642 9.6535 8.42416 9.78389 8.74338 9.83827Z" fill="#0A69B1"/>
<path d="M5.41687 8.34678L5.46916 8.7818C5.49112 8.94977 5.56565 9.11035 5.56045 9.27576C5.58732 9.24017 5.57028 9.16956 5.63499 9.16244C5.60841 9.11034 5.68525 9.06565 5.64221 9.02066C5.66359 8.90735 5.67803 8.79148 5.77886 8.70892C5.90106 8.70408 5.91059 8.5455 6.03279 8.53838C6.09519 8.53611 6.13361 8.61867 6.16019 8.64714C6.08306 8.55518 6.08797 8.40372 6.10733 8.2998L6.05446 8.32343C5.83201 8.31859 5.59888 8.33739 5.3877 8.30692L5.41687 8.34678Z" fill="#0A69B1"/>
<path d="M8.17412 8.81724L8.09265 8.7771C8.0785 8.83632 8.03747 8.88813 7.99414 8.93084L8.00165 8.93568C8.05914 8.89525 8.09987 8.8218 8.17412 8.81724Z" fill="#0A69B1"/>
<path d="M6.19801 10.767C6.11654 10.7101 6.04432 10.6178 5.97498 10.5398C5.89583 10.5188 5.81436 10.4644 5.77334 10.3889C5.74965 10.3627 5.77131 10.3155 5.74445 10.2967L5.71556 10.332C5.63207 10.3724 5.60058 10.287 5.54309 10.2517C5.46827 10.2116 5.50467 10.0721 5.40384 10.0983C5.36542 10.0957 5.35329 10.0533 5.32931 10.0299C5.236 10.0393 5.21231 9.93768 5.16146 9.88814C5.15193 9.90921 5.16146 9.93768 5.13257 9.95163C5.03666 9.97298 5.00315 9.85711 4.93844 9.80985C4.92139 9.81697 4.90955 9.83576 4.88528 9.8312C4.82779 9.78138 4.78937 9.71049 4.78706 9.63248C4.70819 9.5448 4.74401 9.40558 4.75846 9.2991C4.7729 9.27063 4.81364 9.25412 4.80642 9.21882C4.82808 9.16928 4.88095 9.16472 4.93122 9.16216C4.95028 9.17156 4.96964 9.19063 4.97946 9.20686C5.01037 9.18778 5.08 9.20942 5.05371 9.14109C5.09444 9.1055 5.15453 9.09355 5.20971 9.08415C5.24784 9.1317 5.2672 9.18579 5.31747 9.23077L5.28395 9.17896C5.22618 8.94721 5.18082 8.71063 5.16897 8.46009C5.17129 8.44586 5.13777 8.43902 5.15684 8.42479L5.16175 8.43219C5.16406 8.38009 5.15944 8.33511 5.16926 8.2998L5.10426 8.32343L4.4375 8.31859C4.47592 9.07504 4.67959 9.76259 5.02511 10.3941C5.19555 10.7058 5.44487 10.9871 5.66298 11.278L6.14052 10.7912L6.19801 10.767Z" fill="#0A69B1"/>
<path d="M8.78909 11.0746C8.2061 11.0462 7.69534 10.8361 7.24207 10.5027C7.25651 10.5593 7.33307 10.5949 7.31169 10.6658C7.27067 10.7296 7.18689 10.7319 7.11929 10.7296C6.98264 10.7082 6.88211 10.8096 6.7524 10.8241C6.63482 10.8594 6.59437 10.7179 6.48633 10.7296C7.15309 11.3038 7.91577 11.6631 8.80786 11.7101L8.87518 11.7554L8.84629 11.6751V11.0507L8.78909 11.0746Z" fill="#0A69B1"/>
<path d="M6.96617 5.2478C6.81739 5.34944 6.68046 5.48183 6.52734 5.57179C6.70472 5.68283 6.8509 5.86731 7.01153 6.01365L7.02857 6.05891C7.43649 5.67343 7.93251 5.4488 8.46783 5.34033C8.59466 5.32837 8.72177 5.28595 8.84657 5.31186C8.83704 5.08723 8.81768 4.85321 8.84166 4.63086C8.14601 4.67129 7.52229 4.8794 6.96617 5.2478Z" fill="#0A69B1"/>
<path d="M7.6322 8.70877C7.60822 8.69681 7.60562 8.69937 7.58656 8.72044C7.57471 8.72044 7.56027 8.723 7.55102 8.7156C7.55102 8.58094 7.39762 8.66122 7.33984 8.59033C7.40744 8.71304 7.44298 8.85254 7.5126 8.97553C7.55565 9.08429 7.65156 9.1697 7.69489 9.27589C7.74054 9.19105 7.83154 9.12215 7.89683 9.04414C7.90087 9.00884 7.89452 8.97781 7.87516 8.9519C7.8532 8.90236 7.87227 8.83147 7.83385 8.78905C7.77174 8.81012 7.8558 8.8719 7.82923 8.9072C7.80294 8.92371 7.77434 8.90265 7.77174 8.87873C7.71627 8.86934 7.67294 8.82179 7.65647 8.77225C7.70154 8.74378 7.64434 8.73183 7.6322 8.70877Z" fill="#0A69B1"/>
<path d="M6.39469 7.71563C6.36811 7.82894 6.38256 7.96161 6.33691 8.0678C6.42069 8.02993 6.54318 8.04417 6.63678 8.05613C6.58161 8.02766 6.62725 7.95904 6.59576 7.92118C6.58883 7.86225 6.57901 7.78879 6.63678 7.75093C6.62956 7.65385 6.73472 7.60431 6.74483 7.5169C6.77083 7.41783 6.88581 7.48388 6.94128 7.43206C6.9771 7.41299 6.9459 7.37996 6.9459 7.35406C6.99385 7.29028 7.06839 7.29256 7.12559 7.25697C7.16661 7.19548 7.21919 7.12943 7.2865 7.09128C7.43037 7.09612 7.43268 6.89768 7.56933 6.89284C7.38241 6.75334 7.20503 6.56686 7.03921 6.40601C6.70901 6.79604 6.48338 7.22651 6.39469 7.71563Z" fill="#0A69B1"/>
<path d="M6.34926 5.77032L6.09042 6.09431C5.66603 6.66884 5.4641 7.33304 5.4043 8.05618L6.06153 8.04422L6.12393 8.06785C6.09764 8.05134 6.10457 8.02287 6.09504 7.99952C6.1479 7.32592 6.38769 6.72549 6.86031 6.22414C6.67802 6.06812 6.50786 5.90299 6.35389 5.72534L6.34926 5.77032Z" fill="#0A69B1"/>
<path d="M6.48611 8.67532C6.49333 8.63261 6.42862 8.62094 6.43555 8.57824C6.4812 8.49083 6.43786 8.34905 6.55573 8.3109C6.47195 8.32514 6.39742 8.34165 6.3252 8.28955L6.36131 8.34649C6.36564 8.50251 6.42833 8.6514 6.39482 8.8097C6.42111 8.76528 6.42833 8.7035 6.48611 8.67532Z" fill="#0A69B1"/>
<path d="M6.73479 8.31112L6.71601 8.43668C6.68712 8.50984 6.59381 8.45547 6.55048 8.50529C6.51956 8.55255 6.55308 8.60209 6.57936 8.63995C6.51205 8.79141 6.73046 8.83867 6.72843 8.97561C6.79517 9.06074 6.71861 9.18373 6.81452 9.25946C6.8359 9.41291 6.79315 9.62103 6.92979 9.74145L6.95377 9.88808C6.98237 9.98943 6.83128 9.96324 6.85035 10.0535C6.87923 10.0393 6.88646 10.0771 6.88906 10.0865V10.082C7.07366 9.87156 7.28715 9.64921 7.50555 9.46245L7.41426 9.37248C7.24382 9.12195 7.10948 8.8549 7.04506 8.56166L6.97515 8.52607C6.97255 8.6018 6.93672 8.66073 6.94192 8.73646L6.91766 8.76493C6.86739 8.76237 6.8359 8.72251 6.79343 8.69632C6.78361 8.67041 6.75703 8.62771 6.79806 8.60664C6.82232 8.60436 6.83908 8.6112 6.85555 8.62315C6.87721 8.59725 6.86768 8.55938 6.87952 8.52636C6.88675 8.4697 6.83619 8.4176 6.87201 8.36806C6.91795 8.36322 6.95146 8.4176 6.97081 8.44835C7.01646 8.4623 7.05228 8.42472 7.0907 8.40821C7.0907 8.36806 7.14819 8.31368 7.0855 8.28977C7.1193 8.19781 7.09533 8.10073 7.08088 8.01105C7.05459 7.93304 6.96619 7.94728 6.90119 7.95411C6.70706 8.01589 6.9321 8.15995 6.88415 8.2781C6.85728 8.34671 6.78534 8.28265 6.73479 8.31112Z" fill="#0A69B1"/>
<path d="M8.37641 10.1906C8.42957 10.1345 8.49024 10.0983 8.5561 10.0747C8.34377 10.1171 8.15483 9.96595 7.97341 9.8831C7.86999 9.80737 7.73594 9.74616 7.67325 9.63257C7.53227 9.80282 7.36414 9.98019 7.19629 10.1148C7.27053 10.1194 7.31156 10.2 7.37338 10.2353C7.73334 10.5308 8.18199 10.6726 8.59915 10.7742L8.48359 10.7221C8.3975 10.625 8.27501 10.5117 8.27039 10.3771C8.35706 10.3486 8.34724 10.2544 8.37641 10.1906Z" fill="#0A69B1"/>
<path d="M11.7363 5.55538C11.7866 5.56734 11.801 5.62627 11.8346 5.66186C12.0096 5.75382 12.0553 5.9383 12.2087 6.04222C12.2945 6.21959 12.4941 6.35624 12.5013 6.55952C12.7099 7.01362 12.8515 7.49362 12.8656 8.02772L12.8465 8.05619C12.8685 8.05619 12.8879 8.04679 12.904 8.03483L13.5948 8.02288C13.5491 7.95654 13.5685 7.85974 13.5569 7.77946C13.4653 6.72778 13.0098 5.82727 12.2948 5.03296C12.1633 5.20776 11.9833 5.3709 11.8181 5.53887L11.7363 5.55538Z" fill="#0A69B1"/>
<path d="M5.17391 8.06315L5.15687 7.97091C5.2028 7.21702 5.44721 6.54541 5.87679 5.94527C5.98455 5.82484 6.06341 5.67338 6.19804 5.5837C6.04203 5.43936 5.87939 5.27138 5.71559 5.11309L5.69912 5.04932C5.0156 5.79865 4.59353 6.65445 4.47133 7.63069C4.44475 7.77247 4.4618 7.91909 4.43262 8.06315C4.6724 8.04407 4.93385 8.04407 5.17391 8.06315Z" fill="#0A69B1"/>
<path d="M6.38324 5.40626L6.39537 5.37352C7.09565 4.74462 7.9109 4.39957 8.84633 4.35686L8.82438 4.30021L8.81715 3.7328L8.8368 3.66675C7.87248 3.70461 7.0162 4.02832 6.25641 4.56754C6.10995 4.66661 5.98023 4.81779 5.83203 4.9032H5.85341C6.04234 5.04014 6.22261 5.2363 6.38324 5.40626Z" fill="#0A69B1"/>
<path d="M8.8461 6.50317C8.46014 6.55271 8.1048 6.68282 7.82227 6.97834H7.87513C7.93233 7.03499 8.02622 7.02304 8.06956 7.09905C8.09094 7.14147 8.02825 7.13663 8.03085 7.17222C8.04298 7.18161 8.05973 7.18389 8.06956 7.2004C8.11462 7.21692 8.10509 7.1745 8.12185 7.15542C8.18194 7.09649 8.19176 7.21208 8.24925 7.21208C8.28998 7.18617 8.34718 7.18361 8.37636 7.22859C8.4145 7.19528 8.49625 7.22631 8.5081 7.16482C8.58263 7.08681 8.5419 6.96638 8.65225 6.91627C8.69039 6.93763 8.64994 6.97321 8.66439 7.00624C8.73863 7.03699 8.8227 6.94474 8.8825 7.0182C8.82732 6.86474 8.84119 6.67342 8.8461 6.50317Z" fill="#0A69B1"/>
<path d="M0.00878906 0V17.7334H17.9998V0H0.00878906ZM15.4443 9.23538C15.1924 9.58755 14.8876 9.91638 14.655 10.2757C14.6813 9.99182 14.7154 9.6425 14.6022 9.3726C14.4083 8.79352 14.2379 8.20505 14.1827 7.56903L14.1896 7.32561C14.3361 7.97558 14.9838 8.42256 14.9428 9.15053C14.9572 9.32733 14.9018 9.47652 14.8685 9.63253L14.8804 9.6442L14.9093 9.61118C15.0055 9.25417 15.0534 8.87836 15.2022 8.54498C15.4154 8.06526 15.6792 7.5807 15.5717 7.00162C15.8953 7.6849 15.7967 8.59708 15.4443 9.23538ZM15.0459 5.55535C15.4706 6.12275 15.5639 7.02554 15.2545 7.67551C15.1395 7.95195 15.0578 8.24519 15.0124 8.5501C14.991 8.49829 14.9861 8.4274 14.9673 8.36818C14.7989 7.73216 14.1873 7.27863 13.9357 6.67792C13.8565 6.48176 13.7895 6.27877 13.7508 6.06581C14.0198 6.55521 14.6813 6.80803 14.8613 7.34696C14.9356 7.48419 14.9306 7.65415 14.9766 7.80077C14.9861 7.80077 14.9959 7.79366 14.9959 7.78426C14.9165 7.22881 14.9405 6.64717 15.0173 6.09884C15.0127 5.80104 14.9841 5.51264 14.816 5.28346C14.9237 5.34495 14.9717 5.4631 15.0459 5.55535ZM14.7463 5.44659C14.8593 5.94282 14.6958 6.42767 14.7986 6.92845L14.794 6.93329C14.5201 6.40147 13.9377 6.15094 13.5373 5.7256C13.3048 5.47278 13.2039 5.16531 13.1462 4.83933C13.3764 5.3851 13.9949 5.50581 14.3503 5.96418C14.4704 6.07065 14.5086 6.21727 14.5854 6.3377L14.5973 6.32603C14.3933 5.89585 14.324 5.41129 14.1827 4.95264C14.1105 4.7542 13.9689 4.55804 13.7794 4.43278C14.2451 4.52701 14.6504 5.00701 14.7463 5.44659ZM13.4989 4.30751C13.8513 4.61698 14.0097 5.01897 14.1128 5.43463L14.1709 5.5673C13.6598 5.20574 13.197 4.7189 12.8708 4.20587L12.4725 3.809C12.8229 3.95505 13.1993 4.04245 13.4989 4.30751ZM6.82635 3.92202C7.49081 3.59804 8.21766 3.42579 9.00893 3.41156C10.8177 3.41383 12.5441 4.46096 13.331 6.1108C13.83 7.05856 13.9718 8.36334 13.6477 9.4341C13.3192 10.6987 12.2399 11.9773 10.9832 12.4975C9.56823 13.1807 7.55783 13.0102 6.29624 12.1191C4.54324 10.935 3.82592 8.89544 4.35604 6.88148C4.67729 5.68517 5.64392 4.47747 6.82635 3.92202ZM5.44025 3.87476C5.08751 4.17939 4.84282 4.56516 4.58137 4.92417C4.3465 5.21029 4.04692 5.39905 3.78056 5.64531C3.92443 5.35207 3.92906 5.00217 4.13301 4.73285C4.42306 4.23406 4.9604 4.05925 5.44025 3.87476ZM3.51161 4.93584C3.68205 4.72573 3.90017 4.57883 4.14486 4.51762C3.67021 4.83904 3.70112 5.41584 3.55003 5.89556C3.50207 6.07293 3.41829 6.23606 3.37698 6.41799L3.3894 6.42738C3.46827 6.22154 3.60752 6.02795 3.78028 5.85998C4.11828 5.55278 4.6172 5.36147 4.78273 4.90737C4.77551 5.53855 4.24077 6.03507 3.72972 6.38952C3.51854 6.57144 3.31487 6.77956 3.19989 7.01358C3.18776 6.855 3.22387 6.69443 3.21174 6.52446C3.15685 5.97357 3.11611 5.34467 3.51161 4.93584ZM2.55017 6.81998C2.53573 6.26226 2.77089 5.80588 3.10167 5.38994C3.11149 5.3851 3.11871 5.3757 3.13085 5.37798C2.76626 5.92432 3.06845 6.61187 3.0514 7.23365L3.00344 7.86939C3.01067 7.87394 3.01067 7.89302 3.02742 7.8859C3.04909 7.81529 3.054 7.73956 3.06845 7.66611C3.15454 7.15337 3.60578 6.78924 4.00128 6.4345C4.08506 6.34254 4.1593 6.24802 4.20264 6.13927C4.17144 6.39464 4.08997 6.65229 3.9825 6.88831C3.67512 7.47935 3.10658 7.96362 3.00344 8.63978C2.95289 7.99238 2.50424 7.50753 2.55017 6.81998ZM2.27428 7.61401C2.31501 7.4392 2.34622 7.25956 2.42306 7.0987C2.27659 7.83608 2.78042 8.36818 2.94596 9.00847C3.01529 9.24733 3.03205 9.5047 3.13056 9.72933C3.1398 9.73417 3.14731 9.72477 3.15425 9.71766C2.90753 9.03665 3.26258 8.40576 3.61936 7.87394C3.70603 7.72988 3.7563 7.56903 3.79934 7.40362C3.83748 7.71109 3.75861 8.06554 3.71296 8.38469C3.6263 8.79124 3.49687 9.17644 3.3842 9.57104C3.30996 9.81702 3.32903 10.0957 3.36745 10.3534L3.33134 10.3249C3.06989 9.84976 2.55162 9.47879 2.39822 8.95865C2.27197 8.54526 2.1879 8.06554 2.27428 7.61401ZM2.2503 9.05602C2.30808 9.83837 3.16176 10.2518 3.55754 10.8997C3.65114 11.0321 3.73261 11.1785 3.85712 11.2895C3.83777 11.2066 3.7589 11.1357 3.73001 11.0506C3.59134 10.779 3.54078 10.455 3.57458 10.1268C3.61301 9.72734 3.78316 9.35609 3.71816 8.93559C4.06599 9.67524 3.96054 10.5971 4.15468 11.3982C4.20495 11.5733 4.30808 11.7291 4.37539 11.897C3.66096 11.4173 2.68682 10.9612 2.37019 10.0821C2.23586 9.77887 2.22112 9.40363 2.2503 9.05602ZM2.677 10.8522C3.07538 11.7407 4.07263 11.8142 4.74258 12.3554C4.86449 12.4616 4.99391 12.5538 5.13316 12.6179L5.14038 12.6108C4.98669 12.4736 4.80931 12.3175 4.70126 12.1402C4.31039 11.6038 4.44733 10.8519 4.15468 10.2754C4.42104 10.5897 4.66313 10.9157 4.82375 11.2727C5.06382 11.8543 5.15482 12.5117 5.70892 12.951C5.10918 12.7571 4.40688 12.8115 3.87879 12.4474C3.30071 12.0977 2.78504 11.5047 2.677 10.8522ZM3.70112 12.5091C4.33899 13.2252 5.38247 12.9866 6.23384 13.1731C6.35373 13.1899 6.46408 13.2368 6.5912 13.218C6.49037 13.1543 6.3491 13.1614 6.23875 13.1044C5.5717 12.873 5.47347 12.1615 5.1112 11.6818C5.57401 11.9842 5.96286 12.3933 6.38955 12.7876C6.69664 13.0523 7.06585 13.1753 7.45441 13.2533C7.3608 13.2864 7.23831 13.277 7.13778 13.3032C6.43982 13.4731 5.66241 13.7499 4.9214 13.5016C4.44011 13.353 3.94321 12.9772 3.70112 12.5091ZM12.3696 14.1778C11.65 14.4425 10.8994 14.1658 10.3378 13.7453C10.1099 13.6032 9.90854 13.398 9.61359 13.4168C9.50756 13.4145 9.40472 13.4193 9.31343 13.4449C9.8603 13.6955 10.3664 14.0405 10.8318 14.4827C10.753 14.5704 10.6522 14.6529 10.5562 14.7284C10.1099 14.2535 9.61387 13.7971 9.05949 13.5301C8.95144 13.544 8.84831 13.6081 8.75009 13.6602C8.29913 13.9415 7.85279 14.303 7.51738 14.7449L7.22936 14.5109C7.68985 14.0525 8.19859 13.6955 8.755 13.4404C8.20813 13.2701 7.85077 13.7217 7.43563 13.9509C6.95116 14.284 6.25579 14.4403 5.6705 14.2108C5.35589 14.0926 5.0514 13.9198 4.82346 13.6388C5.28396 13.9509 5.97008 13.9839 6.49297 13.7806C7.19585 13.4802 7.92472 13.0999 8.77175 13.2818C8.90349 13.2841 9.03291 13.4142 9.15771 13.3032C9.78576 13.1423 10.4985 13.2533 11.0404 13.5369L11.5994 13.757C12.1177 13.946 12.7888 13.8942 13.2328 13.5819C13.0049 13.8635 12.6935 14.0645 12.3696 14.1778ZM13.1415 13.4449C12.3332 13.7453 11.5203 13.3763 10.7455 13.2536L10.597 13.2346V13.23C10.9662 13.1474 11.3261 13.0384 11.6211 12.7762C12.0556 12.3648 12.4413 11.942 12.9234 11.618C12.5658 12.0698 12.5279 12.7124 11.9374 13.0031C11.7915 13.0976 11.6064 13.1144 11.4558 13.1853C11.6714 13.1901 11.8678 13.1144 12.0813 13.0931C12.8729 12.9704 13.7794 13.0956 14.3338 12.4311C14.1275 12.8941 13.6119 13.2821 13.1415 13.4449ZM13.5899 12.6341C13.1776 12.7432 12.7365 12.7785 12.3355 12.9131C13.0144 12.3389 12.976 11.4503 13.4293 10.7742C13.5734 10.5829 13.693 10.3819 13.8606 10.1999C13.5853 10.746 13.7046 11.4526 13.3885 11.9819C13.266 12.1923 13.091 12.3958 12.8989 12.561C12.9616 12.5587 13.0167 12.5046 13.0716 12.469C13.5873 11.9628 14.259 11.821 14.8154 11.4102C15.0387 11.2351 15.2424 11.0059 15.3406 10.7577C15.2351 11.5967 14.3887 12.3839 13.5899 12.6341ZM14.6097 11.2044C14.2905 11.4102 13.9663 11.6015 13.6598 11.8355V11.8074C14.1301 11.0367 13.8996 9.98043 14.1899 9.13402L14.2977 8.85018C14.2379 9.37744 14.471 9.82413 14.4537 10.3537C14.4366 10.6728 14.3315 10.9564 14.1613 11.2115H14.1899C14.4205 10.9137 14.6002 10.5968 14.8688 10.3132C15.286 9.91638 15.7109 9.50983 15.7661 8.95893C15.9068 9.87823 15.3839 10.6842 14.6097 11.2044Z" fill="#0A69B1"/>
<path d="M12.8825 8.29951L12.8415 8.27075L12.8655 8.33481C12.8273 9.122 12.561 9.81696 12.1054 10.4339C12.0167 10.5381 11.9329 10.6656 11.8223 10.7388C12.0046 10.8806 12.2065 11.0933 12.3573 11.2567L12.3766 11.2211C13.1101 10.396 13.5279 9.44115 13.5738 8.33481L13.6021 8.27815L13.566 8.29467L12.8825 8.29951Z" fill="#0A69B1"/>
<path d="M8.81306 5.56709C8.20379 5.60951 7.67598 5.86004 7.21289 6.23613C7.39547 6.3614 7.55812 6.56211 7.72394 6.70646C7.73607 6.68994 7.74792 6.67315 7.76005 6.65436C7.98799 6.4935 8.22286 6.34716 8.49124 6.28083C8.61113 6.26916 8.72842 6.21222 8.85351 6.24069C8.82751 6.01862 8.82751 5.77264 8.85351 5.54346L8.81306 5.56709Z" fill="#0A69B1"/>
<path d="M9.11171 4.2956C9.11171 4.27453 9.12154 4.25546 9.13367 4.23894C9.16718 4.21987 9.19549 4.24834 9.21023 4.27197C9.21254 4.30499 9.22727 4.36165 9.19867 4.38072C9.22698 4.38528 9.24143 4.36421 9.26772 4.36421C9.81719 4.40435 10.3259 4.56265 10.7815 4.81802V4.80606C10.8748 4.76108 10.995 4.70215 11.0906 4.78243C11.2062 4.74001 11.2276 4.87923 11.3212 4.89575C11.4341 4.96208 11.5609 5.08507 11.5754 5.21489C11.5968 5.2576 11.6638 5.28806 11.6736 5.33304C11.7505 5.17219 11.9039 5.05859 12.0359 4.91938L12.1173 4.88635C11.3931 4.20563 10.5322 3.82983 9.5725 3.70001C9.41852 3.67381 9.25096 3.68805 9.10449 3.64307C9.13367 3.83011 9.12674 4.08521 9.11171 4.2956ZM11.2706 4.61218C11.3186 4.62642 11.3622 4.64777 11.3784 4.69759C11.3662 4.75169 11.4289 4.79667 11.3905 4.83937C11.2611 4.8724 11.2492 4.72806 11.1484 4.69275C11.134 4.67368 11.1293 4.65033 11.1319 4.62443C11.1776 4.56976 11.2203 4.65944 11.2706 4.61218ZM9.21023 4.18229C9.22958 4.14414 9.28476 4.15837 9.31336 4.17033L9.65888 4.02371C9.79812 4.03567 9.95181 4.05218 10.0333 4.16549V4.18229C9.94719 4.25289 9.83683 4.30983 9.72157 4.26229C9.56325 4.29304 9.34225 4.383 9.21514 4.22243C9.21023 4.21047 9.19578 4.19396 9.21023 4.18229Z" fill="#0A69B1"/>
<path d="M9.11232 5.31189C9.2039 5.28114 9.29721 5.31901 9.3885 5.32129C9.85853 5.39673 10.3023 5.54591 10.6787 5.83175C10.6336 5.78449 10.5782 5.73012 10.5683 5.66179C10.5758 5.65239 10.5854 5.64983 10.5972 5.65239C10.6018 5.57894 10.523 5.54108 10.5108 5.47474C10.523 5.46079 10.5397 5.44655 10.5634 5.45339C10.6449 5.52912 10.7145 5.61168 10.7746 5.69709C10.8275 5.67574 10.8705 5.70905 10.9089 5.73723C10.9789 5.77766 10.9352 5.86506 10.9881 5.91232C10.9976 6.05183 11.1701 6.12955 11.1603 6.26934C11.1632 6.30236 11.2036 6.27645 11.2183 6.29268L11.3625 6.46749C11.3359 6.50051 11.3573 6.54094 11.3862 6.56457C11.4509 6.59276 11.4873 6.51247 11.552 6.52443C11.6453 6.57653 11.5376 6.63774 11.5468 6.69439C11.5829 6.69696 11.6283 6.66621 11.6569 6.7018C11.669 6.75361 11.6144 6.78664 11.5925 6.81995C11.5925 6.87205 11.6355 6.86009 11.6739 6.87205C11.717 6.86977 11.7433 6.92158 11.7314 6.95717C11.8513 7.08016 11.6956 7.21255 11.7531 7.34266C11.7915 7.42778 11.7433 7.51034 11.6907 7.5744C11.6927 7.67832 11.5968 7.74209 11.5587 7.82949L11.4365 7.85312C11.3717 7.91718 11.4913 7.99519 11.4269 8.03533L11.6959 8.04017L11.667 8.0117C11.6283 7.9075 11.6378 7.76828 11.7028 7.67604C11.7433 7.59091 11.7534 7.48928 11.8302 7.41611C11.8467 7.41155 11.8779 7.38052 11.8926 7.41611C11.897 7.49611 11.89 7.58864 11.8519 7.65953C11.9284 7.76828 11.9192 7.91035 11.9264 8.04501C12.1636 8.03077 12.3962 8.02593 12.6287 8.0285L12.6073 7.9838C12.5712 7.5465 12.4802 7.13255 12.295 6.75931C12.2451 6.76158 12.2092 6.80173 12.1515 6.78749C12.1321 6.78037 12.1203 6.76158 12.1226 6.74023C12.0267 6.65055 11.9669 6.53212 11.8585 6.45211C11.7366 6.46379 11.6811 6.32428 11.5708 6.31033C11.4726 6.27019 11.5399 6.11418 11.398 6.1566C11.3287 6.12841 11.2617 6.07631 11.2469 5.9983C11.2469 5.87531 11.223 5.74264 11.11 5.66264C11.0236 5.63189 10.9878 5.7452 10.9014 5.72641C10.8535 5.70278 10.8749 5.64129 10.8601 5.60115C10.8437 5.56584 10.8026 5.53965 10.8101 5.49239C10.9228 5.34606 10.6738 5.34805 10.7281 5.20399C10.7139 5.09979 10.6062 5.05965 10.5504 4.97708C10.1792 4.81167 9.8074 4.69836 9.38763 4.64854C9.2845 4.63459 9.18859 4.65566 9.09961 4.6084L9.12388 4.65338C9.11983 4.87232 9.13428 5.10605 9.11232 5.31189Z" fill="#0A69B1"/>
<path d="M8.86987 7.56226C8.79794 7.68041 8.67776 7.70632 8.56538 7.73934C8.53418 7.77749 8.5414 7.86005 8.46716 7.85294C8.44289 7.90475 8.36113 7.9355 8.39262 8.01123C8.35391 8.09152 8.37327 8.19572 8.3516 8.28283C8.21004 8.37052 8.25107 8.16725 8.17884 8.12454L8.15487 8.16468C8.12627 8.1718 8.10691 8.15529 8.08813 8.13621C8.06618 8.1291 8.03006 8.12198 8.01129 8.14105C7.9798 8.19287 7.93155 8.23557 7.94397 8.30646C7.92924 8.34888 7.85731 8.33465 7.86713 8.37963C7.94629 8.37707 8.03266 8.36312 8.10922 8.34632C8.16469 8.36056 8.21004 8.3207 8.26522 8.31785C8.28458 8.32725 8.30596 8.34632 8.29873 8.37479H8.31809C8.35622 8.34632 8.37327 8.3039 8.35622 8.2612C8.36085 8.21166 8.41631 8.21166 8.45011 8.19742C8.48131 8.21166 8.46196 8.24241 8.46716 8.26604C8.57491 8.30646 8.44087 8.38419 8.42614 8.44084C8.39725 8.48583 8.42614 8.58746 8.33513 8.57323C8.31809 8.56839 8.30625 8.55188 8.31116 8.5328H8.29902C8.29671 8.57067 8.32589 8.62248 8.36402 8.63899C8.43134 8.5849 8.43336 8.49237 8.52927 8.4807C8.57983 8.42889 8.50789 8.3486 8.58243 8.30618C8.70752 8.30362 8.84127 8.2518 8.94007 8.35088C8.93227 8.3933 8.91552 8.41266 8.95163 8.44768C8.92794 8.50205 8.91118 8.56099 8.86583 8.60597C8.87738 8.63643 8.86785 8.67458 8.84127 8.69565C8.80776 8.83999 8.63992 8.77109 8.54169 8.82092C8.69278 8.93451 8.87507 8.97693 9.07152 8.9627C9.17494 8.95814 9.12901 8.83287 9.18188 8.77593C9.21539 8.61024 9.36966 8.72383 9.46268 8.67914C9.4985 8.60796 9.5349 8.53963 9.54415 8.45906C9.48464 8.42148 9.46008 8.35031 9.47944 8.2817C9.4387 8.22732 9.44361 8.12796 9.35492 8.11885C9.34048 8.09977 9.35203 8.07614 9.36446 8.06191C9.36215 8.00981 9.41472 7.99358 9.42917 7.95315C9.37428 7.91785 9.38843 7.83984 9.39335 7.79514C9.29974 7.82105 9.28963 7.70062 9.22059 7.67443C9.20383 7.62005 9.14403 7.61066 9.09636 7.60126C8.9811 7.65564 8.96145 7.51585 8.87565 7.48311C8.86612 7.4572 8.84676 7.41934 8.87565 7.39799C8.9187 7.3624 8.97619 7.39315 9.02645 7.39087L8.98572 7.36952C8.94701 7.3271 8.86323 7.353 8.81325 7.36952C8.86034 7.41792 8.84098 7.50276 8.86987 7.56226Z" fill="#0A69B1"/>
</g>
<defs>
<clipPath id="clip0_163797_11581">
<rect width="18" height="36" fill="white"/>
</clipPath>
</defs>
</svg>
