<svg width="86" height="30" viewBox="0 0 86 30" fill="none" xmlns="http://www.w3.org/2000/svg">
<g clip-path="url(#clip0_163797_11539)">
<path d="M16.9514 29.9976L17.0415 29.9401L33.5093 19.4208L33.9003 19.0895L32.5489 18.4195C31.8574 18.1205 32.1642 17.5985 32.3093 16.9773L32.3407 16.8784L33.5937 12.1003L29.8091 12.898C29.1697 13.0226 28.6657 13.1162 28.3538 12.4456L27.3818 10.2318L23.7172 14.1373C22.7452 15.2334 21.804 14.7635 22.1523 13.1422L23.8264 4.91306L21.2635 6.18382C20.6555 6.47427 20.359 6.52638 20.0057 5.90284L17.0012 0.00439453L13.991 6.12371L14.0325 6.00173C13.7627 6.52638 13.3001 6.45354 12.8475 6.18382L10.0355 4.55717L11.8442 13.4931C12.1614 14.6336 11.2101 15.1641 10.5396 14.3665L6.73928 10.0888L5.6737 12.2741C5.41397 12.8719 5.11752 13.1162 4.04187 12.8719L0.19003 12.0453L1.68682 16.8991C1.91575 17.6219 1.89502 17.9698 1.47862 18.2919L0.0185547 19.1813L16.9514 29.9976Z" fill="#EB2628"/>
<path d="M28.3963 16.4388L17.7379 25.0934L16.9649 8.76978L16.1594 25.0886L5.50684 16.4388L16.9463 29.9949L28.3963 16.4388Z" fill="#A61E25"/>
<path d="M37.1724 19.6376L36.8718 14.9653C36.8342 14.8527 36.6506 14.8513 36.6494 14.9653C36.6289 15.9746 34.8499 15.1278 34.2188 14.9845C28.7209 13.7318 25.0195 18.1428 25.0195 21.8061C25.0195 26.5537 28.1597 29.1334 32.1996 29.1334C35.4138 29.1334 37.0409 27.0775 37.5642 24.8527C37.6323 24.5741 37.3163 24.6319 37.2464 24.8527C36.2747 27.9556 33.8616 28.7388 32.6675 28.7228C30.0676 28.6852 27.6506 26.5907 27.5618 21.8064C27.4501 15.7129 34.3325 11.7247 36.9485 19.5636C37.0027 19.7318 37.1348 19.7688 37.1724 19.6376Z" fill="black"/>
<path d="M39.3331 20.3859C40.7529 19.7872 44.6039 19.9746 44.6039 21.7315V27.1337C44.6039 28.6106 46.0625 29.1151 46.4726 28.1238C46.6035 27.993 46.8289 28.0865 46.7164 28.3112C46.4555 29.3579 43.8747 29.5261 42.9783 28.1238C38.0241 31.7312 34.8632 24.6278 40.7899 24.5164C42.6406 24.2366 42.8474 23.1702 42.8474 22.4232C42.8474 20.573 41.8748 20.4045 41.2949 20.4045C40.6777 20.4045 40.1739 20.5916 39.836 21.5444C39.3127 23.4511 36.4518 21.7496 39.3331 20.3859ZM40.6881 28.7033C41.8641 28.8537 42.9131 27.7878 42.9131 26.7409V24.1993C37.8823 26.0489 39.4528 28.6283 40.6881 28.7033Z" fill="black"/>
<path d="M49.4169 20.1984L47.0068 20.5161C46.8566 20.5534 46.8566 20.6286 47.1368 20.7032C47.6595 20.7221 47.9956 21.0771 47.9956 21.8434V27.47C47.9956 28.1433 47.0536 28.7328 46.8566 28.8157C46.4073 29.0022 47.0811 28.9649 47.0811 28.9649H51.0259C51.1559 28.9649 51.5676 29.0022 51.0449 28.7597C50.4469 28.5344 49.7921 28.0492 49.7921 27.47C49.7921 26.8906 49.7921 23.245 49.7921 23.245C49.7921 21.4697 50.9522 20.498 52.0921 20.498C53.288 20.498 54.2789 20.7597 54.2789 23.2269V27.47C54.2789 28.0865 53.4755 28.6478 53.046 28.7967C52.7665 28.8708 52.6524 28.9649 52.8959 28.9649H57.1022C57.327 28.9845 57.4221 28.9084 57.2153 28.8536C56.206 28.4601 56.0742 27.7131 56.0742 27.47V22.5347C56.0742 19.7125 53.3629 20.0868 52.4096 20.0868C51.2137 20.1054 49.9426 20.8524 49.8114 21.1888C49.7723 20.2736 49.6606 20.18 49.4169 20.1984Z" fill="black"/>
<path d="M73.406 28.2736C72.9943 28.9845 71.9862 29.1517 70.7314 29.1517C68.3571 29.1517 66.4131 27.3196 66.4131 24.8157C66.4131 22.5913 67.6679 20.0868 70.8646 20.0868C73.7424 20.0868 73.7232 22.0119 73.7232 20.4042V17.5814C73.7232 16.1238 73.143 15.6945 72.6979 15.5636C72.041 15.3392 71.199 15.3016 72.5465 15.3016L75.0517 15.2456C75.1924 15.2527 75.2194 15.2829 75.2194 15.5073V26.535C75.2194 27.3022 75.501 28.4794 76.7342 28.8157C76.8459 28.8341 76.9782 28.9084 76.8459 28.946L74.1179 29.245C73.7235 29.2835 73.557 29.0958 73.3873 28.3292L73.406 28.2736ZM70.9754 28.7032C72.4654 28.7032 73.4614 28.1238 73.4614 24.6472C73.4614 21.3386 72.4654 20.5359 70.9754 20.5359C69.486 20.5359 68.2774 22.4657 68.2774 24.6848C68.2774 26.9033 69.486 28.7032 70.9754 28.7032Z" fill="black"/>
<path d="M59.158 20.3763C60.5792 19.7782 64.4308 19.9651 64.4308 21.7223V27.1239C64.4308 28.601 65.8896 29.1055 66.3013 28.114C66.4322 27.9831 66.6558 28.0767 66.5436 28.3014C66.2821 29.3483 63.7022 29.5162 62.8034 28.114C57.8504 31.7211 54.6895 24.6191 60.616 24.5066C62.4672 24.2268 62.6734 23.1615 62.6734 22.4133C62.6734 20.5628 61.7023 20.3947 61.1215 20.3947C60.5046 20.3947 60.0002 20.5821 59.6629 21.5352C59.1408 23.4422 56.2793 21.7406 59.158 20.3763ZM60.4303 28.694C61.6081 28.8438 62.6553 27.7779 62.6553 26.7313V24.1898C57.6265 26.04 59.1962 28.6188 60.4303 28.694Z" fill="black"/>
<path d="M78.5841 20.3946C80.006 19.7975 83.8569 19.9837 83.8569 21.7406V27.1419C83.8569 28.6188 85.317 29.1236 85.7266 28.1332C85.8581 28.0021 86.082 28.0956 85.9697 28.3197C85.7079 29.3667 83.1284 29.5345 82.2316 28.1332C77.2766 31.7406 74.1175 24.6371 80.0451 24.5258C81.8943 24.2448 82.0995 23.1795 82.0995 22.4314C82.0995 20.5818 81.1278 20.4133 80.5468 20.4133C79.9305 20.4133 79.427 20.6001 79.09 21.5538C78.5661 23.4599 75.7055 21.7593 78.5841 20.3946ZM79.8573 28.7126C81.0351 28.8616 82.0812 27.7969 82.0812 26.7499V24.2081C77.0506 26.0577 78.6217 28.6383 79.8573 28.7126Z" fill="black"/>
<path d="M78.453 15.2456H76.3965V19.4324H78.453V15.2456Z" fill="#EB2127"/>
<path d="M85.0725 15.2456H83.0166V19.4324H85.0725V15.2456Z" fill="#EB2127"/>
<path d="M80.4493 16.1158L80.7434 15.5183L81.0369 16.0942C81.0715 16.1552 81.1002 16.1501 81.1598 16.1217L81.41 15.9977L81.2465 16.8012C81.2125 16.9596 81.3046 17.0055 81.3993 16.8983L81.7571 16.517L81.8519 16.7331C81.8824 16.7985 81.9315 16.7894 81.994 16.7772L82.3636 16.6994L82.2413 17.166L82.2384 17.1757C82.2242 17.2364 82.1942 17.2874 82.2618 17.3167L82.3939 17.3821L81.6345 18.0255C81.5557 18.1063 81.5818 18.1309 81.6111 18.22L81.6807 18.4364L80.9714 18.3077C80.8837 18.2857 80.8233 18.2857 80.8212 18.3562L80.8512 19.1701H80.6373L80.6664 18.3586C80.6664 18.2783 80.6059 18.281 80.4629 18.3103L79.806 18.4364L79.8919 18.22C79.9203 18.1374 79.9274 18.0812 79.8626 18.0255L79.084 17.3919L79.2282 17.304C79.2688 17.2726 79.2709 17.2385 79.2486 17.1681L79.1023 16.694L79.4785 16.7749C79.5836 16.7988 79.6123 16.7749 79.6378 16.7165L79.7418 16.5031L80.1128 16.9208C80.1783 16.9987 80.2713 16.9469 80.2402 16.8356L80.0637 15.963L80.3382 16.122C80.3823 16.1484 80.4277 16.1555 80.454 16.1042" fill="#EB2127"/>
<path d="M38.8732 10.4732H38.5566V7.14648H38.8732V10.4732Z" fill="#231F20"/>
<path d="M40.8732 8.05737C41.2069 8.05737 41.4501 8.14916 41.6041 8.33213C41.7575 8.51511 41.8339 8.78691 41.8339 9.14634V10.4728H41.5173V9.06699C41.5173 8.60482 41.3058 8.37358 40.8832 8.37358C40.6851 8.37358 40.5039 8.4402 40.3386 8.57166C40.1733 8.70312 40.091 8.87573 40.091 9.08654V10.4725H39.7744V8.09616H40.091V8.4627C40.1568 8.357 40.2646 8.26315 40.4126 8.18024C40.5616 8.09853 40.715 8.05737 40.8732 8.05737Z" fill="#231F20"/>
<path d="M45.7753 7.93848C46.1153 7.93848 46.4049 8.06638 46.6442 8.32219C46.8835 8.578 47.0035 8.88563 47.0035 9.24536C47.0035 9.60509 46.8838 9.91272 46.6442 10.1685C46.4046 10.4243 46.1153 10.5522 45.7753 10.5522C45.472 10.5522 45.2212 10.4383 45.0227 10.2109V11.7401H44.3887V8.01782H45.0227V8.28074C45.2212 8.05247 45.472 7.93848 45.7753 7.93848ZM45.2212 9.72086C45.353 9.85261 45.5111 9.91834 45.6962 9.91834C45.881 9.91834 46.0395 9.85261 46.1718 9.72086C46.3036 9.58851 46.3694 9.43011 46.3694 9.24536C46.3694 9.06061 46.3036 8.90221 46.1718 8.77045C46.0395 8.63811 45.881 8.57238 45.6962 8.57238C45.5114 8.57238 45.353 8.63811 45.2212 8.77045C45.0888 8.90221 45.023 9.06031 45.023 9.24536C45.023 9.43041 45.0888 9.58851 45.2212 9.72086Z" fill="#231F20"/>
<path d="M49.4895 8.01772H50.1236V10.4734H49.4895V10.2114C49.292 10.4387 49.0405 10.5527 48.737 10.5527C48.397 10.5527 48.1073 10.4248 47.868 10.169C47.6287 9.91321 47.5088 9.60558 47.5088 9.24585C47.5088 8.88611 47.6284 8.57849 47.868 8.32268C48.1076 8.06687 48.397 7.93896 48.737 7.93896C49.0402 7.93896 49.2917 8.05295 49.4895 8.28093V8.01772ZM48.3413 9.72076C48.4731 9.85251 48.6312 9.91824 48.8163 9.91824C49.0014 9.91824 49.1596 9.85251 49.292 9.72076C49.4237 9.58841 49.4895 9.43001 49.4895 9.24526C49.4895 9.0605 49.4237 8.9021 49.292 8.77035C49.1596 8.638 49.0011 8.57227 48.8163 8.57227C48.6315 8.57227 48.4731 8.638 48.3413 8.77035C48.2089 8.9021 48.1432 9.06021 48.1432 9.24526C48.1432 9.4303 48.2089 9.58841 48.3413 9.72076Z" fill="#231F20"/>
<path d="M51.5393 8.53725C51.6184 8.35605 51.7502 8.21482 51.9353 8.11415C52.1201 8.01349 52.3319 7.95457 52.5694 7.93799V8.68588C52.4041 8.64295 52.2457 8.64295 52.0944 8.68588C51.9424 8.72881 51.8118 8.81497 51.7028 8.94554C51.5938 9.07611 51.5393 9.24191 51.5393 9.44324V10.4727H50.9053V8.01763H51.5393V8.53725Z" fill="#231F20"/>
<path d="M53.4314 9.77535V8.57239H53.1143V8.01784H53.4314V7.14648H54.0649V8.01784H54.5406V8.57239H54.0649V9.60185C54.0649 9.77654 54.1055 9.88549 54.1866 9.92872C54.2672 9.97165 54.3857 9.96869 54.5406 9.91865V10.4732C54.4082 10.5259 54.253 10.5523 54.075 10.5523C53.857 10.5523 53.695 10.4821 53.5899 10.342C53.4839 10.2017 53.4314 10.0128 53.4314 9.77535Z" fill="#231F20"/>
<path d="M56.6594 7.93848C56.9463 7.93848 57.1717 8.03293 57.3352 8.22093C57.4987 8.40894 57.5804 8.68429 57.5804 9.04729V10.4732H56.9463V9.12693C56.9463 8.93507 56.9084 8.79503 56.8323 8.70591C56.7562 8.61649 56.636 8.57238 56.4713 8.57238C56.3123 8.57238 56.1805 8.62508 56.0747 8.73078C55.969 8.83648 55.9163 8.99488 55.9163 9.20628V10.4732H55.2822V8.01782H55.9163V8.25587C56.0946 8.04418 56.3422 7.93848 56.6594 7.93848Z" fill="#231F20"/>
<path d="M60.6204 9.24517C60.6204 9.29136 60.6171 9.35738 60.6103 9.44324H58.823C58.8692 9.61171 58.9542 9.74583 59.0783 9.8465C59.2018 9.94717 59.3597 9.9972 59.5507 9.9972C59.8249 9.9972 60.0687 9.922 60.2834 9.76982L60.4664 10.3193C60.4403 10.3359 60.403 10.3572 60.3556 10.3833C60.3074 10.4099 60.2037 10.4446 60.0435 10.4872C59.8833 10.5301 59.7159 10.5518 59.5412 10.5518C59.0851 10.5518 58.7419 10.4295 58.5106 10.1858C58.2802 9.94125 58.1641 9.628 58.1641 9.24487C58.1641 8.86234 58.273 8.54909 58.491 8.30453C58.709 8.05997 59.0223 7.93799 59.4322 7.93799C59.8149 7.93799 60.1086 8.05257 60.3133 8.28233C60.5179 8.51208 60.6204 8.83303 60.6204 9.24517ZM58.8375 8.96804H59.9472C59.9472 8.84961 59.8984 8.74065 59.8009 8.64117C59.7035 8.54228 59.5673 8.49313 59.3925 8.49313C59.2436 8.49313 59.1144 8.54495 59.0037 8.64887C58.8932 8.7525 58.8375 8.85908 58.8375 8.96804Z" fill="#231F20"/>
<path d="M61.8382 8.53725C61.9172 8.35605 62.049 8.21482 62.2341 8.11415C62.4189 8.01349 62.6307 7.95457 62.8682 7.93799V8.68588C62.703 8.64295 62.5445 8.64295 62.3932 8.68588C62.2412 8.72881 62.1106 8.81497 62.0017 8.94554C61.8927 9.07611 61.8382 9.24191 61.8382 9.44324V10.4727H61.2041V8.01763H61.8382V8.53725Z" fill="#231F20"/>
<path d="M64.6069 8.90926C64.9863 8.96818 65.2454 9.06559 65.384 9.20119C65.5226 9.3368 65.5925 9.49638 65.5925 9.68113C65.5925 9.93872 65.4957 10.1483 65.3026 10.31C65.1095 10.4714 64.8465 10.5525 64.5128 10.5525C64.2557 10.5525 64.0238 10.5131 63.8174 10.4335C63.6109 10.3544 63.4635 10.2751 63.374 10.196L63.5825 9.60208C63.6876 9.70097 63.8227 9.78269 63.9859 9.84723C64.1494 9.91178 64.3051 9.94523 64.4532 9.94849C64.7903 9.9556 64.9588 9.88454 64.9588 9.73561C64.9588 9.68291 64.9283 9.64324 64.867 9.61718C64.8062 9.59053 64.6916 9.5627 64.5231 9.5331C64.3022 9.49638 64.1177 9.45138 63.9708 9.3969C63.8239 9.34242 63.7143 9.27788 63.6414 9.20386C63.5692 9.12925 63.5191 9.05256 63.4934 8.97351C63.4667 8.89446 63.4534 8.8006 63.4534 8.69164C63.4534 8.48706 63.5541 8.31059 63.7555 8.16167C63.9569 8.01363 64.2145 7.93872 64.5282 7.93872C64.8581 7.93872 65.1767 8.01777 65.4839 8.17677L65.3053 8.75056C65.2363 8.70112 65.1273 8.65493 64.9783 8.61259C64.8302 8.56966 64.6795 8.54597 64.5279 8.54301C64.2341 8.5368 64.0872 8.58595 64.0872 8.69194C64.0872 8.77425 64.1861 8.83376 64.3842 8.86988C64.4141 8.87699 64.4615 8.88439 64.5279 8.89446L64.6069 8.90926Z" fill="#231F20"/>
<path d="M67.592 7.93844C67.879 7.93844 68.1043 8.03289 68.2678 8.2209C68.4313 8.40891 68.513 8.68426 68.513 9.04725V10.4732H67.879V9.1269C67.879 8.93504 67.841 8.79499 67.7649 8.70588C67.6888 8.61646 67.5686 8.57234 67.4039 8.57234C67.2449 8.57234 67.1131 8.62505 67.0074 8.73075C66.9016 8.83645 66.8489 8.99485 66.8489 9.20625V10.4732H66.2148V6.98804H66.8489V8.25584C67.0272 8.04414 67.2748 7.93844 67.592 7.93844Z" fill="#231F20"/>
<path d="M69.8428 7.57511C69.7587 7.6592 69.6553 7.70124 69.5336 7.70124C69.4113 7.70124 69.3082 7.65949 69.2238 7.57511C69.1397 7.49103 69.0977 7.38769 69.0977 7.26542C69.0977 7.14314 69.1394 7.0401 69.2238 6.95572C69.3079 6.87222 69.4113 6.82959 69.5336 6.82959C69.6553 6.82959 69.7584 6.87193 69.8428 6.95572C69.9269 7.0398 69.9695 7.14314 69.9695 7.26542C69.9695 7.38769 69.9269 7.49073 69.8428 7.57511ZM69.2164 10.4731V8.01775H69.8505V10.4734H69.2164V10.4731Z" fill="#231F20"/>
<path d="M72.0185 7.93848C72.3584 7.93848 72.6481 8.06638 72.8874 8.32219C73.1267 8.578 73.2466 8.88563 73.2466 9.24536C73.2466 9.60509 73.127 9.91272 72.8874 10.1685C72.6478 10.4243 72.3584 10.5522 72.0185 10.5522C71.7152 10.5522 71.4643 10.4383 71.2659 10.2109V11.7401H70.6318V8.01782H71.2659V8.28074C71.4643 8.05247 71.7152 7.93848 72.0185 7.93848ZM71.4643 9.72086C71.5961 9.85261 71.7543 9.91834 71.9394 9.91834C72.1245 9.91834 72.2826 9.85261 72.415 9.72086C72.5468 9.58851 72.6125 9.43011 72.6125 9.24536C72.6125 9.06061 72.5468 8.90221 72.415 8.77045C72.2826 8.63811 72.1242 8.57238 71.9394 8.57238C71.7546 8.57238 71.5961 8.63811 71.4643 8.77045C71.332 8.90221 71.2662 9.06031 71.2662 9.24536C71.2662 9.43041 71.332 9.58851 71.4643 9.72086Z" fill="#231F20"/>
<path d="M78.6539 8.09688H79.0105L77.9452 10.5431L77.2276 8.78022L76.5106 10.5431L75.4453 8.09688H75.8019L76.5144 9.77119L77.2276 8.01782L77.9407 9.7706L78.6539 8.09688Z" fill="#231F20"/>
<path d="M79.9488 7.61913C79.8944 7.67361 79.8292 7.70084 79.7531 7.70084C79.677 7.70084 79.6118 7.67361 79.5573 7.61913C79.5028 7.56465 79.4756 7.49951 79.4756 7.42342C79.4756 7.34733 79.5028 7.28219 79.5573 7.22771C79.6118 7.17324 79.677 7.146 79.7531 7.146C79.8292 7.146 79.8944 7.17324 79.9488 7.22771C80.0033 7.28219 80.0306 7.34733 80.0306 7.42342C80.0306 7.49951 80.0033 7.56465 79.9488 7.61913ZM79.5946 10.473V8.0967H79.9112V10.473H79.5946Z" fill="#231F20"/>
<path d="M80.9709 9.6963V8.41399H80.6543V8.09689H80.9709V7.14648H81.2875V8.09689H81.7631V8.41399H81.2875V9.72087C81.2875 9.94826 81.3192 10.0856 81.382 10.1318C81.4909 10.2109 81.6177 10.2141 81.7631 10.1413V10.4628C81.6769 10.4957 81.5863 10.5129 81.4906 10.5129C81.3488 10.5129 81.2374 10.4735 81.1563 10.3962C81.0751 10.3184 81.0245 10.2254 81.0029 10.1164C80.9818 10.0078 80.9709 9.86802 80.9709 9.6963Z" fill="#231F20"/>
<path d="M83.6837 8.05747C84.0175 8.05747 84.2606 8.14925 84.4146 8.33223C84.568 8.5152 84.6444 8.787 84.6444 9.14644V10.4729H84.3278V9.06709C84.3278 8.60491 84.1164 8.37368 83.6938 8.37368C83.4956 8.37368 83.3144 8.44029 83.1491 8.57175C82.9839 8.70351 82.9016 8.87582 82.9016 9.08663V10.4726H82.585V6.98804H82.9016V8.46339C82.9673 8.35769 83.0751 8.26383 83.2232 8.18093C83.3722 8.09862 83.5256 8.05747 83.6837 8.05747Z" fill="#231F20"/>
</g>
<defs>
<clipPath id="clip0_163797_11539">
<rect width="86" height="30" fill="white"/>
</clipPath>
</defs>
</svg>
