<svg id="Layer_1" data-name="Layer 1" xmlns="http://www.w3.org/2000/svg" viewBox="0 0 2600.5 2825.46"><defs><style>.cls-1,.cls-3{fill:#046aaf;}.cls-1{stroke:#046aaf;stroke-miterlimit:10;stroke-width:0.75px;}.cls-2{fill:#b52e71;}.cls-4{fill:#e88e49;}.cls-5{fill:#a4c752;}</style></defs><path class="cls-1" d="M6.6,2816.48a20.8,20.8,0,0,1-6.22-15.31V2506.08a21.62,21.62,0,0,1,6.22-15.54,20.41,20.41,0,0,1,15.3-6.46,21.25,21.25,0,0,1,15.55,6.46,21.23,21.23,0,0,1,6.45,15.54v295.09a20.44,20.44,0,0,1-6.45,15.31,21.7,21.7,0,0,1-15.55,6.21A20.83,20.83,0,0,1,6.6,2816.48Z"/><path class="cls-1" d="M128.07,2802.13a21.81,21.81,0,0,1-9.56-7.89,20.38,20.38,0,0,1,1.68-25.83,18.27,18.27,0,0,1,14.1-6,22.38,22.38,0,0,1,9.09,1.91q44,19.62,94.21,19.61,83.7,0,83.7-55A30.67,30.67,0,0,0,310.53,2705,78.23,78.23,0,0,0,284,2690q-15.8-5.51-45-13.16-38.75-10-62.66-19.37a109.12,109.12,0,0,1-41.12-28Q118,2610.82,118,2579.74a89.48,89.48,0,0,1,14.35-49.51q14.34-22.23,42.32-35.38t67.2-13.16q52.61,0,95.17,15.79,13.4,4.79,13.39,19.13a20.93,20.93,0,0,1-5.26,13.86,17.28,17.28,0,0,1-13.87,6.23,22.22,22.22,0,0,1-7.65-1.92,233.75,233.75,0,0,0-77-12.92q-37.78,0-61.45,14.36t-23.68,40.17q0,17.22,11.24,28T201,2621.11q17,6,46.14,12.67,37.8,9.09,61,18.17a100,100,0,0,1,39.69,28.22q16.5,19.14,16.5,51.65a80.31,80.31,0,0,1-15.3,48.07q-15.31,21.29-43,33.23t-64.08,12Q181.15,2825.09,128.07,2802.13Z"/><path class="cls-1" d="M437.51,2814.08a20.75,20.75,0,0,1-6.23-15.31V2508.48a21.57,21.57,0,0,1,6.23-15.55,20.39,20.39,0,0,1,15.3-6.45H644.59A20.39,20.39,0,0,1,665.15,2507a19.13,19.13,0,0,1-6,14.35,20.26,20.26,0,0,1-14.59,5.73H474.81v105.7H627.37a20.42,20.42,0,0,1,20.57,20.57,19.06,19.06,0,0,1-6,14.34,20.27,20.27,0,0,1-14.59,5.74H474.81v106.18H644.59a20.4,20.4,0,0,1,20.56,20.56,19.11,19.11,0,0,1-6,14.35,20.31,20.31,0,0,1-14.59,5.74H452.81A20.75,20.75,0,0,1,437.51,2814.08Z"/><path class="cls-1" d="M742.63,2814.08a20.75,20.75,0,0,1-6.23-15.31V2508.48a21.57,21.57,0,0,1,6.23-15.55,20.39,20.39,0,0,1,15.3-6.45H949.71A20.4,20.4,0,0,1,970.27,2507a19.1,19.1,0,0,1-6,14.35,20.23,20.23,0,0,1-14.58,5.73H779.93v105.7H932.49a20.42,20.42,0,0,1,20.57,20.57,19.06,19.06,0,0,1-6,14.34,20.27,20.27,0,0,1-14.59,5.74H779.93v106.18H949.71a20.42,20.42,0,0,1,20.56,20.56,19.08,19.08,0,0,1-6,14.35,20.27,20.27,0,0,1-14.58,5.74H757.93A20.75,20.75,0,0,1,742.63,2814.08Z"/><path class="cls-1" d="M1202.42,2804.24q-38-20.8-59.78-59.78t-21.76-91.11q0-52.11,21.76-91.1t59.78-59.79q38-20.8,85.85-20.81,32.52,0,58.12,7.66a247.88,247.88,0,0,1,50.93,22q10.5,5.73,10.51,18.17a17.76,17.76,0,0,1-5.27,12.68q-5.25,5.51-13.86,5.5a18.82,18.82,0,0,1-8.6-1.92A219.48,219.48,0,0,0,1339,2529q-20.09-5.73-46.39-5.73-41.14,0-70.06,17a109,109,0,0,0-43.52,46.39q-14.6,29.41-14.59,66.72t14.59,66.72a109,109,0,0,0,43.52,46.39q28.92,17,70.06,17,26.29,0,46.39-5.74A218.8,218.8,0,0,0,1380.1,2761a18.82,18.82,0,0,1,8.6-1.92q8.61,0,13.86,5.27a17.53,17.53,0,0,1,5.27,12.91q0,12.45-10.51,18.17a246.8,246.8,0,0,1-50.93,22q-25.62,7.65-58.12,7.66Q1240.44,2825.05,1202.42,2804.24Z"/><path class="cls-1" d="M1523.57,2803.05a150.69,150.69,0,0,1-58.36-60.75q-20.54-38.73-21.5-89,.93-50.22,21.5-89a150.76,150.76,0,0,1,58.36-60.73q37.77-22,88-22t87.77,22a152.26,152.26,0,0,1,58.34,61q20.82,39,21.77,88.71-1,49.76-21.77,88.71a152.28,152.28,0,0,1-58.34,61q-37.55,22-87.77,22T1523.57,2803.05Zm154.48-35.88a113.19,113.19,0,0,0,43-46.86q14.82-29.64,14.81-67t-14.81-67a113.31,113.31,0,0,0-43-46.86q-28.23-17.22-66.49-17.22-38.71,0-66.7,17.22a113.55,113.55,0,0,0-42.81,46.86q-14.82,29.67-14.83,67t14.83,67a113.42,113.42,0,0,0,42.81,46.86q28,17.22,66.7,17.22Q1649.82,2784.39,1678.05,2767.17Z"/><path class="cls-1" d="M1930.1,2800.65,1812,2514.18a23.1,23.1,0,0,1-1.43-8.13q0-10.05,5.74-16t15.79-6a20,20,0,0,1,12.19,4.07,25.55,25.55,0,0,1,8.36,10.75L1965,2779.13l112.4-280.26a25.67,25.67,0,0,1,8.38-10.75,19.92,19.92,0,0,1,12.19-4.07q10,0,15.79,6c3.81,4,5.74,9.33,5.74,16a22.67,22.67,0,0,1-1.45,8.13l-118.12,286.47q-10.07,22-29.66,22h-10.53Q1940.14,2822.66,1930.1,2800.65Z"/><path class="cls-1" d="M2183.56,2816.44a20.78,20.78,0,0,1-6.22-15.31V2506.05a21.62,21.62,0,0,1,6.22-15.55,20.41,20.41,0,0,1,15.31-6.45,22,22,0,0,1,22,22v295.08a20.4,20.4,0,0,1-6.46,15.31,21.68,21.68,0,0,1-15.54,6.22A20.85,20.85,0,0,1,2183.56,2816.44Z"/><path class="cls-1" d="M2319.86,2814.05a20.8,20.8,0,0,1-6.22-15.31v-290.3a21.61,21.61,0,0,1,6.22-15.55,20.41,20.41,0,0,1,15.31-6.45h96.13q54.51,0,92.53,24.15T2581,2573a178.1,178.1,0,0,1,0,160.68q-19.11,38.28-57.15,62.42t-92.53,24.15h-96.13A20.8,20.8,0,0,1,2319.86,2814.05ZM2426,2779.61q39.21,0,68.86-16a114.09,114.09,0,0,0,45.91-44.48q16.26-28.46,16.26-65.76t-16.26-65.76a114.28,114.28,0,0,0-45.91-44.48q-29.64-16-68.86-16h-68.87v252.52Z"/><path class="cls-2" d="M1517.29,1442.08c2.71,1.77,5.77,3.57,8.91,4.09l1.5.25c23.36,7.79,85.35,18.71,180.93-35.31.35-.08.75-.18,1.1-.24.75-.17,1.37-.94,2.07-1.44l1-.72c.2-.06,18.43-5.91,40.61-30.58a64.59,64.59,0,0,0,7.85-9.35,237.7,237.7,0,0,0,26.84-43.85c1.16-1.62,2.38-3.2,3.41-4.89.31-.52.64-1,.94-1.56l13.33-19.71c1.22-1.42,2.49-2.81,3.85-4.14-2.77-2.39-5.23-4.63-7.8-6.73a5,5,0,0,0-2.76-1.14c-5.32-.06-10.58-.35-15.81,1.8a89,89,0,0,0-21.82,13.22c-5,4-10,8.22-13.68,13.27A113.12,113.12,0,0,1,1739,1326c-3.84,4-7.61,8-11.37,12.07-13.9,15-27,30.84-42.45,44.32a80.44,80.44,0,0,1-11.91,8.21c-2.48,1.47-5.39,2.14-9,3.52.64-2,.86-3.09,1.27-4.09,1.32-3.06,2.89-6,4-9.17,1.74-4.69,3-9.57,4.88-14.22,6.36-15.5,12.94-30.89,16.42-47.38,1.12-5.22,2.68-10.36,3.78-15.61q.91-4.29,1.47-8.73h0s7-33,1.63-36.9a7.53,7.53,0,0,0-5.37-3.89,19.78,19.78,0,0,0-7-.2c-5.61.86-10.07,3.82-13.7,7.52h0a46.61,46.61,0,0,0-4.6,5.65c-7.41,10.51-13.59,22-19.36,33.44-4.71,9.38-7.94,19.5-12,29.23-6.56,15.43-13.38,30.67-23,44.54a52.92,52.92,0,0,1-13.53,13.58c.79-3.81,1.85-8.94,2.62-13.46a7.31,7.31,0,0,0,.55-2.21c.19-1.68.37-3.43.54-5.14h0v0c.51-5.11,1-10.2,1.46-15.33.2-2.76.42-5.5.57-8.27l3.45-39.76a.55.55,0,0,1,0-.19l.14-1.86v0c.2-2.17.37-4.34.5-6.49.91-14.21,1.32-28.46,1.94-42.68a8.92,8.92,0,0,0-6.32-9.07c-3.47-1.23-6.18.17-8.88,2-6.21,4.37-10.14,10.64-14.08,16.88-10,16-13.6,34.19-16.87,52.29-2.18,11.84-3,23.94-4,36-1.4,16.29-6.71,31-16.72,43.92-3.38,4.36-6.6,8.84-9.76,13.35-2.09,3-3.88,6.16-6,9.18-4.14,6.1-8.49,12.06-12.5,18.21C1514.09,1437.93,1514.46,1440.21,1517.29,1442.08Z"/><path class="cls-2" d="M1885.45,1414.07c-.46-6.18-4.44-11-10.43-11.12a124.47,124.47,0,0,0-17,.77c-14.17,1.56-27.86,5.72-41.74,8.9-16,3.64-32,7.16-48,10.68-4.4,1-8.85,1.81-13.27,2.84-8.77,2.06-17.55,4-26.24,6.34-6.14,1.67-12.12,3.94-18.17,6-6.67,2.22-13.73,3.72-20,6.85-10.45,5.23-21.89,7.3-32.76,11-11.81,4.06-24,7-36.07,10.18l-47.67,7.48c-74.42-.66-100-37.73-101.7-40.2,0-.06,0-.09-.06-.16a103.15,103.15,0,0,1-11-16.39c-7.57-13.78-12.69-28.45-16.59-43.52-3.84-14.75-6.93-29.7-10.44-44.52a21.82,21.82,0,0,0-2.18-6.11c-4.34-7.36-7.75-15.17-12.59-22.31-4.07-6-8.69-10-15.46-12.72-7.61-3-14.41-2.21-21.09,1.56-6.85,3.82-9.42,10-8,17.87a122.87,122.87,0,0,0,6.53,24.19c1.16,3,1.76,6.12,2.73,9.13,1.71,5.42,3.08,11,5.41,16.18,2.62,5.79,4.31,11.68,3.72,17.94a104.38,104.38,0,0,1-2.89,18.35c-3.27,11.93-5.14,24.19-9.28,35.94-4,11.2-6.18,22.9-8.22,34.67-2.23,12.94-3.86,25.85-3,39,.6,9.36,1.08,18.75,2.23,28,.77,6.46,2.51,12.82,4,19.2,3,12.88,5.91,25.76,9.22,38.54,0,0-.12,47.31-3.13,87.83,0,.08,0,.16,0,.24-1.1,8.46-1.36,17.07-3.15,25.37-1.67,7.6-2.63,15.27-3.67,22.93,0,0-.44,2-1.17,5.52-6.11,39.24-14.63,177.21-18.3,213.91-.15,2.44-.33,4.86-.46,7.33,0,.3,0,.56-.07.85,0,.53,0,1.06-.09,1.58-1,18.6-1.49,37.67-.92,56.46a47.56,47.56,0,0,0,.2,5.84,397.29,397.29,0,0,0,5.52,53.66c.88,9,1.72,18.13,2.69,27.17.88,8.29,2.26,16.54,3.36,24.82q1.59,11.7,3.13,23.39c.94,7,2.06,13.91,2.79,20.94.62,6.17-.11,12.6,1.39,18.51,3.27,12.65,3.85,25.41,4,38.36.22,13.18-1.36,26.34.75,39.59,1.7,10.71,2,21.7,2.77,32.56q.82,13.54,1.17,27.11c0,2.55.7,4.21,3.6,4.88,1.3-3.22,4-3.21,6.89-2.56,2.6.56,5.26,1.09,7.92,1.39a117.6,117.6,0,0,0,12,1c1.85,0,3.72-.86,5.32-1.27.49-4.9-1.32-8.43-3.06-12a85.9,85.9,0,0,1-4.84-11,127.48,127.48,0,0,1-6.79-35.94c-.16-3.85-1-7.66-1.41-11.48-.18-1.46-.15-2.92-.22-4.4l1-.07c1.69,4,3.25,8,5.1,11.91,5.19,11.08,10.43,22.11,18.26,31.64,3.62,4.4,7.19,8.84,10.42,13.52s5.83,9.75,12.61,10.15c3.1.19,6.22,2.11,9.26,2,10.38-.47,20.68-1.53,31.06-2.25,2.94-.21,4.75-1.85,6.75-4.11-3-2.35-2.86-5.29-2.13-8.53a25.49,25.49,0,0,0,.19-6c-.24-8.06-.61-16.1-.76-24.1-.18-11.56-2.88-22.55-6.42-33.43-2.1-6.43-3.94-13-6-19.85,1.74,1.28,3.41,2.44,5,3.56,13.36,11.74,47.91,45.36,55.44,85.27l14.12,3s3.35-1,3.68-2c.24-.67-.66-2.7-1.3-4a1.57,1.57,0,0,0-.6-1.15h0s-3.32-18.25-6.26-29.14c5.34,6.09,10.07,11.5,14.87,16.82.83.89,1.75,2,2.66,3a50.62,50.62,0,0,0,20.08,17.78,15.76,15.76,0,0,0,6.87,3.06c1.29.22,2.55.42,3.82.65a46.43,46.43,0,0,0,4.62.74h0a85.8,85.8,0,0,0,13.51,1.11c3.48-.05,7.35-1.46,10.49,1.53.18.2.84-.18,1.28-.24,6,5.82,48.3-2.4,48.3-2.4-9.39-6.73-35.88-56.68-37.85-60.46-1.13-2.72-2-5.55-2.86-8.38v0s39.84,26.68,63,45.95l2.9,2.74c4.4,4.47,8.52,8.71,12.65,12.82v0h0c1.19,1.22,2.44,2.44,3.65,3.66.82.8,2.66,1.58,3.46,1.2,13,1.95,44.45-2.31,44.45-2.31-8.4-8.76-73.56-47.6-73.56-47.6h0a9.48,9.48,0,0,1-1-2.69c1.5-.12,2.82-.54,3.9-.23a81.1,81.1,0,0,1,9.46,3.23c3.5,1.49,6.77,4,10.42,4.83,6.23,1.53,11.6,5,17.51,7a21.63,21.63,0,0,1,4.14,1.81c10,6,20.11,12,30,18.24,2.38,1.52,5.08,3.2,5.55,6.75.13.95,2,2.17,3.32,2.48q9,2.22,18.17,4c9.31,1.87,18.72.61,28.09.65,3.61,0,7.44.6,10.38-2.56a3.45,3.45,0,0,1,2.42-.52c7.72.54,14.24-3.23,21-6,3-1.17,3.33-3.81.8-5.72a17.52,17.52,0,0,0-5.77-3,109.26,109.26,0,0,1-13.68-5c-2.11-1.11-4.45-2.22-7-3.39-.81-.4-1.6-.82-2.38-1.22a7.34,7.34,0,0,0-2.06-.68c-42.77-17.9-133.31-41.85-134.37-42.12-6.49-3.67-13-7.35-19.35-11.22-5-3-9.81-6.4-14.81-9.44-6.4-3.85-13.39-6.93-19.31-11.45-7.81-6-14.92-12.91-22.24-19.56-5.43-5-10.74-10.08-16-15.23-9.35-9.13-18.44-18.48-26.47-28.83-5-6.46-9.7-13.28-15.35-19.15-10.08-10.5-16.78-22.86-22.06-36.22-3.06-7.77-6.91-15.23-10-23-3.41-8.48-6.4-17.12-9.68-25.69-1.7-4.52-3.59-9-5.44-13.44s-4.15-8.54-5.17-13q-4.81-20.54-8.71-41.27c-3-15.44-5.56-30.92-8.13-46.44-1.85-11.17-3.06-22.46-5.17-33.62-2.66-14.27-2.91-28.67-3.48-43.07-.24-9-.22-98.09,0-106,1.32-10.77,2.78-21.53,4-32.31.37-3.41.66-6.8.94-10.22,1.87-14.61,7.26-41.68,22.37-59.73h0c11.33-7.45,29-20.64,45.67-33.43,2.88-1.91,5.76-3.83,8.63-5.8,6-4.17,11.45-9.06,17.39-13.35a8.24,8.24,0,0,0,3.09-3.47c1.14-.88,2.22-1.74,3.25-2.56a5.31,5.31,0,0,0,2.25-1.35c3-2.64,6.16-5.16,9.26-7.76h0c1.38-1.15,2.77-2.3,4.07-3.52,3.78-3.39,7.25-7.13,10.89-10.67,31.36-28,65.11-48.55,84.58-59.32,3.36-1.68,6.71-3.43,10-5.16,2.17-1.13,4.27-2.29,6.42-3.45h0c3.56-1.92,7.13-3.88,10.8-5.65,7.19-3.5,14.56-6.65,21.84-10,3.64-1.66,7.22-3.55,10.94-5,6.51-2.57,13.15-5,19.75-7.29,10.71-3.82,21.4-7.69,32.18-11.26,6.49-2.16,13.16-3.8,19.74-5.71,3.36-1,6.68-2.1,10-3.1,2.73-.83,5.53-1.38,8.19-2.39,8.07-3.15,16.15-6.36,24.15-9.7C1877.53,1432,1886.15,1423.86,1885.45,1414.07Zm-420.16,895.86c-2.5-.56-3.23-2.23-3.58-4.06-1-5.14-4.55-8.26-8.4-11.37a20.35,20.35,0,0,1-5.88-7.28,174.49,174.49,0,0,0-13.57-24.59c-7.06-10.8-11.2-22.88-14-35.3a272.47,272.47,0,0,1-6.08-35.13c-1.4-15.35-.42-30.81,1-46.2.1-.61.26-1.2.37-1.83.37-.1.71-.17,1.08-.25.46.83,1,1.66,1.41,2.47h0l0,.05c.94,1.59,1.83,3.19,2.68,4.83A95.56,95.56,0,0,0,1428,2164c8.28,15,19.76,37.92,27.26,61.48,1.45,7.2,2.86,14.4,4.38,21.6.55,2.77,1.12,5.57,1.71,8.37a106.28,106.28,0,0,1,2.86,21.36c.18,10.2.86,20.4,1.34,30.6A22.13,22.13,0,0,1,1465.29,2309.93Zm115.58-95.39a135.74,135.74,0,0,1,20.11,23c3,4.33,4.9,9.5,6.81,14.5,2,5.47,3.5,11.17,5.29,16.75.43,1.24,1.32,2.33,1.78,3.56.77,2,1.89,4.07,1.93,6.14.13,6.83,2.14,13.15,4.67,19.38a67.17,67.17,0,0,1,1.87,6.61l-29.64-16.28a22.88,22.88,0,0,0-2.77-2.25c-8-5.34-12.38-12.94-13.46-23-.66-6.13.83-12,.33-18-.7-8.68-1.1-17.38-1.63-26.07-.11-2.17-.2-4.34-.37-7.5C1577.94,2212.69,1579.62,2213.38,1580.87,2214.54Zm-37.35-3.72c.07-4.6.77-9.2,1.21-13.9,4.79.44,6.22,3.59,7.28,6.7,1.52,4.41,2.37,9.06,3.92,13.45,3.2,9,3.52,18.43,4.37,27.69.38,4.21-2.24,8.53-4,12.64-.1.2-.6.26-1.48.65-2.37-2.08-5-4.28-7.45-6.6-2-3.64-3.68-9.28-3.72-18C1543.67,2225.91,1543.38,2218.37,1543.52,2210.82Zm-49.67-78.09c5.63,6.37,10.86,13.08,16.25,19.64a4.4,4.4,0,0,1,.55.87c3.77,6.87,7.79,13.62,11.24,20.66,2.93,6,5.86,12.14,6.27,18.92.35,6.5.16,13,.16,19.51a95.06,95.06,0,0,0,1,13.69h0v.13c.36,2.24.77,4.52,1.26,6.75l1,5.46a29.9,29.9,0,0,1-3.83-2.64c-2.11-1.63-4-3.49-6.17-5.13-7.26-5.61-14.74-11-21.85-16.86a30.78,30.78,0,0,1-6.47-8.18c-2.4-4-4.26-8.37-6.29-12.6s-4.24-8.6-6.27-12.91c0-.09-14.72-46.18-13.13-74.66,2.13,1.92,3.65,3.14,5,4.56C1479.75,2117.51,1487,2125,1493.85,2132.73Z"/><path class="cls-3" d="M885.1,1395.43c.33.51.64,1,1,1.56,1,1.7,2.24,3.29,3.39,4.89a238.84,238.84,0,0,0,26.84,43.86,68.18,68.18,0,0,0,7.85,9.36c22.2,24.65,40.4,30.5,40.62,30.55l1,.73c.69.49,1.3,1.29,2.05,1.42l1.11.24c95.58,54,157.57,43.13,180.91,35.33l1.52-.23c3.12-.55,6.18-2.34,8.91-4.11s3.19-4.15,1.36-7c-4-6.16-8.37-12.12-12.51-18.22-2-3-3.88-6.18-6-9.17-3.16-4.51-6.37-9-9.74-13.34-10.05-13-15.35-27.65-16.74-43.93-1-12-1.85-24.12-4-35.93-3.26-18.12-6.83-36.3-16.89-52.32-3.92-6.24-7.83-12.48-14-16.85-2.69-1.89-5.43-3.3-8.89-2.06a9,9,0,0,0-6.33,9.08c.63,14.22,1,28.47,2,42.68.12,2.15.3,4.31.5,6.47v.07l.15,1.84v.22l3.43,39.73c.2,2.78.36,5.52.6,8.28.4,5.12.93,10.24,1.46,15.32h0v0l.54,5.16a6.78,6.78,0,0,0,.55,2.18c.78,4.53,1.81,9.68,2.59,13.48a53.08,53.08,0,0,1-13.49-13.58c-9.64-13.89-16.49-29.14-23-44.56-4.13-9.72-7.35-19.82-12.06-29.22-5.77-11.51-12-22.94-19.33-33.46a49.06,49.06,0,0,0-4.65-5.61v0h0c-3.63-3.7-8.08-6.67-13.67-7.49a19.27,19.27,0,0,0-7,.18,7.53,7.53,0,0,0-5.36,3.9c-5.38,3.87,1.62,36.91,1.62,36.91h0c.4,2.93.89,5.83,1.49,8.73,1.08,5.23,2.66,10.37,3.77,15.6,3.47,16.48,10.07,31.87,16.43,47.35,1.9,4.65,3.14,9.55,4.87,14.25,1.16,3.14,2.71,6.09,4,9.16a40,40,0,0,1,1.3,4.1c-3.57-1.39-6.51-2.08-9-3.52a81.68,81.68,0,0,1-11.91-8.24c-15.49-13.44-28.57-29.31-42.44-44.3-3.75-4.06-7.57-8.06-11.38-12.09a109.17,109.17,0,0,1-8.71-10.9c-3.74-5-8.72-9.32-13.69-13.26a91,91,0,0,0-21.84-13.23c-5.19-2.13-10.48-1.84-15.83-1.8a5,5,0,0,0-2.72,1.16c-2.58,2.11-5,4.34-7.8,6.75,1.37,1.33,2.63,2.7,3.85,4.14Z"/><path class="cls-3" d="M1317.43,1954.21c0-.52,0-1-.07-1.58,0-.29,0-.55-.07-.85-.15-2.47-.31-4.89-.48-7.33-3.67-36.7-12.19-94-18.3-133.27-.73-3.58-1.17-5.51-1.17-5.51-1-7.66-2-15.32-3.67-22.92-1.79-8.29-2-16.93-3.14-25.37,0-.11,0-.19,0-.25-3-40.51-3.1-87.84-3.1-87.84,3.32-12.78,6.24-25.65,9.21-38.51,1.46-6.38,3.22-12.75,4-19.21,1.13-9.29,1.61-18.69,2.21-28.06.88-13.12-.73-26-3-39-2-11.79-4.23-23.49-8.22-34.69-4.14-11.73-6-24-9.29-35.93a104.45,104.45,0,0,1-2.89-18.33c-.57-6.27,1.11-12.17,3.74-18,2.33-5.16,3.68-10.76,5.41-16.17,1-3,1.56-6.18,2.75-9.1a125.28,125.28,0,0,0,6.5-24.21c1.4-7.86-1.19-14.07-8-17.88-6.67-3.76-13.51-4.59-21.09-1.57-6.78,2.68-11.39,6.72-15.46,12.73-4.85,7.14-8.27,15-12.59,22.31a22.41,22.41,0,0,0-2.19,6.13c-3.5,14.83-6.62,29.75-10.43,44.5-3.91,15.07-9,29.75-16.59,43.51a103.6,103.6,0,0,1-11,16.41.23.23,0,0,1-.08.14c-1.62,2.48-27.26,39.57-101.66,40.22l-47.71-7.49C1039,1544,1026.81,1541,1015,1537c-10.88-3.74-22.3-5.82-32.74-11-6.23-3.13-13.27-4.63-20-6.82-6-2-12-4.3-18.15-6-8.69-2.34-17.5-4.27-26.26-6.32-4.41-1-8.87-1.84-13.27-2.84-16-3.54-32-7-48-10.69-13.87-3.16-27.55-7.34-41.75-8.91a130.93,130.93,0,0,0-17-.77c-6,.14-10,5-10.41,11.12-.69,9.8,7.93,17.94,13.84,20.39q12,5,24.18,9.69c2.63,1,5.44,1.56,8.16,2.39,3.35,1,6.67,2.13,10,3.11,6.56,1.91,13.21,3.54,19.74,5.7,10.77,3.59,21.46,7.46,32.17,11.25,6.6,2.39,13.22,4.76,19.76,7.33,3.72,1.44,7.27,3.33,10.91,5,7.28,3.31,14.66,6.47,21.86,10,3.66,1.78,7.22,3.72,10.79,5.67h0c2.11,1.16,4.23,2.32,6.4,3.41,3.35,1.74,6.67,3.5,10,5.19,19.49,10.76,53.26,31.29,84.59,59.33,3.65,3.52,7.11,7.27,10.87,10.66,1.33,1.2,2.7,2.37,4.09,3.52h0c3.08,2.56,6.23,5.09,9.26,7.74a5.46,5.46,0,0,0,2.24,1.36c1,.82,2.09,1.66,3.24,2.56a8.45,8.45,0,0,0,3.09,3.48c5.94,4.26,11.42,9.17,17.41,13.34,2.84,2,5.71,3.9,8.62,5.79,16.66,12.78,34.34,26,45.65,33.44h0c15.13,18,20.51,45.11,22.37,59.72.29,3.42.56,6.82,1,10.24,1.19,10.78,2.67,21.51,4,32.29.23,7.91.27,16.36,0,25.34-.58,14.4-.82,28.8-3.5,43.07-2.09,11.16-3.29,22.45-5.16,33.62-2.57,15.52-5.17,31-8.13,46.44q-3.88,20.7-8.71,41.27c-1,4.51-3.43,8.71-5.19,13s-3.73,8.92-5.43,13.44c-3.27,8.57-6.23,17.21-9.65,25.69-3.13,7.76-7,15.22-10,23-5.28,13.36-12,25.72-22.07,36.22-5.65,5.87-10.33,12.69-15.34,19.15-8,10.35-17.13,19.7-26.47,28.83-5.25,5.15-10.55,10.27-16,15.23-7.29,6.65-14.4,13.6-22.26,19.56-5.93,4.52-12.9,7.6-19.29,11.45-5,3-9.8,6.44-14.82,9.44-6.59,4-13.27,7.79-20,11.56-11.37,3-92.66,24.94-132.75,41.67a7.52,7.52,0,0,0-3,.79,116.43,116.43,0,0,1-23.12,9.57,17.77,17.77,0,0,0-5.78,3c-2.52,1.91-2.11,4.55.82,5.72,6.79,2.73,13.3,6.5,21,6a3.52,3.52,0,0,1,2.43.52c2.91,3.16,6.76,2.56,10.35,2.56,9.39,0,18.8,1.22,28.13-.65,6.07-1.19,12.13-2.52,18.14-4,1.28-.31,3.19-1.53,3.34-2.48.45-3.55,3.17-5.23,5.53-6.75,9.87-6.28,20-12.22,30-18.24a21.45,21.45,0,0,1,4.12-1.81c5.94-2.08,11.3-5.52,17.54-7,3.63-.87,6.87-3.34,10.41-4.83a81.1,81.1,0,0,1,9.46-3.23c1.08-.31,2.39.11,3.9.23a9.28,9.28,0,0,1-1.34,3.32c-8.46,5.08-64.71,38.88-72.48,47,0,0,30.72,4.17,44,2.36a4.75,4.75,0,0,0,3.23-1.25c5.36-5.31,10.6-10.72,16.26-16.5l20-18.67h0c3.62-2.81,7.08-5.85,10.72-8.68,1.25-1,2.87-1.42,4.25-2.24,7.76-4.65,15.55-9.26,23.18-14.07a26.47,26.47,0,0,0,5-4.89,24.43,24.43,0,0,0,2.14-3.37c.44.36.87.69,1.33,1-1.31,3.87-2.3,7.9-4,11.58-1.28,2.83-2.61,5.63-4,8.42-8.62,15.79-25.65,45.93-32.78,51,0,0,41.59,8.1,48.11,2.55.33.11.66.22.77.09,3.14-3,7-1.58,10.48-1.53a86.44,86.44,0,0,0,13.87-1.16,1.68,1.68,0,0,0,.33,0,42.71,42.71,0,0,0,6.55-1.21l1.19-.18a15.7,15.7,0,0,0,5.44-2.07,50.45,50.45,0,0,0,22.21-18.77l.66-1.49c.47-.55.89-1.06,1.31-1.51,4.93-5.42,9.73-10.95,15.18-17.16v1.82c-2.53,9.92-5.29,24.6-5.81,27.24-.86.34-1.7.93-1.2,2.74-.48,1.12-.94,2.31-.75,2.81.32,1,3.68,2,3.68,2l14.12-3c8.32-44,49.49-80.42,58.84-88.19.31-.21.6-.39.91-.64-2.06,6.85-3.88,13.42-6,19.85-3.56,10.88-6.25,21.87-6.44,33.43-.13,8-.5,16-.74,24.1a23.53,23.53,0,0,0,.16,6c.77,3.24.91,6.18-2.11,8.53,2,2.26,3.79,3.9,6.76,4.11,10.35.72,20.69,1.78,31,2.25,3.06.11,6.14-1.81,9.26-2,6.8-.4,9.35-5.47,12.58-10.15s6.84-9.12,10.44-13.52c7.83-9.53,13.07-20.56,18.27-31.64,1.84-3.91,3.39-7.94,5.07-11.91l1.07.07c-.07,1.48-.07,2.94-.23,4.4-.44,3.82-1.26,7.63-1.41,11.48a127.48,127.48,0,0,1-6.79,35.94,87.19,87.19,0,0,1-4.82,11c-1.77,3.6-3.58,7.13-3.06,12,1.61.41,3.45,1.3,5.28,1.27a118.61,118.61,0,0,0,12-1c2.63-.3,5.29-.83,7.88-1.39,3-.65,5.62-.66,6.91,2.56,2.92-.67,3.54-2.33,3.61-4.88.24-9,.59-18.08,1.2-27.11.69-10.86,1-21.85,2.73-32.56,2.13-13.25.53-26.41.73-39.59.2-13,.79-25.71,4.06-38.36,1.52-5.91.77-12.34,1.39-18.51.73-7,1.83-14,2.78-20.94q1.57-11.68,3.12-23.39c1.12-8.28,2.51-16.53,3.38-24.82,1-9,1.81-18.13,2.69-27.17a390.94,390.94,0,0,0,5.52-53.66,47.56,47.56,0,0,0,.2-5.84C1318.88,1991.88,1318.46,1972.81,1317.43,1954.21ZM1142.21,2232.9c.51-2.23.93-4.51,1.28-6.75V2226h0a91,91,0,0,0,1-13.69c0-6.51-.21-13,.18-19.51.37-6.78,3.32-12.94,6.28-18.92,3.42-7,7.44-13.79,11.21-20.66a6.41,6.41,0,0,1,.55-.87c5.39-6.56,10.63-13.27,16.27-19.64,6.88-7.74,14.08-15.22,21.17-22.79,1.35-1.42,2.88-2.64,5-4.56a41,41,0,0,1,.45,4.62c-.13,4.19-.38,8.37-.58,12.58,0,1.09-.15,2.15-.11,3.18-2.37,19.77-8.19,40.87-10.83,49.85-2.59,5.85-5.58,11.54-8.31,17.34-2,4.23-3.9,8.56-6.29,12.6a31.46,31.46,0,0,1-6.49,8.18c-7.09,5.87-14.57,11.25-21.86,16.86-2.12,1.64-4.05,3.5-6.14,5.13a31.6,31.6,0,0,1-3.85,2.64Zm-29.65,11.86c.83-9.26,1.17-18.72,4.36-27.69,1.55-4.39,2.42-9,3.92-13.45,1.08-3.11,2.5-6.26,7.31-6.7.42,4.7,1.1,9.3,1.21,13.9.14,7.55-.15,15.09-.11,22.64a49.1,49.1,0,0,0,.24,7.18,33.12,33.12,0,0,1-2.5,9.3,4.3,4.3,0,0,1-.59.69c-2.73,2.64-5.65,5.09-8.3,7.42-.9-.39-1.39-.45-1.49-.65C1114.8,2253.29,1112.2,2249,1112.56,2244.76ZM1058,2272.33c.48-1.23,1.37-2.32,1.77-3.56,1.79-5.58,3.24-11.28,5.31-16.75,1.91-5,3.83-10.17,6.8-14.5a135.47,135.47,0,0,1,20.14-23c1.2-1.16,2.9-1.85,5-3.13-.18,3.16-.26,5.33-.38,7.5-.52,8.69-.92,17.39-1.61,26.07-.49,6,1,11.85.29,18-1,10-5.43,17.63-13.43,23a27.61,27.61,0,0,0-3.76,3.19l-27.45,15.07c-.37.1-.75.17-1.2.27a68,68,0,0,1,1.85-6.61c2.55-6.23,4.54-12.55,4.69-19.38C1056.12,2276.4,1057.24,2274.33,1058,2272.33Zm201.11-80.13c-1.06,11.8-3.45,23.56-6.07,35.13-2.83,12.42-7,24.5-14,35.3a174.43,174.43,0,0,0-13.56,24.59,20.57,20.57,0,0,1-5.88,7.28c-3.85,3.11-7.39,6.23-8.4,11.37-.37,1.83-1.07,3.5-3.6,4.06a19.73,19.73,0,0,1-.2-2.56c.45-10.2,1.16-20.4,1.35-30.6a92.08,92.08,0,0,1,.83-10.41l1.37-4.23c.11-2.15.33-4.33.59-6.54a1,1,0,0,1,0-.18c.64-2.8,1.17-5.6,1.75-8.37,1-4.77,2-9.52,2.88-14.29,12-43.08,39.77-86.36,39.77-86.36l-.19-.86c.28-.55.59-1.06.88-1.61.36.08.71.15,1.09.25.13.63.29,1.22.36,1.83C1259.54,2161.39,1260.49,2176.85,1259.11,2192.2Z"/><path class="cls-4" d="M1298.64,416.37a315.5,315.5,0,0,1,17.49,437.7c.1-7.79.13-15.6.13-23.44,0-87.58-6.34-171.33-17.49-231.84-11.13,60.62-17.44,144.48-17.39,232.08,0,7.54,0,15,.13,22.57a315.07,315.07,0,0,1,17.11-437.07Z"/><path class="cls-3" d="M1885.51,690a327.2,327.2,0,0,1-308.2,333.86q8.7-8.45,17.29-17.11c64.21-64.23,121-130.28,157.24-182.84-52.67,36.3-118.77,93.2-183,157.42-5.54,5.58-11,11.11-16.43,16.69a326.82,326.82,0,0,1,333.1-308Z"/><path class="cls-3" d="M718.75,697.38a320.38,320.38,0,0,0,301.77,326.86c-5.67-5.54-11.3-11.1-16.92-16.77-62.88-62.9-118.49-127.58-154-179C901.19,864,965.9,919.69,1028.79,982.61q8.16,8.16,16.11,16.33A319.94,319.94,0,0,0,718.75,697.38Z"/><path class="cls-4" d="M2195.6,1243.82a264.73,264.73,0,0,1-367.3,14.67q9.79.1,19.67.11c73.47,0,143.77-5.32,194.57-14.68-50.91-9.35-121.26-14.62-194.77-14.58-6.31,0-12.65,0-18.94.12a264.41,264.41,0,0,1,366.75,14.34Z"/><path class="cls-4" d="M415.91,1254.1A303.88,303.88,0,0,0,837.55,1271q-11.22.16-22.56.17c-84.36,0-165-6.15-223.35-16.85,58.43-10.76,139.19-16.79,223.54-16.79,7.32,0,14.55.09,21.77.15a303.58,303.58,0,0,0-421,16.51Z"/><path class="cls-2" d="M929.49,439.62A228.24,228.24,0,0,1,1080.91,718c-2.44-5.08-4.9-10.18-7.43-15.3-28-56.8-58.92-109.09-85.53-144.8,12.19,42.9,34.94,99.3,63,156.13,2.41,4.91,4.88,9.79,7.3,14.6a227.9,227.9,0,0,1-128.75-289Z"/><path class="cls-3" d="M1657.2,439.62A228.2,228.2,0,0,0,1505.83,718c2.43-5.08,4.89-10.18,7.42-15.3,28-56.8,58.91-109.09,85.5-144.8-12.16,42.9-34.91,99.3-63,156.13-2.42,4.91-4.87,9.79-7.31,14.6a227.85,227.85,0,0,0,128.73-289Z"/><path class="cls-3" d="M458.53,911.34a228.2,228.2,0,0,1,290,127.69l-15.18-7.53c-57-27.79-113.36-50.32-156.23-62.3,35.88,26.48,88.35,57.22,145.3,85.06,4.86,2.4,9.81,4.74,14.69,7A227.88,227.88,0,0,1,458.53,911.36Z"/><path class="cls-2" d="M2147.88,911.34a228.23,228.23,0,0,0-290,127.69c5-2.5,10.11-5,15.17-7.53,56.93-27.79,113.34-50.32,156.25-62.3-35.89,26.48-88.38,57.22-145.29,85.06-4.91,2.4-9.84,4.74-14.72,7a227.95,227.95,0,0,0,278.6-149.95Z"/><path class="cls-5" d="M2512.65,1004.48a307.1,307.1,0,0,0-415.25,97.39q10.89-3.16,21.95-6.2c82.19-22.77,162.41-38.61,222.11-43.91-54,26.21-131.08,53.9-213.26,76.67-7.09,2-14.17,3.88-21.19,5.73a306.78,306.78,0,0,0,405.64-129.7Z"/><path class="cls-4" d="M2321.34,565.46a307.11,307.11,0,0,0-347.85,246.87c5.93-4.72,11.9-9.37,18-14.07,67.53-52,135.86-97,189.14-124.39-40.11,44.61-101,99.35-168.55,151.4q-8.77,6.74-17.49,13.31a306.79,306.79,0,0,0,326.78-273.11Z"/><path class="cls-5" d="M1964.29,221.83a307.09,307.09,0,0,0-224.14,362.85q5.41-9.95,11-20c41.93-74.24,87.31-142.26,125.69-188.27-19.53,56.75-54.29,130.88-96.21,205.15-3.61,6.4-7.22,12.76-10.92,19.07a306.83,306.83,0,0,0,194.53-378.86Z"/><path class="cls-4" d="M1528.32,49.28a307,307,0,0,0-74.16,420c.9-7.52,1.83-15.06,2.89-22.62,11.52-84.48,28.57-164.5,47.22-221.45,2.82,60-2.11,141.7-13.59,226.21-1,7.29-2,14.56-3.1,21.77a306.83,306.83,0,0,0,40.74-424Z"/><path class="cls-5" d="M1009.83,60.67a307.16,307.16,0,0,0,103.24,413.88c-2.24-7.27-4.41-14.55-6.56-21.88-23.9-81.85-40.89-161.84-47-221.47,27,53.62,55.75,130.3,79.68,212.15,2.07,7.08,4.06,14.15,6,21.17A306.78,306.78,0,0,0,1009.83,60.7Z"/><path class="cls-4" d="M582.65,251.69A307.18,307.18,0,0,0,831.24,598.3q-7.11-8.87-14.12-17.89C764.7,513.11,719.42,445,691.76,391.85,736.59,431.76,791.63,492.4,844,559.67c4.5,5.8,9,11.64,13.37,17.44A306.84,306.84,0,0,0,582.65,251.66Z"/><path class="cls-5" d="M240.93,610.28a307.1,307.1,0,0,0,364,222.39q-10-5.42-20-11C510.42,780.17,442.22,735.07,396,696.91c56.85,19.27,131.16,53.67,205.65,95.22,6.43,3.59,12.77,7.2,19.12,10.83A306.76,306.76,0,0,0,241,610.28Z"/><path class="cls-4" d="M68.85,1056.25a307.14,307.14,0,0,0,420.93,69c-7.54-.84-15.09-1.74-22.68-2.65-84.65-10.46-164.79-26.52-222-44.5,59.94-3.55,141.72.35,226.37,10.8,7.31.91,14.58,1.87,21.81,2.81a306.84,306.84,0,0,0-424.42-35.47Z"/><path class="cls-5" d="M136.74,1520.25a264.61,264.61,0,0,0,357.69-83.89c-6.27,1.8-12.6,3.6-18.91,5.37-70.81,19.56-139.88,33.23-191.33,37.79,46.55-22.59,112.92-46.47,183.69-66.06,6.12-1.69,12.2-3.31,18.29-5a264.29,264.29,0,0,0-349.43,111.74Z"/><path class="cls-5" d="M2425.23,1462.38a236.42,236.42,0,0,0-324-53.12c5.78.64,11.57,1.32,17.42,2,65.16,8.06,126.86,20.44,170.9,34.27-46.15,2.71-109.09-.28-174.24-8.33-5.64-.67-11.2-1.42-16.77-2.16a236.17,236.17,0,0,0,326.69,27.3Z"/><path class="cls-3" d="M2485.4,761.57a181.44,181.44,0,0,0-223.52,116.17q5.77-3.36,11.66-6.76c43.73-25,87.33-45.71,120.76-57.43-27.12,22.88-67.16,49.93-111,74.93-3.77,2.16-7.51,4.3-11.27,6.38A181.26,181.26,0,0,0,2485.4,761.57Z"/><path class="cls-3" d="M2177.89,354.39a181.42,181.42,0,0,0-173.5,182.67c2.93-3.4,5.85-6.82,8.84-10.21,33.2-37.86,67.69-71.66,95.48-93.62-18.2,30.45-47.25,69.08-80.47,106.95-2.86,3.28-5.75,6.52-8.63,9.71a181.18,181.18,0,0,0,158.28-195.5Z"/><path class="cls-2" d="M1774.56,93.05a181.42,181.42,0,0,0-110.91,226.19c1.76-4.14,3.56-8.24,5.37-12.36,20.37-46.05,43.13-88.66,63.08-117.92-8.25,34.49-24.41,80-44.8,126.13-1.72,4-3.54,7.92-5.31,11.86a181.27,181.27,0,0,0,92.57-233.9Z"/><path class="cls-2" d="M1272.34,0a181.33,181.33,0,0,0,9.23,251.76c-.39-4.46-.75-8.93-1.13-13.45-3.83-50.23-3.91-98.53-.17-133.7,9,34.27,16.34,82.08,20.19,132.28.33,4.34.62,8.66.93,12.93A181.23,181.23,0,0,0,1272.34,0Z"/><path class="cls-2" d="M783,107.23a181.38,181.38,0,0,0,92,234.53c-1.84-4.09-3.7-8.18-5.48-12.29-20.26-46.13-36.29-91.69-44.4-126.16,19.89,29.37,42.57,72.07,62.81,118.19,1.74,4,3.44,8,5.15,11.9A181.23,181.23,0,0,0,783,107.22Z"/><path class="cls-2" d="M371,398.76A181.47,181.47,0,0,0,566.48,557.62c-3.64-2.64-7.22-5.3-10.88-8-40.28-30.21-76.67-62-100.71-87.91,31.73,15.76,72.54,41.77,112.83,71.91,3.52,2.64,6.93,5.25,10.37,7.87A181.24,181.24,0,0,0,371,398.72Z"/><path class="cls-3" d="M109.81,808.9a181.5,181.5,0,0,0,228.09,107c-4.16-1.7-8.3-3.43-12.47-5.16-46.4-19.57-89.38-41.62-119-61,34.64,7.64,80.45,23,126.88,42.59,4,1.67,8,3.38,11.93,5.1a181.17,181.17,0,0,0-235.46-88.49Z"/><path class="cls-3" d="M38.06,1309.9A181.44,181.44,0,0,0,290,1314.28c-4.48.16-9,.31-13.5.42-50.34,1.13-98.57-1.44-133.51-7.06,34.71-7.18,82.82-11.88,133.18-13,4.38-.08,8.67-.17,13-.2a181.09,181.09,0,0,0-251,15.45Z"/><path class="cls-3" d="M2569.82,1272.6a181.41,181.41,0,0,0-251.69-11.12l13.5,0c50.36.22,98.48,4.07,133.29,10.64-34.87,6.23-83.14,9.65-133.49,9.4-4.37,0-8.71-.07-13-.11a181.23,181.23,0,0,0,251.39-8.77Z"/><path class="cls-3" d="M1692.35,1101.39A170.81,170.81,0,0,0,1475.24,1197c3.76-1.88,7.54-3.76,11.39-5.63,42.59-20.82,84.83-37.67,117-46.62-26.88,19.82-66.16,42.83-108.76,63.65-3.71,1.76-7.38,3.55-11.06,5.28a170.65,170.65,0,0,0,208.58-112.25Z"/><path class="cls-3" d="M893.85,1114.93a170.88,170.88,0,0,0,221.11,86l-12.06-4.05c-44.85-15.42-86.61-33.38-115.67-49.73,33,5,77.06,16.46,121.93,31.9,3.84,1.33,7.67,2.67,11.54,4a170.65,170.65,0,0,0-226.87-68Z"/><path class="cls-3" d="M1123.74,877.11a170.86,170.86,0,0,0,95.57,217.08c-1.86-3.79-3.74-7.54-5.62-11.35-20.82-42.61-37.63-84.86-46.62-117,19.82,26.86,42.83,66.18,63.65,108.8,1.8,3.65,3.55,7.35,5.3,11a170.53,170.53,0,0,0-112.24-208.54Z"/><path class="cls-3" d="M1454.51,871.51a170.79,170.79,0,0,0-85.94,221.06c1.34-4,2.68-8,4-12,15.42-44.83,33.39-86.61,49.73-115.67-4.95,33-16.49,77.07-31.91,121.91-1.32,3.9-2.67,7.71-4,11.56a170.72,170.72,0,0,0,68.06-226.85Z"/></svg>