<svg width="204" height="119" viewBox="0 0 204 119" fill="none" xmlns="http://www.w3.org/2000/svg">
<g clip-path="url(#clip0_161986_39920)">
<path d="M122.921 116.798H47.9385V8.58639C47.9385 3.84508 51.7707 0 56.4961 0H124.093C128.818 0 132.65 3.84508 132.65 8.58639V107.031C132.655 112.423 128.295 116.798 122.921 116.798Z" fill="#68C4ED"/>
<path d="M125.51 9.32422H56.9287V52.8344H125.51V9.32422Z" fill="white"/>
<path d="M63.2046 62.6211H58.0518V67.7912H63.2046V62.6211Z" fill="white"/>
<path d="M125.505 64.1953H68.0938V65.7709H125.505V64.1953Z" fill="#F7F8F8"/>
<path d="M63.2046 73.2891H58.0518V78.4592H63.2046V73.2891Z" fill="white"/>
<path d="M124.649 75.5391H67.2383V77.1147H124.649V75.5391Z" fill="#F7F8F8"/>
<path d="M63.2046 84.1406H58.0518V89.3108H63.2046V84.1406Z" fill="white"/>
<path d="M124.649 86.3828H67.2383V87.9584H124.649V86.3828Z" fill="#F7F8F8"/>
<path d="M63.2046 95.4492H58.0518V100.619H63.2046V95.4492Z" fill="white"/>
<path d="M124.649 97.6992H67.2383V99.2748H124.649V97.6992Z" fill="#F7F8F8"/>
<path d="M113.921 14.7812H66.667V17.6289H113.921V14.7812Z" fill="#E1E4EA"/>
<path d="M113.921 20.8281H66.667V23.6758H113.921V20.8281Z" fill="#E1E4EA"/>
<path d="M113.921 26.875H66.667V29.7227H113.921V26.875Z" fill="#E1E4EA"/>
<path d="M113.921 32.4414H66.667V35.2891H113.921V32.4414Z" fill="#E1E4EA"/>
<path d="M113.921 38.4883H66.667V41.336H113.921V38.4883Z" fill="#E1E4EA"/>
<path d="M113.921 44.5352H66.667V47.3828H113.921V44.5352Z" fill="#E1E4EA"/>
<path d="M190.945 72.1299L184.937 81.786L150.851 60.2381L156.858 50.582L190.945 72.1299Z" fill="#68C4ED"/>
<path d="M202.691 86.1164L202.624 86.2273C200.727 89.2725 197.346 90.5879 195.07 89.1617L168.902 73.0441L175.779 61.4414L202.004 78.0215C204.276 79.4478 204.583 83.0712 202.691 86.1164Z" fill="#4467AB"/>
<path d="M146.293 9.74688C130.296 -0.27539 109.229 4.61528 99.2451 20.6654C89.2564 36.7155 94.1307 57.8538 110.127 67.8712C126.123 77.8887 147.191 73.0028 157.175 56.9527C167.163 40.9026 162.289 19.7691 146.293 9.74688ZM153.126 54.4183C144.535 68.2278 126.416 72.4294 112.653 63.8093C98.8897 55.1892 94.7021 37.0094 103.293 23.1999C111.885 9.39032 130.004 5.18867 143.767 13.8088C157.525 22.4289 161.718 40.6135 153.126 54.4183Z" fill="#4467AB"/>
<g opacity="0.22">
<path d="M107.039 37.6216C106.895 28.2258 112.979 19.7213 122.017 17.1097C131.031 14.5078 140.857 18.4974 145.596 26.6164C146.931 28.9051 150.567 26.9922 149.232 24.7035C143.772 15.3606 132.952 10.523 122.397 12.7731C111.995 14.9944 104.326 23.9615 103.072 34.4463C102.952 35.4582 102.924 36.4845 102.938 37.5012C102.976 40.1465 107.082 40.2862 107.039 37.6216Z" fill="white"/>
</g>
<path opacity="0.31" d="M150.654 35.6407C152.135 35.4444 153.176 34.0812 152.981 32.5959C152.785 31.1105 151.426 30.0656 149.946 30.2618C148.466 30.4581 147.424 31.8213 147.62 33.3066C147.815 34.7919 149.174 35.8369 150.654 35.6407Z" fill="white"/>
<path d="M169.247 72.6642L175.788 61.6253C176.014 61.2446 175.913 60.758 175.562 60.493L175.447 60.4062C175.039 60.1027 174.453 60.2231 174.198 60.6664L167.754 71.7825C167.514 72.1969 167.658 72.7317 168.08 72.9678L168.095 72.9774C168.498 73.1991 169.007 73.0642 169.247 72.6642Z" fill="#4467AB"/>
<path d="M31.3468 71.4275V69.2689C31.3468 67.8667 30.2135 66.7344 28.8208 66.7344H4.82872C3.43126 66.7344 2.30273 67.8715 2.30273 69.2689V73.5813V80.2355V113.507H58.2586V76.747C58.2586 74.9979 56.8468 73.5813 55.1036 73.5813H33.4934C32.3072 73.5861 31.3468 72.6176 31.3468 71.4275Z" fill="#F1B65B"/>
<path d="M55.5932 74.5352H4.96777V111.251H55.5932V74.5352Z" fill="white"/>
<path d="M1.65398 115.222C1.43308 109.146 0.900028 96.4881 0.0980514 89.2219C-0.185282 86.6537 1.81726 84.4035 4.39127 84.4035H18.1882C20.6517 84.4035 23.0288 83.4832 24.8585 81.8209L28.0712 78.9009C29.435 77.6578 31.2167 76.9688 33.0607 76.9688H57.7059C60.9907 76.9688 63.5119 79.8791 63.0605 83.1411C61.8503 91.8046 59.8285 107.411 59.7229 115.506C59.6989 117.458 58.1045 119.014 56.1644 119C45.5946 118.903 15.3836 118.638 5.18844 118.633C3.27715 118.633 1.72121 117.125 1.65398 115.222Z" fill="#F1B65B"/>
</g>
<defs>
<clipPath id="clip0_161986_39920">
<rect width="203.861" height="119" fill="white" transform="translate(0.0693359)"/>
</clipPath>
</defs>
</svg>
