<svg width="218" height="119" viewBox="0 0 218 119" fill="none" xmlns="http://www.w3.org/2000/svg">
<g clip-path="url(#clip0_161986_39884)">
<path d="M93.4731 14.2227H12.056C5.39758 14.2227 0 19.5984 0 26.2299V78.5622C0 85.1937 5.39758 90.5695 12.056 90.5695H16.7264V100.493C16.7264 103.56 20.065 105.464 22.7237 103.922L45.674 90.5695H93.4731C100.132 90.5695 105.529 85.1937 105.529 78.5622V26.2299C105.529 19.5984 100.132 14.2227 93.4731 14.2227Z" fill="#68C4ED"/>
<path d="M18.866 57.7777C22.0113 57.7777 24.5611 55.2382 24.5611 52.1056C24.5611 48.9731 22.0113 46.4336 18.866 46.4336C15.7207 46.4336 13.1709 48.9731 13.1709 52.1056C13.1709 55.2382 15.7207 57.7777 18.866 57.7777Z" fill="white"/>
<path d="M39.7097 57.7777C42.855 57.7777 45.4048 55.2382 45.4048 52.1056C45.4048 48.9731 42.855 46.4336 39.7097 46.4336C36.5644 46.4336 34.0146 48.9731 34.0146 52.1056C34.0146 55.2382 36.5644 57.7777 39.7097 57.7777Z" fill="white"/>
<path d="M124.527 14.2227H205.944C212.602 14.2227 218 19.5984 218 26.2299V78.5622C218 85.1937 212.602 90.5695 205.944 90.5695H201.273V100.493C201.273 103.56 197.935 105.464 195.276 103.922L172.326 90.5695H124.527C117.868 90.5695 112.471 85.1937 112.471 78.5622V26.2299C112.471 19.5984 117.868 14.2227 124.527 14.2227Z" fill="#68C4ED"/>
<path d="M199.138 57.7777C202.284 57.7777 204.834 55.2382 204.834 52.1056C204.834 48.9731 202.284 46.4336 199.138 46.4336C195.993 46.4336 193.443 48.9731 193.443 52.1056C193.443 55.2382 195.993 57.7777 199.138 57.7777Z" fill="white"/>
<path d="M178.295 57.7777C181.44 57.7777 183.99 55.2382 183.99 52.1056C183.99 48.9731 181.44 46.4336 178.295 46.4336C175.149 46.4336 172.6 48.9731 172.6 52.1056C172.6 55.2382 175.149 57.7777 178.295 57.7777Z" fill="white"/>
<path d="M151.132 0H69.7152C63.0568 0 57.6592 5.37574 57.6592 12.0072V93.0949C57.6592 99.7263 63.0568 105.102 69.7152 105.102H74.3855V115.026C74.3855 118.092 77.7242 119.997 80.3829 118.454L103.333 105.102H151.132C157.791 105.102 163.188 99.7263 163.188 93.0949V12.0072C163.188 5.37574 157.791 0 151.132 0Z" fill="#4467AB"/>
<path d="M77.0586 73.8907V29.1211H93.3458V35.4422H83.4054V48.5547H93.3458V54.8757H83.4054V73.886H77.0586V73.8907Z" fill="#F1B65B"/>
<path d="M113.278 73.8938L111.852 65.1506H103.182L101.756 73.8938H95.4609L102.653 29.1289H112.381L119.573 73.8938H113.278ZM104.183 58.8295H110.846L107.517 37.2372L104.183 58.8295Z" fill="#F1B65B"/>
<path d="M136.81 78.7884H130.463V73.8924C129.301 73.5443 128.276 73.0317 127.393 72.3638C126.51 71.696 125.783 70.9247 125.197 70.0452C124.617 69.1704 124.182 68.2203 123.904 67.1997C123.62 66.1839 123.479 65.1303 123.479 64.0392V38.9712C123.479 37.5697 123.705 36.2528 124.168 35.0205C124.626 33.793 125.268 32.7301 126.099 31.8365C126.926 30.9429 127.922 30.228 129.089 29.7012C130.25 29.1745 131.554 28.8923 133.003 28.8594H134.694C136.139 28.8594 137.428 29.1416 138.552 29.7012C139.681 30.2656 140.63 31.0087 141.409 31.94C142.184 32.8712 142.774 33.9482 143.18 35.1805C143.586 36.408 143.789 37.6731 143.789 38.9712V64.0392C143.789 66.3579 143.18 68.4179 141.966 70.2286C140.748 72.0393 139.034 73.2575 136.81 73.8877V78.7884ZM137.447 64.0439V38.9759C137.447 37.96 137.211 37.09 136.734 36.3704C136.257 35.6508 135.506 35.2557 134.486 35.1852H132.739C131.648 35.2886 130.888 35.7213 130.468 36.4738C130.042 37.231 129.835 38.0635 129.835 38.9759V64.0439C129.835 65.1303 130.099 66.0381 130.628 66.7576C131.157 67.4772 131.969 67.8394 133.06 67.8394H134.222C135.35 67.8394 136.167 67.4631 136.682 66.7059C137.187 65.9487 137.447 65.0598 137.447 64.0439Z" fill="#F1B65B"/>
</g>
<defs>
<clipPath id="clip0_161986_39884">
<rect width="218" height="119" fill="white"/>
</clipPath>
</defs>
</svg>
